M48
; DRILL file {KiCad (7.0.0-0)} date Saturday, October 07, 2023 at 19:29:08
; FORMAT={-:-/ absolute / metric / decimal}
; #@! TF.CreationDate,2023-10-07T19:29:08-07:00
; #@! TF.GenerationSoftware,Kicad,Pcbnew,(7.0.0-0)
; #@! TF.FileFunction,Plated,1,2,PTH
FMAT,2
METRIC
; #@! TA.AperFunction,Plated,PTH,ViaDrill
T1C0.250
; #@! TA.AperFunction,Plated,PTH,ViaDrill
T2C0.350
; #@! TA.AperFunction,Plated,PTH,ComponentDrill
T3C1.000
; #@! TA.AperFunction,Plated,PTH,ComponentDrill
T4C1.270
%
G90
G05
T1
X44.831Y-77.724
X46.228Y-97.028
X48.578Y-102.997
X48.831Y-99.695
X48.831Y-100.711
X48.831Y-101.981
X49.784Y-97.028
X50.546Y-104.394
X53.721Y-104.394
X58.166Y-84.074
T2
X49.911Y-86.36
X49.911Y-94.869
T3
X39.941Y-84.46
X39.941Y-87.0
X43.561Y-79.629
X43.688Y-84.836
X43.688Y-87.376
X43.688Y-89.916
X43.688Y-92.456
X43.688Y-94.996
X43.688Y-97.536
X43.688Y-100.076
X43.688Y-102.616
X46.101Y-79.629
X55.499Y-87.63
X55.499Y-91.44
X55.499Y-95.25
X55.499Y-99.06
X58.039Y-87.63
X58.039Y-91.44
X58.039Y-95.25
X58.039Y-99.06
X58.928Y-82.296
X60.579Y-87.63
X60.579Y-91.44
X60.579Y-95.25
X60.579Y-99.06
X61.468Y-82.296
X64.008Y-82.296
X64.008Y-84.836
X64.008Y-87.376
X64.008Y-89.916
X64.008Y-92.456
X64.008Y-94.996
X64.008Y-97.536
X64.008Y-100.076
X64.008Y-102.616
X67.691Y-86.614
T4
X54.991Y-79.248
X57.531Y-79.248
X60.071Y-79.248
T0
M30
