%TF.GenerationSoftware,KiCad,Pcbnew,(7.0.0-0)*%
%TF.CreationDate,2023-10-07T19:29:11-07:00*%
%TF.ProjectId,tiny_rocket_av_bay,74696e79-5f72-46f6-936b-65745f61765f,rev?*%
%TF.SameCoordinates,Original*%
%TF.FileFunction,Soldermask,Bot*%
%TF.FilePolarity,Negative*%
%FSLAX46Y46*%
G04 Gerber Fmt 4.6, Leading zero omitted, Abs format (unit mm)*
G04 Created by KiCad (PCBNEW (7.0.0-0)) date 2023-10-07 19:29:11*
%MOMM*%
%LPD*%
G01*
G04 APERTURE LIST*
G04 Aperture macros list*
%AMRoundRect*
0 Rectangle with rounded corners*
0 $1 Rounding radius*
0 $2 $3 $4 $5 $6 $7 $8 $9 X,Y pos of 4 corners*
0 Add a 4 corners polygon primitive as box body*
4,1,4,$2,$3,$4,$5,$6,$7,$8,$9,$2,$3,0*
0 Add four circle primitives for the rounded corners*
1,1,$1+$1,$2,$3*
1,1,$1+$1,$4,$5*
1,1,$1+$1,$6,$7*
1,1,$1+$1,$8,$9*
0 Add four rect primitives between the rounded corners*
20,1,$1+$1,$2,$3,$4,$5,0*
20,1,$1+$1,$4,$5,$6,$7,0*
20,1,$1+$1,$6,$7,$8,$9,0*
20,1,$1+$1,$8,$9,$2,$3,0*%
G04 Aperture macros list end*
%ADD10C,2.200000*%
%ADD11R,1.700000X1.700000*%
%ADD12O,1.700000X1.700000*%
%ADD13R,0.711200X1.701800*%
%ADD14R,6.553200X6.223000*%
%ADD15RoundRect,0.250000X-0.337500X-0.475000X0.337500X-0.475000X0.337500X0.475000X-0.337500X0.475000X0*%
%ADD16RoundRect,0.237500X-0.237500X0.300000X-0.237500X-0.300000X0.237500X-0.300000X0.237500X0.300000X0*%
%ADD17RoundRect,0.250000X-0.475000X0.337500X-0.475000X-0.337500X0.475000X-0.337500X0.475000X0.337500X0*%
%ADD18RoundRect,0.237500X0.250000X0.237500X-0.250000X0.237500X-0.250000X-0.237500X0.250000X-0.237500X0*%
%ADD19RoundRect,0.100000X0.687500X0.100000X-0.687500X0.100000X-0.687500X-0.100000X0.687500X-0.100000X0*%
%ADD20RoundRect,0.250000X0.325000X0.450000X-0.325000X0.450000X-0.325000X-0.450000X0.325000X-0.450000X0*%
%ADD21C,1.778000*%
%ADD22RoundRect,0.237500X0.237500X-0.300000X0.237500X0.300000X-0.237500X0.300000X-0.237500X-0.300000X0*%
G04 APERTURE END LIST*
D10*
%TO.C,H4*%
X53530500Y-106426000D03*
%TD*%
D11*
%TO.C,J8*%
X39941499Y-86999999D03*
D12*
X39941499Y-84459999D03*
%TD*%
D10*
%TO.C,H1*%
X38290500Y-91186000D03*
%TD*%
%TO.C,H2*%
X53530500Y-75946000D03*
%TD*%
D11*
%TO.C,U1*%
X64007999Y-102615999D03*
D12*
X64007999Y-100075999D03*
X64007999Y-97535999D03*
X64007999Y-94995999D03*
X64007999Y-92455999D03*
X64007999Y-89915999D03*
X64007999Y-87375999D03*
X64007999Y-84835999D03*
X64007999Y-82295999D03*
X61467999Y-82295999D03*
D11*
X58927999Y-82295999D03*
X43687999Y-84835999D03*
D12*
X43687999Y-87375999D03*
X43687999Y-89915999D03*
X43687999Y-92455999D03*
X43687999Y-94995999D03*
X43687999Y-97535999D03*
X43687999Y-100075999D03*
X43687999Y-102615999D03*
%TD*%
D10*
%TO.C,H3*%
X68770500Y-91186000D03*
%TD*%
D11*
%TO.C,J6*%
X67690999Y-86613999D03*
%TD*%
%TO.C,J4*%
X55498999Y-87629999D03*
D12*
X58038999Y-87629999D03*
X60578999Y-87629999D03*
%TD*%
D11*
%TO.C,J2*%
X55498999Y-91439999D03*
D12*
X58038999Y-91439999D03*
X60578999Y-91439999D03*
%TD*%
D13*
%TO.C,U5*%
X47356998Y-84175599D03*
D14*
X49656999Y-90931999D03*
D13*
X51957000Y-84175599D03*
%TD*%
D15*
%TO.C,C5*%
X53953500Y-82550000D03*
X56028500Y-82550000D03*
%TD*%
D16*
%TO.C,C1*%
X51181000Y-95911500D03*
X51181000Y-97636500D03*
%TD*%
D17*
%TO.C,C6*%
X66675000Y-82528500D03*
X66675000Y-84603500D03*
%TD*%
D18*
%TO.C,R2*%
X51331500Y-79502000D03*
X49506500Y-79502000D03*
%TD*%
D19*
%TO.C,U6*%
X52658500Y-99764000D03*
X52658500Y-100414000D03*
X52658500Y-101064000D03*
X52658500Y-101714000D03*
X52658500Y-102364000D03*
X52658500Y-103014000D03*
X52658500Y-103664000D03*
X46933500Y-103664000D03*
X46933500Y-103014000D03*
X46933500Y-102364000D03*
X46933500Y-101714000D03*
X46933500Y-101064000D03*
X46933500Y-100414000D03*
X46933500Y-99764000D03*
%TD*%
D11*
%TO.C,BT1*%
X46100999Y-79628999D03*
D12*
X43560999Y-79628999D03*
%TD*%
D15*
%TO.C,C7*%
X56938000Y-76708000D03*
X59013000Y-76708000D03*
%TD*%
D20*
%TO.C,D1*%
X49666000Y-76708000D03*
X47616000Y-76708000D03*
%TD*%
D21*
%TO.C,U4*%
X54991000Y-79248000D03*
X57531000Y-79248000D03*
X60071000Y-79248000D03*
%TD*%
D15*
%TO.C,C4*%
X53953500Y-84836000D03*
X56028500Y-84836000D03*
%TD*%
D22*
%TO.C,C2*%
X48006000Y-97636500D03*
X48006000Y-95911500D03*
%TD*%
D11*
%TO.C,J3*%
X55498999Y-95249999D03*
D12*
X58038999Y-95249999D03*
X60578999Y-95249999D03*
%TD*%
D11*
%TO.C,J5*%
X55498999Y-99059999D03*
D12*
X58038999Y-99059999D03*
X60578999Y-99059999D03*
%TD*%
M02*
