%TF.GenerationSoftware,KiCad,Pcbnew,(7.0.0-0)*%
%TF.CreationDate,2023-10-07T19:29:10-07:00*%
%TF.ProjectId,tiny_rocket_av_bay,74696e79-5f72-46f6-936b-65745f61765f,rev?*%
%TF.SameCoordinates,Original*%
%TF.FileFunction,Copper,L2,Bot*%
%TF.FilePolarity,Positive*%
%FSLAX46Y46*%
G04 Gerber Fmt 4.6, Leading zero omitted, Abs format (unit mm)*
G04 Created by KiCad (PCBNEW (7.0.0-0)) date 2023-10-07 19:29:10*
%MOMM*%
%LPD*%
G01*
G04 APERTURE LIST*
G04 Aperture macros list*
%AMRoundRect*
0 Rectangle with rounded corners*
0 $1 Rounding radius*
0 $2 $3 $4 $5 $6 $7 $8 $9 X,Y pos of 4 corners*
0 Add a 4 corners polygon primitive as box body*
4,1,4,$2,$3,$4,$5,$6,$7,$8,$9,$2,$3,0*
0 Add four circle primitives for the rounded corners*
1,1,$1+$1,$2,$3*
1,1,$1+$1,$4,$5*
1,1,$1+$1,$6,$7*
1,1,$1+$1,$8,$9*
0 Add four rect primitives between the rounded corners*
20,1,$1+$1,$2,$3,$4,$5,0*
20,1,$1+$1,$4,$5,$6,$7,0*
20,1,$1+$1,$6,$7,$8,$9,0*
20,1,$1+$1,$8,$9,$2,$3,0*%
G04 Aperture macros list end*
%TA.AperFunction,ComponentPad*%
%ADD10R,1.700000X1.700000*%
%TD*%
%TA.AperFunction,ComponentPad*%
%ADD11O,1.700000X1.700000*%
%TD*%
%TA.AperFunction,SMDPad,CuDef*%
%ADD12R,0.711200X1.701800*%
%TD*%
%TA.AperFunction,SMDPad,CuDef*%
%ADD13R,6.553200X6.223000*%
%TD*%
%TA.AperFunction,SMDPad,CuDef*%
%ADD14RoundRect,0.250000X-0.337500X-0.475000X0.337500X-0.475000X0.337500X0.475000X-0.337500X0.475000X0*%
%TD*%
%TA.AperFunction,SMDPad,CuDef*%
%ADD15RoundRect,0.237500X-0.237500X0.300000X-0.237500X-0.300000X0.237500X-0.300000X0.237500X0.300000X0*%
%TD*%
%TA.AperFunction,SMDPad,CuDef*%
%ADD16RoundRect,0.250000X-0.475000X0.337500X-0.475000X-0.337500X0.475000X-0.337500X0.475000X0.337500X0*%
%TD*%
%TA.AperFunction,SMDPad,CuDef*%
%ADD17RoundRect,0.237500X0.250000X0.237500X-0.250000X0.237500X-0.250000X-0.237500X0.250000X-0.237500X0*%
%TD*%
%TA.AperFunction,SMDPad,CuDef*%
%ADD18RoundRect,0.100000X0.687500X0.100000X-0.687500X0.100000X-0.687500X-0.100000X0.687500X-0.100000X0*%
%TD*%
%TA.AperFunction,SMDPad,CuDef*%
%ADD19RoundRect,0.250000X0.325000X0.450000X-0.325000X0.450000X-0.325000X-0.450000X0.325000X-0.450000X0*%
%TD*%
%TA.AperFunction,ComponentPad*%
%ADD20C,1.778000*%
%TD*%
%TA.AperFunction,SMDPad,CuDef*%
%ADD21RoundRect,0.237500X0.237500X-0.300000X0.237500X0.300000X-0.237500X0.300000X-0.237500X-0.300000X0*%
%TD*%
%TA.AperFunction,ViaPad*%
%ADD22C,0.400000*%
%TD*%
%TA.AperFunction,ViaPad*%
%ADD23C,0.800000*%
%TD*%
%TA.AperFunction,Conductor*%
%ADD24C,0.203200*%
%TD*%
%TA.AperFunction,Conductor*%
%ADD25C,0.457200*%
%TD*%
%TA.AperFunction,Conductor*%
%ADD26C,0.304800*%
%TD*%
%TA.AperFunction,Conductor*%
%ADD27C,0.406400*%
%TD*%
G04 APERTURE END LIST*
D10*
%TO.P,J8,1,Pin_1*%
%TO.N,Net-(J8-Pin_1)*%
X39941499Y-86999999D03*
D11*
%TO.P,J8,2,Pin_2*%
%TO.N,Net-(J8-Pin_2)*%
X39941499Y-84459999D03*
%TD*%
D10*
%TO.P,U1,1,SDA*%
%TO.N,unconnected-(U1-SDA-Pad1)*%
X64007999Y-102615999D03*
D11*
%TO.P,U1,2,SCL*%
%TO.N,unconnected-(U1-SCL-Pad2)*%
X64007999Y-100075999D03*
%TO.P,U1,3,D1/LPIO1/UART_TX*%
%TO.N,Servo 1 3.3v*%
X64007999Y-97535999D03*
%TO.P,U1,4,D2/LPIO2/UART_RX*%
%TO.N,Servo 2 3.3v*%
X64007999Y-94995999D03*
%TO.P,U1,5,D3/LPIO3*%
%TO.N,Servo 3 3.3v*%
X64007999Y-92455999D03*
%TO.P,U1,6,GND*%
%TO.N,bat-*%
X64007999Y-89915999D03*
%TO.P,U1,7,VDDIO_EXT*%
%TO.N,+3.3V*%
X64007999Y-87375999D03*
%TO.P,U1,8,NC*%
%TO.N,unconnected-(U1-NC-Pad8)*%
X64007999Y-84835999D03*
%TO.P,U1,9,VIN*%
%TO.N,+5V*%
X64007999Y-82295999D03*
%TO.P,U1,10,NTC*%
%TO.N,unconnected-(U1-NTC-Pad10)*%
X61467999Y-82295999D03*
D10*
%TO.P,U1,11,Vbat*%
%TO.N,unconnected-(U1-Vbat-Pad11)*%
X58927999Y-82295999D03*
%TO.P,U1,12,A0/D16*%
%TO.N,Net-(J8-Pin_2)*%
X43687999Y-84835999D03*
D11*
%TO.P,U1,13,A1/D17*%
%TO.N,Net-(J8-Pin_1)*%
X43687999Y-87375999D03*
%TO.P,U1,14,SCK*%
%TO.N,unconnected-(U1-SCK-Pad14)*%
X43687999Y-89915999D03*
%TO.P,U1,15,CIPO*%
%TO.N,unconnected-(U1-CIPO-Pad15)*%
X43687999Y-92455999D03*
%TO.P,U1,16,COPI*%
%TO.N,unconnected-(U1-COPI-Pad16)*%
X43687999Y-94995999D03*
%TO.P,U1,17,SS*%
%TO.N,unconnected-(U1-SS-Pad17)*%
X43687999Y-97535999D03*
%TO.P,U1,18,A2/D18*%
%TO.N,unconnected-(U1-A2{slash}D18-Pad18)*%
X43687999Y-100075999D03*
%TO.P,U1,19,D0/LPIO0*%
%TO.N,Servo 0 3.3v*%
X43687999Y-102615999D03*
%TD*%
D10*
%TO.P,J6,1,Pin_1*%
%TO.N,+3.3V*%
X67690999Y-86613999D03*
%TD*%
%TO.P,J4,1,Pin_1*%
%TO.N,Servo 0 5v*%
X55498999Y-87629999D03*
D11*
%TO.P,J4,2,Pin_2*%
%TO.N,+12V*%
X58038999Y-87629999D03*
%TO.P,J4,3,Pin_3*%
%TO.N,bat-*%
X60578999Y-87629999D03*
%TD*%
D10*
%TO.P,J2,1,Pin_1*%
%TO.N,Servo 1 5v*%
X55498999Y-91439999D03*
D11*
%TO.P,J2,2,Pin_2*%
%TO.N,+12V*%
X58038999Y-91439999D03*
%TO.P,J2,3,Pin_3*%
%TO.N,bat-*%
X60578999Y-91439999D03*
%TD*%
D12*
%TO.P,U5,1,VCC*%
%TO.N,bat+*%
X47356998Y-84175599D03*
D13*
%TO.P,U5,2,FIN*%
%TO.N,bat-*%
X49656999Y-90931999D03*
D12*
%TO.P,U5,3,VOUT*%
%TO.N,+5V*%
X51957000Y-84175599D03*
%TD*%
D14*
%TO.P,C5,1*%
%TO.N,+5V*%
X53953500Y-82550000D03*
%TO.P,C5,2*%
%TO.N,bat-*%
X56028500Y-82550000D03*
%TD*%
D15*
%TO.P,C1,1*%
%TO.N,bat-*%
X51181000Y-95911500D03*
%TO.P,C1,2*%
%TO.N,+3.3V*%
X51181000Y-97636500D03*
%TD*%
D16*
%TO.P,C6,1*%
%TO.N,+12V*%
X66675000Y-82528500D03*
%TO.P,C6,2*%
%TO.N,bat-*%
X66675000Y-84603500D03*
%TD*%
D17*
%TO.P,R2,1*%
%TO.N,+5V*%
X51331500Y-79502000D03*
%TO.P,R2,2*%
%TO.N,Net-(D1-A)*%
X49506500Y-79502000D03*
%TD*%
D18*
%TO.P,U6,1,1*%
%TO.N,+3.3V*%
X52658500Y-99764000D03*
%TO.P,U6,2,2*%
%TO.N,Servo 0 3.3v*%
X52658500Y-100414000D03*
%TO.P,U6,3,3*%
%TO.N,Servo 1 3.3v*%
X52658500Y-101064000D03*
%TO.P,U6,4,4*%
%TO.N,Servo 2 3.3v*%
X52658500Y-101714000D03*
%TO.P,U6,5,5*%
%TO.N,Servo 3 3.3v*%
X52658500Y-102364000D03*
%TO.P,U6,6,6*%
%TO.N,unconnected-(U6-Pad6)*%
X52658500Y-103014000D03*
%TO.P,U6,7,7*%
%TO.N,bat-*%
X52658500Y-103664000D03*
%TO.P,U6,8,8*%
%TO.N,+3.3V*%
X46933500Y-103664000D03*
%TO.P,U6,9,9*%
%TO.N,unconnected-(U6-Pad9)*%
X46933500Y-103014000D03*
%TO.P,U6,10,10*%
%TO.N,Servo 3 5v*%
X46933500Y-102364000D03*
%TO.P,U6,11,11*%
%TO.N,Servo 2 5v*%
X46933500Y-101714000D03*
%TO.P,U6,12,12*%
%TO.N,Servo 1 5v*%
X46933500Y-101064000D03*
%TO.P,U6,13,13*%
%TO.N,Servo 0 5v*%
X46933500Y-100414000D03*
%TO.P,U6,14,14*%
%TO.N,+5V*%
X46933500Y-99764000D03*
%TD*%
D10*
%TO.P,BT1,1,+*%
%TO.N,bat+*%
X46100999Y-79628999D03*
D11*
%TO.P,BT1,2,-*%
%TO.N,bat-*%
X43560999Y-79628999D03*
%TD*%
D14*
%TO.P,C7,1*%
%TO.N,bat+*%
X56938000Y-76708000D03*
%TO.P,C7,2*%
%TO.N,bat-*%
X59013000Y-76708000D03*
%TD*%
D19*
%TO.P,D1,1,K*%
%TO.N,bat-*%
X49666000Y-76708000D03*
%TO.P,D1,2,A*%
%TO.N,Net-(D1-A)*%
X47616000Y-76708000D03*
%TD*%
D20*
%TO.P,U4,1,IN*%
%TO.N,bat+*%
X54991000Y-79248000D03*
%TO.P,U4,2,GND*%
%TO.N,bat-*%
X57531000Y-79248000D03*
%TO.P,U4,3,OUT*%
%TO.N,+12V*%
X60071000Y-79248000D03*
%TD*%
D14*
%TO.P,C4,1*%
%TO.N,bat+*%
X53953500Y-84836000D03*
%TO.P,C4,2*%
%TO.N,bat-*%
X56028500Y-84836000D03*
%TD*%
D21*
%TO.P,C2,1*%
%TO.N,+5V*%
X48006000Y-97636500D03*
%TO.P,C2,2*%
%TO.N,bat-*%
X48006000Y-95911500D03*
%TD*%
D10*
%TO.P,J3,1,Pin_1*%
%TO.N,Servo 2 5v*%
X55498999Y-95249999D03*
D11*
%TO.P,J3,2,Pin_2*%
%TO.N,+12V*%
X58038999Y-95249999D03*
%TO.P,J3,3,Pin_3*%
%TO.N,bat-*%
X60578999Y-95249999D03*
%TD*%
D10*
%TO.P,J5,1,Pin_1*%
%TO.N,Servo 3 5v*%
X55498999Y-99059999D03*
D11*
%TO.P,J5,2,Pin_2*%
%TO.N,+12V*%
X58038999Y-99059999D03*
%TO.P,J5,3,Pin_3*%
%TO.N,bat-*%
X60578999Y-99059999D03*
%TD*%
D22*
%TO.N,bat-*%
X49784000Y-97028000D03*
X46228000Y-97028000D03*
%TO.N,Servo 1 5v*%
X48831500Y-100711000D03*
%TO.N,Servo 2 5v*%
X48831500Y-101981000D03*
%TO.N,bat-*%
X58166000Y-84074000D03*
X50546000Y-104394000D03*
X53721000Y-104394000D03*
X44831000Y-77724000D03*
D23*
%TO.N,+5V*%
X49911000Y-94869000D03*
X49911000Y-86360000D03*
D22*
%TO.N,Servo 0 5v*%
X48831500Y-99695000D03*
%TO.N,Servo 3 5v*%
X48577500Y-102997000D03*
%TD*%
D24*
%TO.N,Servo 1 5v*%
X46933500Y-101064000D02*
X48478500Y-101064000D01*
X47088500Y-101219000D02*
X46933500Y-101064000D01*
X48478500Y-101064000D02*
X48831500Y-100711000D01*
%TO.N,Servo 2 5v*%
X47073500Y-101854000D02*
X46933500Y-101714000D01*
X48564500Y-101714000D02*
X48831500Y-101981000D01*
X46933500Y-101714000D02*
X48564500Y-101714000D01*
%TO.N,bat-*%
X53721000Y-104394000D02*
X53388500Y-104394000D01*
X50497300Y-104442700D02*
X50546000Y-104394000D01*
X53388500Y-104394000D02*
X52658500Y-103664000D01*
X50497300Y-105664000D02*
X50497300Y-104442700D01*
D25*
%TO.N,bat+*%
X57763500Y-76708000D02*
X57531000Y-76708000D01*
X56938000Y-76708000D02*
X56938000Y-77301000D01*
X54991000Y-83798500D02*
X54991000Y-79248000D01*
X53953500Y-84836000D02*
X54991000Y-83798500D01*
X46101000Y-79629000D02*
X46101000Y-82919601D01*
X46101000Y-82919601D02*
X47356999Y-84175600D01*
X56938000Y-77301000D02*
X54991000Y-79248000D01*
D26*
%TO.N,+5V*%
X60325000Y-85979000D02*
X53265101Y-85979000D01*
D27*
X51331500Y-79502000D02*
X51331500Y-79928000D01*
D24*
X48006000Y-97636500D02*
X48006000Y-98691500D01*
D27*
X53582601Y-82550000D02*
X51957001Y-84175600D01*
D26*
X53265101Y-85979000D02*
X51957001Y-84670900D01*
D24*
X49911000Y-86360000D02*
X51957001Y-84313999D01*
X49911000Y-94869000D02*
X49911000Y-95731500D01*
D26*
X51957001Y-84670900D02*
X51957001Y-84175600D01*
X64008000Y-82296000D02*
X60325000Y-85979000D01*
D24*
X48006000Y-98691500D02*
X46933500Y-99764000D01*
D27*
X53953500Y-82550000D02*
X53582601Y-82550000D01*
X51331500Y-79928000D02*
X53953500Y-82550000D01*
D24*
X51957001Y-84313999D02*
X51957001Y-84175600D01*
X49911000Y-95731500D02*
X48006000Y-97636500D01*
D27*
%TO.N,+12V*%
X66675000Y-82528500D02*
X63394500Y-79248000D01*
X63394500Y-79248000D02*
X60071000Y-79248000D01*
D24*
%TO.N,Net-(D1-A)*%
X47616000Y-76708000D02*
X47616000Y-77611500D01*
X47616000Y-77611500D02*
X49506500Y-79502000D01*
%TO.N,Servo 0 5v*%
X47103500Y-100584000D02*
X46933500Y-100414000D01*
X48831500Y-99695000D02*
X48112500Y-100414000D01*
X48112500Y-100414000D02*
X46933500Y-100414000D01*
%TO.N,Servo 3 5v*%
X47058500Y-102489000D02*
X46933500Y-102364000D01*
X47944500Y-102364000D02*
X48577500Y-102997000D01*
X46933500Y-102364000D02*
X47944500Y-102364000D01*
%TO.N,+3.3V*%
X64008000Y-87376000D02*
X62929400Y-88454600D01*
X51181000Y-102235000D02*
X51181000Y-97636500D01*
X49276000Y-104140000D02*
X51181000Y-102235000D01*
X47409500Y-104140000D02*
X49276000Y-104140000D01*
X53721000Y-97790000D02*
X51334500Y-97790000D01*
X51334500Y-97790000D02*
X51181000Y-97636500D01*
X51181000Y-97636500D02*
X51181000Y-98286500D01*
X51181000Y-98286500D02*
X52658500Y-99764000D01*
X62929400Y-94424971D02*
X59564371Y-97790000D01*
X59564371Y-97790000D02*
X53721000Y-97790000D01*
X46933500Y-103664000D02*
X47409500Y-104140000D01*
X62929400Y-88454600D02*
X62929400Y-94424971D01*
%TO.N,Servo 1 3.3v*%
X60367799Y-101176201D02*
X52770701Y-101176201D01*
X52770701Y-101176201D02*
X52658500Y-101064000D01*
X60367799Y-101176201D02*
X64008000Y-97536000D01*
%TO.N,Servo 2 3.3v*%
X65328800Y-96316800D02*
X64008000Y-94996000D01*
X65151000Y-98806000D02*
X65328800Y-98628200D01*
X63752629Y-98806000D02*
X65151000Y-98806000D01*
X52696300Y-101676200D02*
X52658500Y-101714000D01*
X60882429Y-101676200D02*
X63752629Y-98806000D01*
X65328800Y-98628200D02*
X65328800Y-96316800D01*
X60882429Y-101676200D02*
X52696300Y-101676200D01*
%TO.N,Servo 3 3.3v*%
X64454771Y-101154600D02*
X65659000Y-99950371D01*
X62102800Y-102364000D02*
X63312200Y-101154600D01*
X52658500Y-102364000D02*
X62102800Y-102364000D01*
X65659000Y-99950371D02*
X65659000Y-94107000D01*
X65659000Y-94107000D02*
X64008000Y-92456000D01*
X63312200Y-101154600D02*
X64454771Y-101154600D01*
%TO.N,Servo 0 3.3v*%
X50958871Y-106367600D02*
X51642400Y-105684071D01*
X51642400Y-100757600D02*
X51986000Y-100414000D01*
X43688000Y-102616000D02*
X47439600Y-106367600D01*
X51642400Y-105684071D02*
X51642400Y-100757600D01*
X51986000Y-100414000D02*
X52658500Y-100414000D01*
X47439600Y-106367600D02*
X50958871Y-106367600D01*
%TD*%
%TA.AperFunction,Conductor*%
%TO.N,bat-*%
G36*
X42533414Y-98267744D02*
G01*
X42579596Y-98307561D01*
X42646395Y-98402961D01*
X42646401Y-98402968D01*
X42649505Y-98407401D01*
X42816599Y-98574495D01*
X42821032Y-98577599D01*
X42821038Y-98577604D01*
X43002158Y-98704425D01*
X43041024Y-98748743D01*
X43055035Y-98806000D01*
X43041024Y-98863257D01*
X43002159Y-98907575D01*
X42821041Y-99034395D01*
X42816599Y-99037505D01*
X42812775Y-99041328D01*
X42812769Y-99041334D01*
X42653334Y-99200769D01*
X42653328Y-99200775D01*
X42649505Y-99204599D01*
X42646402Y-99209029D01*
X42646399Y-99209034D01*
X42517073Y-99393731D01*
X42517068Y-99393738D01*
X42513965Y-99398171D01*
X42511677Y-99403077D01*
X42511675Y-99403081D01*
X42416386Y-99607427D01*
X42416383Y-99607432D01*
X42414097Y-99612337D01*
X42412698Y-99617557D01*
X42412694Y-99617569D01*
X42354337Y-99835365D01*
X42354335Y-99835371D01*
X42352937Y-99840592D01*
X42352465Y-99845977D01*
X42352465Y-99845982D01*
X42343057Y-99953520D01*
X42332341Y-100076000D01*
X42332813Y-100081395D01*
X42350074Y-100278692D01*
X42352937Y-100311408D01*
X42354336Y-100316630D01*
X42354337Y-100316634D01*
X42412694Y-100534430D01*
X42412697Y-100534438D01*
X42414097Y-100539663D01*
X42416385Y-100544570D01*
X42416386Y-100544572D01*
X42511678Y-100748927D01*
X42511681Y-100748933D01*
X42513965Y-100753830D01*
X42517064Y-100758257D01*
X42517066Y-100758259D01*
X42646399Y-100942966D01*
X42646402Y-100942970D01*
X42649505Y-100947401D01*
X42816599Y-101114495D01*
X42821032Y-101117599D01*
X42821038Y-101117604D01*
X43002158Y-101244425D01*
X43041024Y-101288743D01*
X43055035Y-101346000D01*
X43041024Y-101403257D01*
X43002160Y-101447574D01*
X42816599Y-101577505D01*
X42812775Y-101581328D01*
X42812769Y-101581334D01*
X42653334Y-101740769D01*
X42653328Y-101740775D01*
X42649505Y-101744599D01*
X42646402Y-101749029D01*
X42646399Y-101749034D01*
X42517073Y-101933731D01*
X42517068Y-101933738D01*
X42513965Y-101938171D01*
X42511677Y-101943077D01*
X42511675Y-101943081D01*
X42416386Y-102147427D01*
X42416383Y-102147432D01*
X42414097Y-102152337D01*
X42412698Y-102157557D01*
X42412694Y-102157569D01*
X42354337Y-102375365D01*
X42354335Y-102375371D01*
X42352937Y-102380592D01*
X42352465Y-102385977D01*
X42352465Y-102385982D01*
X42346365Y-102455705D01*
X42332341Y-102616000D01*
X42332813Y-102621395D01*
X42352465Y-102846017D01*
X42352465Y-102846020D01*
X42352937Y-102851408D01*
X42354336Y-102856630D01*
X42354337Y-102856634D01*
X42412694Y-103074430D01*
X42412697Y-103074438D01*
X42414097Y-103079663D01*
X42416385Y-103084570D01*
X42416386Y-103084572D01*
X42511678Y-103288927D01*
X42511681Y-103288933D01*
X42513965Y-103293830D01*
X42517064Y-103298257D01*
X42517066Y-103298259D01*
X42646399Y-103482966D01*
X42646402Y-103482970D01*
X42649505Y-103487401D01*
X42816599Y-103654495D01*
X42821031Y-103657598D01*
X42821033Y-103657600D01*
X42913009Y-103722002D01*
X43010170Y-103790035D01*
X43224337Y-103889903D01*
X43452592Y-103951063D01*
X43688000Y-103971659D01*
X43923408Y-103951063D01*
X44049972Y-103917150D01*
X44114158Y-103917150D01*
X44169746Y-103949244D01*
X46980199Y-106759697D01*
X46990893Y-106771891D01*
X47005229Y-106790573D01*
X47010178Y-106797022D01*
X47018424Y-106803349D01*
X47041737Y-106821238D01*
X47041753Y-106821251D01*
X47041754Y-106821252D01*
X47135953Y-106893534D01*
X47143461Y-106896643D01*
X47143463Y-106896645D01*
X47230895Y-106932860D01*
X47282420Y-106954202D01*
X47439600Y-106974895D01*
X47471003Y-106970760D01*
X47487186Y-106969700D01*
X50911292Y-106969700D01*
X50927475Y-106970760D01*
X50958871Y-106974894D01*
X50998326Y-106969700D01*
X50998331Y-106969700D01*
X51116051Y-106954202D01*
X51262518Y-106893533D01*
X51262517Y-106893533D01*
X51356718Y-106821251D01*
X51356725Y-106821244D01*
X51359763Y-106818913D01*
X51388293Y-106797022D01*
X51407576Y-106771891D01*
X51418261Y-106759706D01*
X51968784Y-106209183D01*
X52021161Y-106177997D01*
X52082072Y-106175539D01*
X52136794Y-106202405D01*
X52172100Y-106252100D01*
X52179459Y-106312615D01*
X52172328Y-106368306D01*
X52172551Y-106373560D01*
X52172551Y-106373565D01*
X52177451Y-106488911D01*
X52182114Y-106598668D01*
X52183221Y-106603809D01*
X52183223Y-106603817D01*
X52226681Y-106805461D01*
X52230690Y-106824062D01*
X52232652Y-106828945D01*
X52232654Y-106828951D01*
X52281734Y-106951091D01*
X52316659Y-107038006D01*
X52319422Y-107042494D01*
X52319424Y-107042497D01*
X52434786Y-107229857D01*
X52434791Y-107229863D01*
X52437549Y-107234343D01*
X52589880Y-107407425D01*
X52769272Y-107552274D01*
X52970563Y-107664721D01*
X53187962Y-107741533D01*
X53415215Y-107780500D01*
X53585404Y-107780500D01*
X53588035Y-107780500D01*
X53760239Y-107765843D01*
X53983369Y-107707745D01*
X54193471Y-107612773D01*
X54384500Y-107483659D01*
X54550962Y-107324119D01*
X54688066Y-107138742D01*
X54791870Y-106932860D01*
X54859386Y-106712397D01*
X54888672Y-106483694D01*
X54878886Y-106253332D01*
X54830310Y-106027938D01*
X54744341Y-105813994D01*
X54692119Y-105729181D01*
X54626213Y-105622142D01*
X54626210Y-105622138D01*
X54623451Y-105617657D01*
X54471120Y-105444575D01*
X54291728Y-105299726D01*
X54188712Y-105242178D01*
X54095037Y-105189848D01*
X54095030Y-105189845D01*
X54090437Y-105187279D01*
X54081226Y-105184024D01*
X53878007Y-105112222D01*
X53877999Y-105112220D01*
X53873038Y-105110467D01*
X53867847Y-105109577D01*
X53867840Y-105109575D01*
X53650978Y-105072390D01*
X53650972Y-105072389D01*
X53645785Y-105071500D01*
X53472965Y-105071500D01*
X53470349Y-105071722D01*
X53470340Y-105071723D01*
X53306014Y-105085709D01*
X53306003Y-105085710D01*
X53300761Y-105086157D01*
X53295662Y-105087484D01*
X53295660Y-105087485D01*
X53082726Y-105142928D01*
X53082721Y-105142929D01*
X53077631Y-105144255D01*
X53072838Y-105146421D01*
X53072831Y-105146424D01*
X52872331Y-105237055D01*
X52872318Y-105237062D01*
X52867529Y-105239227D01*
X52863167Y-105242175D01*
X52863162Y-105242178D01*
X52680867Y-105365389D01*
X52680863Y-105365391D01*
X52676500Y-105368341D01*
X52672700Y-105371982D01*
X52672695Y-105371987D01*
X52513841Y-105524235D01*
X52513834Y-105524242D01*
X52510038Y-105527881D01*
X52506912Y-105532107D01*
X52506909Y-105532111D01*
X52489371Y-105555823D01*
X52468194Y-105584457D01*
X52420533Y-105623276D01*
X52360084Y-105634435D01*
X52301702Y-105615191D01*
X52259737Y-105570274D01*
X52244500Y-105510721D01*
X52244500Y-104488000D01*
X52261113Y-104426000D01*
X52306500Y-104380613D01*
X52368500Y-104364000D01*
X52442174Y-104364000D01*
X52455049Y-104360549D01*
X52458500Y-104347674D01*
X52458500Y-103838500D01*
X52475113Y-103776500D01*
X52520500Y-103731113D01*
X52582499Y-103714500D01*
X52637166Y-103714499D01*
X52741333Y-103714499D01*
X52796174Y-103727286D01*
X52839706Y-103763011D01*
X52862949Y-103814304D01*
X52861108Y-103870588D01*
X52858500Y-103880323D01*
X52858500Y-104347673D01*
X52861950Y-104360548D01*
X52874826Y-104363999D01*
X53381267Y-104363999D01*
X53389344Y-104363469D01*
X53494570Y-104349617D01*
X53510142Y-104345444D01*
X53641078Y-104291209D01*
X53655036Y-104283152D01*
X53767482Y-104196868D01*
X53778868Y-104185482D01*
X53865152Y-104073036D01*
X53873209Y-104059078D01*
X53927443Y-103928145D01*
X53931617Y-103912568D01*
X53935701Y-103881552D01*
X53933595Y-103867873D01*
X53920308Y-103864000D01*
X53718978Y-103864000D01*
X53656977Y-103847387D01*
X53611590Y-103801999D01*
X53594978Y-103739997D01*
X53611593Y-103677997D01*
X53649802Y-103639789D01*
X53648841Y-103638536D01*
X53648840Y-103638536D01*
X53774282Y-103542282D01*
X53779228Y-103535835D01*
X53779231Y-103535833D01*
X53797126Y-103512513D01*
X53840658Y-103476788D01*
X53895501Y-103464000D01*
X53920310Y-103464000D01*
X53933594Y-103460127D01*
X53935700Y-103446446D01*
X53931617Y-103415432D01*
X53927444Y-103399857D01*
X53922163Y-103387107D01*
X53912724Y-103339652D01*
X53922163Y-103292202D01*
X53931044Y-103270762D01*
X53946500Y-103153361D01*
X53946500Y-103090100D01*
X53963113Y-103028100D01*
X54008500Y-102982713D01*
X54070500Y-102966100D01*
X62055221Y-102966100D01*
X62071404Y-102967160D01*
X62102800Y-102971294D01*
X62142255Y-102966100D01*
X62142260Y-102966100D01*
X62259980Y-102950602D01*
X62406447Y-102889933D01*
X62426377Y-102874640D01*
X62458015Y-102850363D01*
X62521344Y-102825336D01*
X62588343Y-102837526D01*
X62638801Y-102883258D01*
X62657500Y-102948739D01*
X62657500Y-103510560D01*
X62657500Y-103510578D01*
X62657501Y-103513872D01*
X62657853Y-103517150D01*
X62657854Y-103517161D01*
X62663079Y-103565768D01*
X62663080Y-103565773D01*
X62663909Y-103573483D01*
X62666619Y-103580749D01*
X62666620Y-103580753D01*
X62691472Y-103647384D01*
X62714204Y-103708331D01*
X62719518Y-103715430D01*
X62719519Y-103715431D01*
X62775367Y-103790035D01*
X62800454Y-103823546D01*
X62915669Y-103909796D01*
X63050517Y-103960091D01*
X63110127Y-103966500D01*
X64854540Y-103966499D01*
X64912520Y-103980889D01*
X64957043Y-104020721D01*
X64977775Y-104076747D01*
X64969903Y-104135966D01*
X64935256Y-104184632D01*
X64422128Y-104624621D01*
X64417591Y-104628329D01*
X63780620Y-105124274D01*
X63775913Y-105127763D01*
X63116231Y-105593059D01*
X63111364Y-105596322D01*
X62430454Y-106029925D01*
X62425439Y-106032955D01*
X61724774Y-106433926D01*
X61719621Y-106436715D01*
X61000822Y-106804125D01*
X60995543Y-106806668D01*
X60260187Y-107139715D01*
X60254794Y-107142006D01*
X59504508Y-107439948D01*
X59499013Y-107441981D01*
X58735492Y-107704148D01*
X58729906Y-107705919D01*
X57954887Y-107931713D01*
X57949225Y-107933219D01*
X57164358Y-108122161D01*
X57158630Y-108123397D01*
X56365758Y-108275043D01*
X56359978Y-108276008D01*
X55560784Y-108390034D01*
X55554966Y-108390724D01*
X54751313Y-108466867D01*
X54745468Y-108467282D01*
X53939092Y-108505375D01*
X53933235Y-108505513D01*
X53125965Y-108505471D01*
X53120107Y-108505332D01*
X52313756Y-108467155D01*
X52307911Y-108466740D01*
X51504242Y-108390512D01*
X51498424Y-108389821D01*
X50699268Y-108275714D01*
X50693488Y-108274749D01*
X49900605Y-108123017D01*
X49894878Y-108121780D01*
X49110060Y-107932763D01*
X49104397Y-107931257D01*
X48329370Y-107705373D01*
X48323785Y-107703601D01*
X47560298Y-107441357D01*
X47554803Y-107439323D01*
X46804567Y-107141310D01*
X46799174Y-107139019D01*
X46063843Y-106805892D01*
X46058565Y-106803349D01*
X45339796Y-106435860D01*
X45334643Y-106433070D01*
X44634021Y-106032026D01*
X44629006Y-106028995D01*
X43948146Y-105595324D01*
X43943280Y-105592061D01*
X43283643Y-105126694D01*
X43278936Y-105123204D01*
X42642018Y-104627194D01*
X42637481Y-104623485D01*
X42024718Y-104097950D01*
X42020362Y-104094032D01*
X41998101Y-104073036D01*
X41739217Y-103828858D01*
X41433094Y-103540124D01*
X41428928Y-103536004D01*
X41055931Y-103149305D01*
X40868491Y-102954979D01*
X40864529Y-102950673D01*
X40862832Y-102948739D01*
X40332163Y-102343820D01*
X40328404Y-102339325D01*
X40139748Y-102102588D01*
X40116306Y-102054907D01*
X40114972Y-102001792D01*
X40135991Y-101952995D01*
X40175502Y-101917474D01*
X40256978Y-101871221D01*
X40597060Y-101634557D01*
X40914060Y-101367769D01*
X41205319Y-101073094D01*
X41468392Y-100753005D01*
X41701074Y-100410186D01*
X41901411Y-100047515D01*
X42067723Y-99668035D01*
X42198614Y-99274928D01*
X42292986Y-98871494D01*
X42350048Y-98461118D01*
X42354155Y-98372915D01*
X42371881Y-98314573D01*
X42415272Y-98271733D01*
X42473837Y-98254755D01*
X42533414Y-98267744D01*
G37*
%TD.AperFunction*%
%TA.AperFunction,Conductor*%
G36*
X50989185Y-103426242D02*
G01*
X51026785Y-103470265D01*
X51040300Y-103526560D01*
X51040300Y-105383311D01*
X51030861Y-105430764D01*
X51003981Y-105470992D01*
X50745792Y-105729181D01*
X50705564Y-105756061D01*
X50658111Y-105765500D01*
X47740360Y-105765500D01*
X47692907Y-105756061D01*
X47652679Y-105729181D01*
X46499678Y-104576180D01*
X46469428Y-104526817D01*
X46464886Y-104469101D01*
X46487041Y-104415614D01*
X46531064Y-104378014D01*
X46587359Y-104364499D01*
X46731139Y-104364499D01*
X46778592Y-104373938D01*
X46818820Y-104400818D01*
X46950099Y-104532097D01*
X46960793Y-104544291D01*
X46975129Y-104562973D01*
X46980078Y-104569422D01*
X47011637Y-104593638D01*
X47011653Y-104593651D01*
X47011654Y-104593652D01*
X47105853Y-104665934D01*
X47113361Y-104669043D01*
X47113363Y-104669045D01*
X47226967Y-104716100D01*
X47252320Y-104726602D01*
X47409500Y-104747295D01*
X47440903Y-104743160D01*
X47457086Y-104742100D01*
X49228421Y-104742100D01*
X49244604Y-104743160D01*
X49276000Y-104747294D01*
X49315455Y-104742100D01*
X49315460Y-104742100D01*
X49433180Y-104726602D01*
X49579647Y-104665933D01*
X49632476Y-104625396D01*
X49673847Y-104593651D01*
X49673846Y-104593651D01*
X49673854Y-104593644D01*
X49673862Y-104593638D01*
X49705422Y-104569422D01*
X49724705Y-104544291D01*
X49735390Y-104532106D01*
X50828618Y-103438879D01*
X50877982Y-103408629D01*
X50935698Y-103404087D01*
X50989185Y-103426242D01*
G37*
%TD.AperFunction*%
%TA.AperFunction,Conductor*%
G36*
X68083470Y-82071401D02*
G01*
X68129652Y-82114764D01*
X68375034Y-82507395D01*
X68378052Y-82512490D01*
X68778010Y-83226152D01*
X68780781Y-83231385D01*
X69146217Y-83963342D01*
X69148735Y-83968702D01*
X69478806Y-84717269D01*
X69481065Y-84722743D01*
X69775021Y-85486216D01*
X69777016Y-85491792D01*
X70034181Y-86268416D01*
X70035908Y-86274081D01*
X70255704Y-87062112D01*
X70257158Y-87067852D01*
X70379903Y-87606017D01*
X70433193Y-87839663D01*
X70439078Y-87865463D01*
X70440257Y-87871267D01*
X70583890Y-88676672D01*
X70584790Y-88682525D01*
X70689804Y-89493852D01*
X70690424Y-89499741D01*
X70756585Y-90315168D01*
X70756923Y-90321081D01*
X70784075Y-91138740D01*
X70784130Y-91144661D01*
X70772215Y-91962682D01*
X70771987Y-91968600D01*
X70721029Y-92785111D01*
X70720519Y-92791011D01*
X70630636Y-93604159D01*
X70629845Y-93610028D01*
X70556401Y-94071427D01*
X70534307Y-94124757D01*
X70490461Y-94162305D01*
X70434367Y-94175933D01*
X67106633Y-94187324D01*
X67097622Y-94186869D01*
X67087832Y-94183957D01*
X67076383Y-94184880D01*
X67076381Y-94184880D01*
X67048144Y-94187157D01*
X67038610Y-94187557D01*
X67032858Y-94187577D01*
X67032855Y-94187577D01*
X67027128Y-94187597D01*
X67021510Y-94188666D01*
X67020436Y-94188770D01*
X67009027Y-94190312D01*
X66987300Y-94192065D01*
X66987298Y-94192065D01*
X66975849Y-94192989D01*
X66965504Y-94197986D01*
X66960613Y-94199315D01*
X66955876Y-94201168D01*
X66944592Y-94203319D01*
X66934847Y-94209398D01*
X66934841Y-94209401D01*
X66916348Y-94220938D01*
X66904666Y-94227380D01*
X66885036Y-94236865D01*
X66885028Y-94236870D01*
X66874692Y-94241865D01*
X66866857Y-94250255D01*
X66862765Y-94253270D01*
X66859020Y-94256707D01*
X66849276Y-94262787D01*
X66842386Y-94271974D01*
X66842380Y-94271981D01*
X66829298Y-94289428D01*
X66820731Y-94299656D01*
X66805860Y-94315584D01*
X66805858Y-94315586D01*
X66798020Y-94323982D01*
X66793744Y-94334639D01*
X66791019Y-94338926D01*
X66788767Y-94343485D01*
X66781879Y-94352674D01*
X66778774Y-94363727D01*
X66778771Y-94363735D01*
X66772878Y-94384720D01*
X66768585Y-94397353D01*
X66760468Y-94417587D01*
X66760467Y-94417590D01*
X66756191Y-94428251D01*
X66756053Y-94439737D01*
X66755060Y-94444726D01*
X66754609Y-94449776D01*
X66751504Y-94460835D01*
X66752602Y-94472265D01*
X66752602Y-94472272D01*
X66754688Y-94493971D01*
X66755248Y-94507309D01*
X66661503Y-102375399D01*
X66653296Y-102418307D01*
X66630719Y-102455705D01*
X66195254Y-102951995D01*
X66191286Y-102956307D01*
X65630795Y-103537266D01*
X65626628Y-103541386D01*
X65567571Y-103597076D01*
X65518039Y-103625659D01*
X65460949Y-103628974D01*
X65408442Y-103606317D01*
X65371686Y-103562507D01*
X65358499Y-103506865D01*
X65358499Y-101718128D01*
X65352091Y-101658517D01*
X65301796Y-101523669D01*
X65215546Y-101408454D01*
X65216368Y-101407838D01*
X65188675Y-101359874D01*
X65188675Y-101295686D01*
X65220769Y-101240099D01*
X65588445Y-100872423D01*
X66051107Y-100409760D01*
X66063291Y-100399075D01*
X66088422Y-100379793D01*
X66112648Y-100348220D01*
X66112651Y-100348218D01*
X66184933Y-100254018D01*
X66245602Y-100107551D01*
X66253019Y-100051210D01*
X66261100Y-99989831D01*
X66261100Y-99989826D01*
X66266294Y-99950371D01*
X66264258Y-99934909D01*
X66262161Y-99918975D01*
X66261100Y-99902791D01*
X66261100Y-94154586D01*
X66262161Y-94138401D01*
X66265234Y-94115059D01*
X66266295Y-94107000D01*
X66245602Y-93949820D01*
X66201731Y-93843904D01*
X66188045Y-93810863D01*
X66188043Y-93810861D01*
X66184934Y-93803353D01*
X66112652Y-93709154D01*
X66112648Y-93709150D01*
X66088422Y-93677578D01*
X66063295Y-93658297D01*
X66051101Y-93647603D01*
X65341244Y-92937746D01*
X65309150Y-92882158D01*
X65309150Y-92817971D01*
X65343063Y-92691408D01*
X65363659Y-92456000D01*
X65343063Y-92220592D01*
X65294572Y-92039619D01*
X65283305Y-91997569D01*
X65283304Y-91997567D01*
X65281903Y-91992337D01*
X65182035Y-91778171D01*
X65046495Y-91584599D01*
X64879401Y-91417505D01*
X64874970Y-91414402D01*
X64874966Y-91414399D01*
X64693405Y-91287269D01*
X64654540Y-91242951D01*
X64640529Y-91185694D01*
X64654540Y-91128437D01*
X64654655Y-91128306D01*
X67412328Y-91128306D01*
X67412551Y-91133560D01*
X67412551Y-91133565D01*
X67419081Y-91287269D01*
X67422114Y-91358668D01*
X67423221Y-91363809D01*
X67423223Y-91363817D01*
X67446624Y-91472397D01*
X67470690Y-91584062D01*
X67472652Y-91588945D01*
X67472654Y-91588951D01*
X67518796Y-91703780D01*
X67556659Y-91798006D01*
X67559422Y-91802494D01*
X67559424Y-91802497D01*
X67674786Y-91989857D01*
X67674791Y-91989863D01*
X67677549Y-91994343D01*
X67829880Y-92167425D01*
X68009272Y-92312274D01*
X68147483Y-92389483D01*
X68167951Y-92400917D01*
X68210563Y-92424721D01*
X68427962Y-92501533D01*
X68655215Y-92540500D01*
X68825404Y-92540500D01*
X68828035Y-92540500D01*
X69000239Y-92525843D01*
X69223369Y-92467745D01*
X69433471Y-92372773D01*
X69624500Y-92243659D01*
X69790962Y-92084119D01*
X69928066Y-91898742D01*
X70031870Y-91692860D01*
X70099386Y-91472397D01*
X70128672Y-91243694D01*
X70118886Y-91013332D01*
X70070310Y-90787938D01*
X69984341Y-90573994D01*
X69952819Y-90522800D01*
X69866213Y-90382142D01*
X69866210Y-90382138D01*
X69863451Y-90377657D01*
X69711120Y-90204575D01*
X69531728Y-90059726D01*
X69495833Y-90039674D01*
X69335037Y-89949848D01*
X69335030Y-89949845D01*
X69330437Y-89947279D01*
X69321226Y-89944024D01*
X69118007Y-89872222D01*
X69117999Y-89872220D01*
X69113038Y-89870467D01*
X69107847Y-89869577D01*
X69107840Y-89869575D01*
X68890978Y-89832390D01*
X68890972Y-89832389D01*
X68885785Y-89831500D01*
X68712965Y-89831500D01*
X68710349Y-89831722D01*
X68710340Y-89831723D01*
X68546014Y-89845709D01*
X68546003Y-89845710D01*
X68540761Y-89846157D01*
X68535662Y-89847484D01*
X68535660Y-89847485D01*
X68322726Y-89902928D01*
X68322721Y-89902929D01*
X68317631Y-89904255D01*
X68312838Y-89906421D01*
X68312831Y-89906424D01*
X68112331Y-89997055D01*
X68112318Y-89997062D01*
X68107529Y-89999227D01*
X68103167Y-90002175D01*
X68103162Y-90002178D01*
X67920867Y-90125389D01*
X67920863Y-90125391D01*
X67916500Y-90128341D01*
X67912700Y-90131982D01*
X67912695Y-90131987D01*
X67753841Y-90284235D01*
X67753834Y-90284242D01*
X67750038Y-90287881D01*
X67746910Y-90292110D01*
X67746905Y-90292116D01*
X67616067Y-90469020D01*
X67616060Y-90469031D01*
X67612934Y-90473258D01*
X67610562Y-90477961D01*
X67610561Y-90477964D01*
X67515919Y-90665674D01*
X67509130Y-90679140D01*
X67507589Y-90684170D01*
X67507588Y-90684174D01*
X67443155Y-90894568D01*
X67443152Y-90894578D01*
X67441614Y-90899603D01*
X67440945Y-90904821D01*
X67440945Y-90904825D01*
X67412996Y-91123088D01*
X67412328Y-91128306D01*
X64654655Y-91128306D01*
X64693406Y-91084119D01*
X64874638Y-90957219D01*
X64882909Y-90950278D01*
X65042278Y-90790909D01*
X65049215Y-90782643D01*
X65178498Y-90598008D01*
X65183886Y-90588676D01*
X65279143Y-90384397D01*
X65282831Y-90374263D01*
X65334943Y-90179780D01*
X65335311Y-90168551D01*
X65324369Y-90166000D01*
X63882000Y-90166000D01*
X63820000Y-90149387D01*
X63774613Y-90104000D01*
X63758000Y-90042000D01*
X63758000Y-89790000D01*
X63774613Y-89728000D01*
X63820000Y-89682613D01*
X63882000Y-89666000D01*
X65324369Y-89666000D01*
X65335311Y-89663448D01*
X65334943Y-89652219D01*
X65282831Y-89457736D01*
X65279143Y-89447602D01*
X65183889Y-89243332D01*
X65178491Y-89233982D01*
X65049215Y-89049357D01*
X65042280Y-89041092D01*
X64882909Y-88881721D01*
X64874643Y-88874784D01*
X64693405Y-88747880D01*
X64654540Y-88703562D01*
X64640529Y-88646305D01*
X64654540Y-88589048D01*
X64693406Y-88544730D01*
X64699395Y-88540537D01*
X64879401Y-88414495D01*
X65046495Y-88247401D01*
X65182035Y-88053830D01*
X65281903Y-87839663D01*
X65343063Y-87611408D01*
X65363659Y-87376000D01*
X65343063Y-87140592D01*
X65281903Y-86912337D01*
X65182035Y-86698171D01*
X65046495Y-86504599D01*
X64879401Y-86337505D01*
X64874968Y-86334401D01*
X64874961Y-86334395D01*
X64693842Y-86207575D01*
X64654976Y-86163257D01*
X64640965Y-86106000D01*
X64654976Y-86048743D01*
X64693842Y-86004425D01*
X64874961Y-85877604D01*
X64874961Y-85877603D01*
X64879401Y-85874495D01*
X65046495Y-85707401D01*
X65182035Y-85513830D01*
X65281903Y-85299663D01*
X65286089Y-85284038D01*
X65315171Y-85231568D01*
X65365486Y-85198888D01*
X65425254Y-85193655D01*
X65480483Y-85217094D01*
X65515434Y-85260250D01*
X65515642Y-85260122D01*
X65516636Y-85261734D01*
X65518243Y-85263718D01*
X65519430Y-85266264D01*
X65603890Y-85403194D01*
X65612794Y-85414455D01*
X65726544Y-85528205D01*
X65737805Y-85537109D01*
X65874733Y-85621567D01*
X65887732Y-85627629D01*
X66040874Y-85678375D01*
X66054041Y-85681194D01*
X66146890Y-85690680D01*
X66153168Y-85690999D01*
X66216498Y-85690999D01*
X66278499Y-85707611D01*
X66323887Y-85752998D01*
X66340500Y-85814999D01*
X66340500Y-87508560D01*
X66340500Y-87508578D01*
X66340501Y-87511872D01*
X66340853Y-87515150D01*
X66340854Y-87515161D01*
X66346079Y-87563768D01*
X66346080Y-87563773D01*
X66346909Y-87571483D01*
X66349619Y-87578749D01*
X66349620Y-87578753D01*
X66359789Y-87606017D01*
X66397204Y-87706331D01*
X66483454Y-87821546D01*
X66598669Y-87907796D01*
X66733517Y-87958091D01*
X66793127Y-87964500D01*
X68588872Y-87964499D01*
X68648483Y-87958091D01*
X68783331Y-87907796D01*
X68898546Y-87821546D01*
X68984796Y-87706331D01*
X69035091Y-87571483D01*
X69041500Y-87511873D01*
X69041499Y-85716128D01*
X69035091Y-85656517D01*
X68984796Y-85521669D01*
X68898546Y-85406454D01*
X68859132Y-85376949D01*
X68790431Y-85325519D01*
X68790430Y-85325518D01*
X68783331Y-85320204D01*
X68648483Y-85269909D01*
X68640770Y-85269079D01*
X68640767Y-85269079D01*
X68592180Y-85263855D01*
X68592169Y-85263854D01*
X68588873Y-85263500D01*
X68585551Y-85263500D01*
X68004959Y-85263500D01*
X67948505Y-85249903D01*
X67904431Y-85212095D01*
X67882403Y-85158367D01*
X67886714Y-85106903D01*
X67885959Y-85106742D01*
X67887222Y-85100839D01*
X67887251Y-85100501D01*
X67887375Y-85100124D01*
X67890194Y-85086958D01*
X67899680Y-84994109D01*
X67900000Y-84987832D01*
X67900000Y-84869826D01*
X67896549Y-84856950D01*
X67883674Y-84853500D01*
X66549000Y-84853500D01*
X66487000Y-84836887D01*
X66441613Y-84791500D01*
X66425000Y-84729500D01*
X66425000Y-84477500D01*
X66441613Y-84415500D01*
X66487000Y-84370113D01*
X66549000Y-84353500D01*
X67883673Y-84353500D01*
X67896548Y-84350049D01*
X67899999Y-84337174D01*
X67899999Y-84219171D01*
X67899678Y-84212888D01*
X67890194Y-84120040D01*
X67887376Y-84106877D01*
X67836629Y-83953732D01*
X67830567Y-83940733D01*
X67746109Y-83803805D01*
X67737205Y-83792544D01*
X67623455Y-83678794D01*
X67606529Y-83665410D01*
X67607735Y-83663883D01*
X67572160Y-83626720D01*
X67556440Y-83566282D01*
X67572171Y-83505846D01*
X67607992Y-83468438D01*
X67606843Y-83466984D01*
X67612509Y-83462503D01*
X67618656Y-83458712D01*
X67742712Y-83334656D01*
X67834814Y-83185334D01*
X67889999Y-83018797D01*
X67900500Y-82916009D01*
X67900499Y-82180480D01*
X67916681Y-82119234D01*
X67961003Y-82073972D01*
X68021897Y-82056508D01*
X68083470Y-82071401D01*
G37*
%TD.AperFunction*%
%TA.AperFunction,Conductor*%
G36*
X46806491Y-75489090D02*
G01*
X46845047Y-75545083D01*
X46848286Y-75612990D01*
X46815233Y-75672398D01*
X46698288Y-75789344D01*
X46694503Y-75795480D01*
X46694497Y-75795488D01*
X46609977Y-75932519D01*
X46606186Y-75938666D01*
X46603915Y-75945517D01*
X46603914Y-75945521D01*
X46553763Y-76096867D01*
X46551001Y-76105203D01*
X46550313Y-76111933D01*
X46550312Y-76111940D01*
X46540819Y-76204859D01*
X46540818Y-76204877D01*
X46540500Y-76207991D01*
X46540500Y-76211138D01*
X46540500Y-76211139D01*
X46540500Y-77204859D01*
X46540500Y-77204878D01*
X46540501Y-77208008D01*
X46540820Y-77211140D01*
X46540821Y-77211141D01*
X46550312Y-77304061D01*
X46550313Y-77304069D01*
X46551001Y-77310797D01*
X46606186Y-77477334D01*
X46609977Y-77483480D01*
X46694497Y-77620511D01*
X46694500Y-77620515D01*
X46698288Y-77626656D01*
X46822344Y-77750712D01*
X46828485Y-77754500D01*
X46828488Y-77754502D01*
X46883660Y-77788532D01*
X46971666Y-77842814D01*
X47023159Y-77859877D01*
X47062470Y-77881443D01*
X47089019Y-77912618D01*
X47090067Y-77915147D01*
X47095014Y-77921594D01*
X47162349Y-78009347D01*
X47160666Y-78010638D01*
X47160667Y-78010640D01*
X47162351Y-78009349D01*
X47177460Y-78029040D01*
X47186578Y-78040922D01*
X47200992Y-78051982D01*
X47211708Y-78060205D01*
X47223902Y-78070900D01*
X47260548Y-78107546D01*
X47293231Y-78165419D01*
X47291333Y-78231857D01*
X47255400Y-78287770D01*
X47195755Y-78317096D01*
X47129534Y-78311409D01*
X47065752Y-78287620D01*
X47065750Y-78287619D01*
X47058483Y-78284909D01*
X47050770Y-78284079D01*
X47050767Y-78284079D01*
X47002180Y-78278855D01*
X47002169Y-78278854D01*
X46998873Y-78278500D01*
X46995550Y-78278500D01*
X45206439Y-78278500D01*
X45206420Y-78278500D01*
X45203128Y-78278501D01*
X45199850Y-78278853D01*
X45199838Y-78278854D01*
X45151231Y-78284079D01*
X45151225Y-78284080D01*
X45143517Y-78284909D01*
X45136252Y-78287618D01*
X45136246Y-78287620D01*
X45016980Y-78332104D01*
X45016978Y-78332104D01*
X45008669Y-78335204D01*
X45001572Y-78340516D01*
X45001568Y-78340519D01*
X44900550Y-78416141D01*
X44900546Y-78416144D01*
X44893454Y-78421454D01*
X44888144Y-78428546D01*
X44888141Y-78428550D01*
X44812519Y-78529568D01*
X44812516Y-78529572D01*
X44807204Y-78536669D01*
X44804104Y-78544978D01*
X44804105Y-78544978D01*
X44757997Y-78668599D01*
X44723018Y-78718978D01*
X44668173Y-78746431D01*
X44606880Y-78744242D01*
X44554134Y-78712946D01*
X44435909Y-78594721D01*
X44427643Y-78587784D01*
X44243008Y-78458501D01*
X44233676Y-78453113D01*
X44029397Y-78357856D01*
X44019263Y-78354168D01*
X43824780Y-78302056D01*
X43813551Y-78301688D01*
X43811000Y-78312631D01*
X43811000Y-80945369D01*
X43813551Y-80956311D01*
X43824780Y-80955943D01*
X44019263Y-80903831D01*
X44029397Y-80900143D01*
X44233676Y-80804886D01*
X44243008Y-80799498D01*
X44427643Y-80670215D01*
X44435902Y-80663284D01*
X44554133Y-80545053D01*
X44606880Y-80513757D01*
X44668173Y-80511568D01*
X44723018Y-80539021D01*
X44757997Y-80589401D01*
X44775937Y-80637500D01*
X44807204Y-80721331D01*
X44812518Y-80728430D01*
X44812519Y-80728431D01*
X44831655Y-80753994D01*
X44893454Y-80836546D01*
X45008669Y-80922796D01*
X45143517Y-80973091D01*
X45203127Y-80979500D01*
X45247900Y-80979500D01*
X45309900Y-80996113D01*
X45355287Y-81041500D01*
X45371900Y-81103500D01*
X45371900Y-82857450D01*
X45370590Y-82875422D01*
X45367247Y-82898251D01*
X45367876Y-82905442D01*
X45367876Y-82905449D01*
X45371428Y-82946039D01*
X45371900Y-82956847D01*
X45371900Y-82962062D01*
X45372316Y-82965621D01*
X45372317Y-82965638D01*
X45375389Y-82991920D01*
X45375755Y-82995504D01*
X45378356Y-83025225D01*
X45382102Y-83068042D01*
X45384370Y-83074887D01*
X45384927Y-83077585D01*
X45385027Y-83078203D01*
X45385079Y-83078439D01*
X45385254Y-83079056D01*
X45385886Y-83081723D01*
X45386724Y-83088888D01*
X45389192Y-83095668D01*
X45389193Y-83095673D01*
X45411622Y-83157298D01*
X45412806Y-83160702D01*
X45421221Y-83186097D01*
X45435713Y-83229830D01*
X45439507Y-83235981D01*
X45440655Y-83238443D01*
X45440907Y-83239051D01*
X45441008Y-83239261D01*
X45441314Y-83239809D01*
X45442549Y-83242268D01*
X45445017Y-83249048D01*
X45448981Y-83255075D01*
X45448982Y-83255077D01*
X45485041Y-83309902D01*
X45486977Y-83312943D01*
X45525189Y-83374893D01*
X45530294Y-83379998D01*
X45531986Y-83382138D01*
X45532361Y-83382656D01*
X45532515Y-83382846D01*
X45532944Y-83383314D01*
X45534706Y-83385414D01*
X45538675Y-83391448D01*
X45543926Y-83396402D01*
X45543927Y-83396403D01*
X45591652Y-83441429D01*
X45594239Y-83443943D01*
X46464580Y-84314284D01*
X46491460Y-84354512D01*
X46500899Y-84401965D01*
X46500899Y-85071060D01*
X46500899Y-85071078D01*
X46500900Y-85074372D01*
X46501252Y-85077650D01*
X46501253Y-85077661D01*
X46506478Y-85126268D01*
X46506479Y-85126273D01*
X46507308Y-85133983D01*
X46510018Y-85141249D01*
X46510019Y-85141253D01*
X46527372Y-85187778D01*
X46557603Y-85268831D01*
X46562917Y-85275930D01*
X46562918Y-85275931D01*
X46607305Y-85335225D01*
X46643853Y-85384046D01*
X46759068Y-85470296D01*
X46893916Y-85520591D01*
X46953526Y-85527000D01*
X47760471Y-85526999D01*
X47820082Y-85520591D01*
X47954930Y-85470296D01*
X48070145Y-85384046D01*
X48156395Y-85268831D01*
X48206690Y-85133983D01*
X48213099Y-85074373D01*
X48213098Y-83276828D01*
X48206690Y-83217217D01*
X48156395Y-83082369D01*
X48070145Y-82967154D01*
X48058535Y-82958463D01*
X47962030Y-82886219D01*
X47962029Y-82886218D01*
X47954930Y-82880904D01*
X47820082Y-82830609D01*
X47812369Y-82829779D01*
X47812366Y-82829779D01*
X47763779Y-82824555D01*
X47763768Y-82824554D01*
X47760472Y-82824200D01*
X47757150Y-82824200D01*
X47088064Y-82824200D01*
X47040611Y-82814761D01*
X47000383Y-82787881D01*
X46866419Y-82653917D01*
X46839539Y-82613689D01*
X46830100Y-82566236D01*
X46830100Y-81103499D01*
X46846713Y-81041499D01*
X46892100Y-80996112D01*
X46954100Y-80979499D01*
X46995561Y-80979499D01*
X46998872Y-80979499D01*
X47058483Y-80973091D01*
X47193331Y-80922796D01*
X47308546Y-80836546D01*
X47394796Y-80721331D01*
X47445091Y-80586483D01*
X47451500Y-80526873D01*
X47451499Y-78731128D01*
X47445091Y-78671517D01*
X47418589Y-78600463D01*
X47412903Y-78534245D01*
X47442228Y-78474599D01*
X47498142Y-78438666D01*
X47564579Y-78436768D01*
X47622453Y-78469451D01*
X48482181Y-79329179D01*
X48509061Y-79369407D01*
X48518500Y-79416860D01*
X48518500Y-79785526D01*
X48518500Y-79785545D01*
X48518501Y-79788676D01*
X48518821Y-79791806D01*
X48518821Y-79791809D01*
X48528137Y-79883017D01*
X48528138Y-79883025D01*
X48528826Y-79889753D01*
X48530954Y-79896175D01*
X48530955Y-79896179D01*
X48574008Y-80026104D01*
X48583092Y-80053516D01*
X48673660Y-80200350D01*
X48795650Y-80322340D01*
X48942484Y-80412908D01*
X49106247Y-80467174D01*
X49207323Y-80477500D01*
X49805676Y-80477499D01*
X49906753Y-80467174D01*
X50070516Y-80412908D01*
X50217350Y-80322340D01*
X50331318Y-80208371D01*
X50386906Y-80176277D01*
X50451094Y-80176277D01*
X50506681Y-80208371D01*
X50620650Y-80322340D01*
X50714206Y-80380046D01*
X50761334Y-80409115D01*
X50761336Y-80409116D01*
X50767484Y-80412908D01*
X50819962Y-80430297D01*
X50868640Y-80460322D01*
X52685187Y-82276869D01*
X52717281Y-82332456D01*
X52717281Y-82396644D01*
X52685187Y-82452231D01*
X52349536Y-82787881D01*
X52309308Y-82814761D01*
X52261855Y-82824200D01*
X51556840Y-82824200D01*
X51556821Y-82824200D01*
X51553529Y-82824201D01*
X51550251Y-82824553D01*
X51550239Y-82824554D01*
X51501632Y-82829779D01*
X51501626Y-82829780D01*
X51493918Y-82830609D01*
X51486653Y-82833318D01*
X51486647Y-82833320D01*
X51367381Y-82877804D01*
X51367379Y-82877804D01*
X51359070Y-82880904D01*
X51351973Y-82886216D01*
X51351969Y-82886219D01*
X51250951Y-82961841D01*
X51250947Y-82961844D01*
X51243855Y-82967154D01*
X51238545Y-82974246D01*
X51238542Y-82974250D01*
X51162920Y-83075268D01*
X51162917Y-83075272D01*
X51157605Y-83082369D01*
X51154505Y-83090678D01*
X51154505Y-83090680D01*
X51110021Y-83209947D01*
X51110020Y-83209950D01*
X51107310Y-83217217D01*
X51106480Y-83224927D01*
X51106480Y-83224932D01*
X51101256Y-83273519D01*
X51101255Y-83273531D01*
X51100901Y-83276827D01*
X51100901Y-83280149D01*
X51100901Y-84267238D01*
X51091462Y-84314691D01*
X51064582Y-84354919D01*
X49996321Y-85423181D01*
X49956093Y-85450061D01*
X49908640Y-85459500D01*
X49816354Y-85459500D01*
X49809995Y-85460851D01*
X49809991Y-85460852D01*
X49637559Y-85497503D01*
X49637552Y-85497505D01*
X49631197Y-85498856D01*
X49625262Y-85501498D01*
X49625254Y-85501501D01*
X49464207Y-85573205D01*
X49464202Y-85573207D01*
X49458270Y-85575849D01*
X49453016Y-85579665D01*
X49453011Y-85579669D01*
X49310388Y-85683290D01*
X49310381Y-85683295D01*
X49305129Y-85687112D01*
X49300784Y-85691937D01*
X49300779Y-85691942D01*
X49182813Y-85822956D01*
X49182808Y-85822962D01*
X49178467Y-85827784D01*
X49175222Y-85833404D01*
X49175218Y-85833410D01*
X49087069Y-85986089D01*
X49087066Y-85986094D01*
X49083821Y-85991716D01*
X49081815Y-85997888D01*
X49081813Y-85997894D01*
X49027333Y-86165564D01*
X49027331Y-86165573D01*
X49025326Y-86171744D01*
X49024648Y-86178194D01*
X49024646Y-86178204D01*
X49010729Y-86310625D01*
X49005540Y-86360000D01*
X49006219Y-86366460D01*
X49024646Y-86541795D01*
X49024647Y-86541803D01*
X49025326Y-86548256D01*
X49027331Y-86554428D01*
X49027333Y-86554435D01*
X49074190Y-86698643D01*
X49083821Y-86728284D01*
X49087068Y-86733908D01*
X49087069Y-86733910D01*
X49099298Y-86755092D01*
X49178467Y-86892216D01*
X49182811Y-86897041D01*
X49182813Y-86897043D01*
X49262314Y-86985337D01*
X49305129Y-87032888D01*
X49310387Y-87036708D01*
X49310388Y-87036709D01*
X49392246Y-87096182D01*
X49431559Y-87143703D01*
X49443116Y-87204286D01*
X49424058Y-87262942D01*
X49379098Y-87305162D01*
X49319361Y-87320500D01*
X46335882Y-87320500D01*
X46329285Y-87320853D01*
X46280732Y-87326073D01*
X46265758Y-87329611D01*
X46146622Y-87374047D01*
X46131210Y-87382462D01*
X46030307Y-87457998D01*
X46017898Y-87470407D01*
X45942362Y-87571310D01*
X45933947Y-87586722D01*
X45889511Y-87705858D01*
X45885973Y-87720832D01*
X45880753Y-87769385D01*
X45880400Y-87775982D01*
X45880400Y-90665674D01*
X45883850Y-90678549D01*
X45896726Y-90682000D01*
X53417274Y-90682000D01*
X53430149Y-90678549D01*
X53433600Y-90665674D01*
X53433600Y-87775982D01*
X53433246Y-87769385D01*
X53428026Y-87720832D01*
X53424488Y-87705858D01*
X53380052Y-87586722D01*
X53371637Y-87571310D01*
X53296101Y-87470407D01*
X53283692Y-87457998D01*
X53182789Y-87382462D01*
X53167377Y-87374047D01*
X53048241Y-87329611D01*
X53033267Y-87326073D01*
X52984714Y-87320853D01*
X52978118Y-87320500D01*
X50502639Y-87320500D01*
X50442902Y-87305162D01*
X50397942Y-87262942D01*
X50378884Y-87204286D01*
X50390441Y-87143703D01*
X50429754Y-87096182D01*
X50476647Y-87062112D01*
X50516871Y-87032888D01*
X50643533Y-86892216D01*
X50738179Y-86728284D01*
X50796674Y-86548256D01*
X50816460Y-86360000D01*
X50816093Y-86356509D01*
X50825220Y-86310625D01*
X50852100Y-86270397D01*
X51559179Y-85563318D01*
X51599407Y-85536438D01*
X51646860Y-85526999D01*
X51838398Y-85526999D01*
X51885851Y-85536438D01*
X51926079Y-85563318D01*
X52745880Y-86383119D01*
X52753743Y-86391760D01*
X52753854Y-86391895D01*
X52758035Y-86398482D01*
X52779777Y-86418899D01*
X52809265Y-86446590D01*
X52812061Y-86449300D01*
X52832476Y-86469715D01*
X52835960Y-86472417D01*
X52835975Y-86472429D01*
X52844868Y-86480023D01*
X52872602Y-86506068D01*
X52872605Y-86506070D01*
X52878286Y-86511405D01*
X52896985Y-86521685D01*
X52913247Y-86532368D01*
X52923942Y-86540664D01*
X52923947Y-86540667D01*
X52930107Y-86545445D01*
X52950882Y-86554435D01*
X52972179Y-86563651D01*
X52982667Y-86568789D01*
X53022842Y-86590876D01*
X53030405Y-86592817D01*
X53030406Y-86592818D01*
X53043509Y-86596183D01*
X53061918Y-86602485D01*
X53074341Y-86607861D01*
X53081500Y-86610959D01*
X53126778Y-86618129D01*
X53138209Y-86620496D01*
X53182621Y-86631900D01*
X53203963Y-86631900D01*
X53223360Y-86633427D01*
X53244430Y-86636764D01*
X53290072Y-86632449D01*
X53301739Y-86631900D01*
X54024500Y-86631900D01*
X54086500Y-86648513D01*
X54131887Y-86693900D01*
X54148500Y-86755900D01*
X54148500Y-88524560D01*
X54148500Y-88524578D01*
X54148501Y-88527872D01*
X54148853Y-88531150D01*
X54148854Y-88531161D01*
X54154079Y-88579768D01*
X54154080Y-88579773D01*
X54154909Y-88587483D01*
X54157619Y-88594749D01*
X54157620Y-88594753D01*
X54176734Y-88645999D01*
X54205204Y-88722331D01*
X54210518Y-88729430D01*
X54210519Y-88729431D01*
X54266367Y-88804035D01*
X54291454Y-88837546D01*
X54406669Y-88923796D01*
X54541517Y-88974091D01*
X54601127Y-88980500D01*
X56396872Y-88980499D01*
X56456483Y-88974091D01*
X56591331Y-88923796D01*
X56706546Y-88837546D01*
X56792796Y-88722331D01*
X56841810Y-88590916D01*
X56876789Y-88540537D01*
X56931634Y-88513084D01*
X56992927Y-88515273D01*
X57045673Y-88546569D01*
X57167599Y-88668495D01*
X57172031Y-88671598D01*
X57172033Y-88671600D01*
X57257806Y-88731659D01*
X57361170Y-88804035D01*
X57575337Y-88903903D01*
X57803592Y-88965063D01*
X58039000Y-88985659D01*
X58274408Y-88965063D01*
X58502663Y-88903903D01*
X58716830Y-88804035D01*
X58910401Y-88668495D01*
X59077495Y-88501401D01*
X59082640Y-88494054D01*
X59189544Y-88341379D01*
X59207730Y-88315405D01*
X59252048Y-88276540D01*
X59309305Y-88262529D01*
X59366562Y-88276540D01*
X59410880Y-88315405D01*
X59537784Y-88496643D01*
X59544721Y-88504909D01*
X59704090Y-88664278D01*
X59712356Y-88671215D01*
X59896991Y-88800498D01*
X59906323Y-88805886D01*
X60110602Y-88901143D01*
X60120736Y-88904831D01*
X60315219Y-88956943D01*
X60326448Y-88957311D01*
X60329000Y-88946369D01*
X60829000Y-88946369D01*
X60831551Y-88957311D01*
X60842780Y-88956943D01*
X61037263Y-88904831D01*
X61047397Y-88901143D01*
X61251676Y-88805886D01*
X61261008Y-88800498D01*
X61445643Y-88671215D01*
X61453909Y-88664278D01*
X61613278Y-88504909D01*
X61620215Y-88496643D01*
X61749498Y-88312008D01*
X61754886Y-88302676D01*
X61850143Y-88098397D01*
X61853831Y-88088263D01*
X61905943Y-87893780D01*
X61906311Y-87882551D01*
X61895369Y-87880000D01*
X60845326Y-87880000D01*
X60832450Y-87883450D01*
X60829000Y-87896326D01*
X60829000Y-88946369D01*
X60329000Y-88946369D01*
X60329000Y-87504000D01*
X60345613Y-87442000D01*
X60391000Y-87396613D01*
X60453000Y-87380000D01*
X61895369Y-87380000D01*
X61906311Y-87377448D01*
X61905943Y-87366219D01*
X61853831Y-87171736D01*
X61850143Y-87161602D01*
X61754889Y-86957332D01*
X61749491Y-86947982D01*
X61620215Y-86763357D01*
X61613280Y-86755092D01*
X61453909Y-86595721D01*
X61445643Y-86588784D01*
X61261008Y-86459501D01*
X61251676Y-86454113D01*
X61085876Y-86376800D01*
X61039905Y-86339904D01*
X61016165Y-86285950D01*
X61020020Y-86227130D01*
X61050596Y-86176742D01*
X62443312Y-84784026D01*
X62504152Y-84750648D01*
X62573401Y-84755187D01*
X62629367Y-84796222D01*
X62654519Y-84860901D01*
X62666174Y-84994109D01*
X62672937Y-85071408D01*
X62674336Y-85076630D01*
X62674337Y-85076634D01*
X62732694Y-85294430D01*
X62732697Y-85294437D01*
X62734097Y-85299663D01*
X62736385Y-85304570D01*
X62736386Y-85304572D01*
X62831678Y-85508927D01*
X62831681Y-85508933D01*
X62833965Y-85513830D01*
X62837064Y-85518257D01*
X62837066Y-85518259D01*
X62966399Y-85702966D01*
X62966402Y-85702970D01*
X62969505Y-85707401D01*
X63136599Y-85874495D01*
X63141032Y-85877599D01*
X63141038Y-85877604D01*
X63322158Y-86004425D01*
X63361024Y-86048743D01*
X63375035Y-86106000D01*
X63361024Y-86163257D01*
X63322159Y-86207575D01*
X63141041Y-86334395D01*
X63136599Y-86337505D01*
X63132775Y-86341328D01*
X63132769Y-86341334D01*
X62973334Y-86500769D01*
X62973328Y-86500775D01*
X62969505Y-86504599D01*
X62966402Y-86509029D01*
X62966399Y-86509034D01*
X62837073Y-86693731D01*
X62837068Y-86693738D01*
X62833965Y-86698171D01*
X62831677Y-86703077D01*
X62831675Y-86703081D01*
X62736386Y-86907427D01*
X62736383Y-86907432D01*
X62734097Y-86912337D01*
X62732698Y-86917557D01*
X62732694Y-86917569D01*
X62674337Y-87135365D01*
X62674335Y-87135371D01*
X62672937Y-87140592D01*
X62672465Y-87145977D01*
X62672465Y-87145982D01*
X62658539Y-87305162D01*
X62652341Y-87376000D01*
X62652813Y-87381395D01*
X62668455Y-87560188D01*
X62672937Y-87611408D01*
X62674336Y-87616630D01*
X62674337Y-87616634D01*
X62706849Y-87737971D01*
X62706849Y-87802158D01*
X62674755Y-87857745D01*
X62537295Y-87995205D01*
X62525108Y-88005893D01*
X62499978Y-88025178D01*
X62495033Y-88031621D01*
X62495030Y-88031625D01*
X62475751Y-88056750D01*
X62475748Y-88056752D01*
X62475749Y-88056753D01*
X62463369Y-88072887D01*
X62408414Y-88144505D01*
X62408411Y-88144508D01*
X62403467Y-88150953D01*
X62400358Y-88158457D01*
X62400357Y-88158460D01*
X62345908Y-88289910D01*
X62345906Y-88289915D01*
X62342798Y-88297420D01*
X62341738Y-88305471D01*
X62341736Y-88305479D01*
X62327889Y-88410663D01*
X62327300Y-88415140D01*
X62327300Y-88415145D01*
X62322106Y-88454600D01*
X62326239Y-88485999D01*
X62327300Y-88502176D01*
X62327300Y-94124211D01*
X62317861Y-94171664D01*
X62290981Y-94211892D01*
X61930339Y-94572532D01*
X61885068Y-94601373D01*
X61831850Y-94608379D01*
X61780658Y-94592238D01*
X61741083Y-94555974D01*
X61620215Y-94383357D01*
X61613280Y-94375092D01*
X61453909Y-94215721D01*
X61445643Y-94208784D01*
X61261008Y-94079501D01*
X61251676Y-94074113D01*
X61047397Y-93978856D01*
X61037263Y-93975168D01*
X60842780Y-93923056D01*
X60831551Y-93922688D01*
X60829000Y-93933631D01*
X60829000Y-95376000D01*
X60812387Y-95438000D01*
X60767000Y-95483387D01*
X60705000Y-95500000D01*
X60453000Y-95500000D01*
X60391000Y-95483387D01*
X60345613Y-95438000D01*
X60329000Y-95376000D01*
X60329000Y-93933631D01*
X60326448Y-93922688D01*
X60315219Y-93923056D01*
X60120736Y-93975168D01*
X60110602Y-93978856D01*
X59906332Y-94074110D01*
X59896982Y-94079508D01*
X59712357Y-94208784D01*
X59704092Y-94215719D01*
X59544719Y-94375092D01*
X59537788Y-94383352D01*
X59410880Y-94564596D01*
X59366562Y-94603461D01*
X59309305Y-94617472D01*
X59252048Y-94603461D01*
X59207730Y-94564595D01*
X59192959Y-94543500D01*
X59077495Y-94378599D01*
X58910401Y-94211505D01*
X58905970Y-94208402D01*
X58905966Y-94208399D01*
X58721259Y-94079066D01*
X58721257Y-94079064D01*
X58716830Y-94075965D01*
X58711933Y-94073681D01*
X58711927Y-94073678D01*
X58507572Y-93978386D01*
X58507570Y-93978385D01*
X58502663Y-93976097D01*
X58497438Y-93974697D01*
X58497430Y-93974694D01*
X58279634Y-93916337D01*
X58279630Y-93916336D01*
X58274408Y-93914937D01*
X58269020Y-93914465D01*
X58269017Y-93914465D01*
X58044395Y-93894813D01*
X58039000Y-93894341D01*
X58033605Y-93894813D01*
X57808982Y-93914465D01*
X57808977Y-93914465D01*
X57803592Y-93914937D01*
X57798371Y-93916335D01*
X57798365Y-93916337D01*
X57580569Y-93974694D01*
X57580557Y-93974698D01*
X57575337Y-93976097D01*
X57570432Y-93978383D01*
X57570427Y-93978386D01*
X57366081Y-94073675D01*
X57366077Y-94073677D01*
X57361171Y-94075965D01*
X57356738Y-94079068D01*
X57356731Y-94079073D01*
X57172034Y-94208399D01*
X57172029Y-94208402D01*
X57167599Y-94211505D01*
X57163775Y-94215329D01*
X57045673Y-94333431D01*
X56992926Y-94364726D01*
X56931633Y-94366915D01*
X56876789Y-94339462D01*
X56841810Y-94289082D01*
X56824199Y-94241865D01*
X56792796Y-94157669D01*
X56706546Y-94042454D01*
X56670099Y-94015170D01*
X56598431Y-93961519D01*
X56598430Y-93961518D01*
X56591331Y-93956204D01*
X56484442Y-93916337D01*
X56463752Y-93908620D01*
X56463750Y-93908619D01*
X56456483Y-93905909D01*
X56448770Y-93905079D01*
X56448767Y-93905079D01*
X56400180Y-93899855D01*
X56400169Y-93899854D01*
X56396873Y-93899500D01*
X56393550Y-93899500D01*
X54604439Y-93899500D01*
X54604420Y-93899500D01*
X54601128Y-93899501D01*
X54597850Y-93899853D01*
X54597838Y-93899854D01*
X54549231Y-93905079D01*
X54549225Y-93905080D01*
X54541517Y-93905909D01*
X54534252Y-93908618D01*
X54534246Y-93908620D01*
X54414980Y-93953104D01*
X54414978Y-93953104D01*
X54406669Y-93956204D01*
X54399572Y-93961516D01*
X54399568Y-93961519D01*
X54298550Y-94037141D01*
X54298546Y-94037144D01*
X54291454Y-94042454D01*
X54286144Y-94049546D01*
X54286141Y-94049550D01*
X54210519Y-94150568D01*
X54210516Y-94150572D01*
X54205204Y-94157669D01*
X54202104Y-94165978D01*
X54202104Y-94165980D01*
X54157620Y-94285247D01*
X54157619Y-94285250D01*
X54154909Y-94292517D01*
X54154079Y-94300227D01*
X54154079Y-94300232D01*
X54148855Y-94348819D01*
X54148854Y-94348831D01*
X54148500Y-94352127D01*
X54148500Y-94355448D01*
X54148500Y-94355449D01*
X54148500Y-96144560D01*
X54148500Y-96144578D01*
X54148501Y-96147872D01*
X54148853Y-96151150D01*
X54148854Y-96151161D01*
X54154079Y-96199768D01*
X54154080Y-96199773D01*
X54154909Y-96207483D01*
X54157619Y-96214749D01*
X54157620Y-96214753D01*
X54173563Y-96257497D01*
X54205204Y-96342331D01*
X54210518Y-96349430D01*
X54210519Y-96349431D01*
X54278865Y-96440730D01*
X54291454Y-96457546D01*
X54406669Y-96543796D01*
X54541517Y-96594091D01*
X54601127Y-96600500D01*
X56396872Y-96600499D01*
X56456483Y-96594091D01*
X56591331Y-96543796D01*
X56706546Y-96457546D01*
X56792796Y-96342331D01*
X56841810Y-96210916D01*
X56876789Y-96160537D01*
X56931634Y-96133084D01*
X56992927Y-96135273D01*
X57045672Y-96166568D01*
X57167599Y-96288495D01*
X57172031Y-96291598D01*
X57172033Y-96291600D01*
X57262452Y-96354912D01*
X57361170Y-96424035D01*
X57575337Y-96523903D01*
X57580567Y-96525304D01*
X57580569Y-96525305D01*
X57622619Y-96536572D01*
X57803592Y-96585063D01*
X58039000Y-96605659D01*
X58274408Y-96585063D01*
X58502663Y-96523903D01*
X58716830Y-96424035D01*
X58910401Y-96288495D01*
X59077495Y-96121401D01*
X59207730Y-95935405D01*
X59252048Y-95896540D01*
X59309305Y-95882529D01*
X59366562Y-95896540D01*
X59410880Y-95935405D01*
X59537784Y-96116643D01*
X59544721Y-96124909D01*
X59704090Y-96284278D01*
X59712356Y-96291215D01*
X59884974Y-96412084D01*
X59921237Y-96451659D01*
X59937378Y-96502852D01*
X59930372Y-96556069D01*
X59901531Y-96601340D01*
X59351292Y-97151581D01*
X59311064Y-97178461D01*
X59263611Y-97187900D01*
X53760460Y-97187900D01*
X52236263Y-97187900D01*
X52186048Y-97177277D01*
X52144436Y-97147229D01*
X52118557Y-97102904D01*
X52094179Y-97029338D01*
X52091908Y-97022484D01*
X52001340Y-96875650D01*
X51987017Y-96861327D01*
X51954922Y-96805737D01*
X51954925Y-96741547D01*
X51987023Y-96685958D01*
X51995842Y-96677139D01*
X52004736Y-96665890D01*
X52087659Y-96531452D01*
X52093725Y-96518444D01*
X52143552Y-96368075D01*
X52146368Y-96354919D01*
X52155680Y-96263776D01*
X52156000Y-96257500D01*
X52156000Y-96177826D01*
X52152549Y-96164950D01*
X52139674Y-96161500D01*
X51055000Y-96161500D01*
X50993000Y-96144887D01*
X50947613Y-96099500D01*
X50931000Y-96037500D01*
X50931000Y-95645174D01*
X51431000Y-95645174D01*
X51434450Y-95658049D01*
X51447326Y-95661500D01*
X52139673Y-95661500D01*
X52152548Y-95658049D01*
X52155999Y-95645174D01*
X52155999Y-95565503D01*
X52155678Y-95559220D01*
X52146369Y-95468087D01*
X52143550Y-95454918D01*
X52093725Y-95304555D01*
X52087659Y-95291547D01*
X52004739Y-95157113D01*
X51995834Y-95145851D01*
X51884148Y-95034165D01*
X51872886Y-95025260D01*
X51738452Y-94942340D01*
X51725444Y-94936274D01*
X51575075Y-94886447D01*
X51561919Y-94883631D01*
X51470776Y-94874319D01*
X51464500Y-94874000D01*
X51447326Y-94874000D01*
X51434450Y-94877450D01*
X51431000Y-94890326D01*
X51431000Y-95645174D01*
X50931000Y-95645174D01*
X50931000Y-94890327D01*
X50927549Y-94877451D01*
X50898906Y-94869776D01*
X50899706Y-94866787D01*
X50870421Y-94859486D01*
X50825835Y-94819341D01*
X50805315Y-94762962D01*
X50801286Y-94724631D01*
X50796674Y-94680744D01*
X50796673Y-94680743D01*
X50798802Y-94680520D01*
X50799372Y-94638506D01*
X50823589Y-94589439D01*
X50866566Y-94555572D01*
X50919935Y-94543500D01*
X52978118Y-94543500D01*
X52984714Y-94543146D01*
X53033267Y-94537926D01*
X53048241Y-94534388D01*
X53167377Y-94489952D01*
X53182789Y-94481537D01*
X53283692Y-94406001D01*
X53296101Y-94393592D01*
X53371637Y-94292689D01*
X53380052Y-94277277D01*
X53424488Y-94158141D01*
X53428026Y-94143167D01*
X53433246Y-94094614D01*
X53433600Y-94088018D01*
X53433600Y-92334578D01*
X54148500Y-92334578D01*
X54148501Y-92337872D01*
X54148853Y-92341150D01*
X54148854Y-92341161D01*
X54154079Y-92389768D01*
X54154080Y-92389773D01*
X54154909Y-92397483D01*
X54157619Y-92404749D01*
X54157620Y-92404753D01*
X54182316Y-92470965D01*
X54205204Y-92532331D01*
X54210518Y-92539430D01*
X54210519Y-92539431D01*
X54266367Y-92614035D01*
X54291454Y-92647546D01*
X54406669Y-92733796D01*
X54541517Y-92784091D01*
X54601127Y-92790500D01*
X56396872Y-92790499D01*
X56456483Y-92784091D01*
X56591331Y-92733796D01*
X56706546Y-92647546D01*
X56792796Y-92532331D01*
X56841810Y-92400916D01*
X56876789Y-92350537D01*
X56931634Y-92323084D01*
X56992927Y-92325273D01*
X57045673Y-92356569D01*
X57167599Y-92478495D01*
X57172031Y-92481598D01*
X57172033Y-92481600D01*
X57254879Y-92539609D01*
X57361170Y-92614035D01*
X57575337Y-92713903D01*
X57803592Y-92775063D01*
X58039000Y-92795659D01*
X58274408Y-92775063D01*
X58502663Y-92713903D01*
X58716830Y-92614035D01*
X58910401Y-92478495D01*
X59077495Y-92311401D01*
X59207730Y-92125405D01*
X59252048Y-92086540D01*
X59309305Y-92072529D01*
X59366562Y-92086540D01*
X59410880Y-92125405D01*
X59537784Y-92306643D01*
X59544721Y-92314909D01*
X59704090Y-92474278D01*
X59712356Y-92481215D01*
X59896991Y-92610498D01*
X59906323Y-92615886D01*
X60110602Y-92711143D01*
X60120736Y-92714831D01*
X60315219Y-92766943D01*
X60326448Y-92767311D01*
X60329000Y-92756369D01*
X60829000Y-92756369D01*
X60831551Y-92767311D01*
X60842780Y-92766943D01*
X61037263Y-92714831D01*
X61047397Y-92711143D01*
X61251676Y-92615886D01*
X61261008Y-92610498D01*
X61445643Y-92481215D01*
X61453909Y-92474278D01*
X61613278Y-92314909D01*
X61620215Y-92306643D01*
X61749498Y-92122008D01*
X61754886Y-92112676D01*
X61850143Y-91908397D01*
X61853831Y-91898263D01*
X61905943Y-91703780D01*
X61906311Y-91692551D01*
X61895369Y-91690000D01*
X60845326Y-91690000D01*
X60832450Y-91693450D01*
X60829000Y-91706326D01*
X60829000Y-92756369D01*
X60329000Y-92756369D01*
X60329000Y-91173674D01*
X60829000Y-91173674D01*
X60832450Y-91186549D01*
X60845326Y-91190000D01*
X61895369Y-91190000D01*
X61906311Y-91187448D01*
X61905943Y-91176219D01*
X61853831Y-90981736D01*
X61850143Y-90971602D01*
X61754889Y-90767332D01*
X61749491Y-90757982D01*
X61620215Y-90573357D01*
X61613280Y-90565092D01*
X61453909Y-90405721D01*
X61445643Y-90398784D01*
X61261008Y-90269501D01*
X61251676Y-90264113D01*
X61047397Y-90168856D01*
X61037263Y-90165168D01*
X60842780Y-90113056D01*
X60831551Y-90112688D01*
X60829000Y-90123631D01*
X60829000Y-91173674D01*
X60329000Y-91173674D01*
X60329000Y-90123631D01*
X60326448Y-90112688D01*
X60315219Y-90113056D01*
X60120736Y-90165168D01*
X60110602Y-90168856D01*
X59906332Y-90264110D01*
X59896982Y-90269508D01*
X59712357Y-90398784D01*
X59704092Y-90405719D01*
X59544719Y-90565092D01*
X59537788Y-90573352D01*
X59410880Y-90754596D01*
X59366562Y-90793461D01*
X59309305Y-90807472D01*
X59252048Y-90793461D01*
X59207730Y-90754595D01*
X59098087Y-90598008D01*
X59077495Y-90568599D01*
X58910401Y-90401505D01*
X58905970Y-90398402D01*
X58905966Y-90398399D01*
X58721259Y-90269066D01*
X58721257Y-90269064D01*
X58716830Y-90265965D01*
X58711933Y-90263681D01*
X58711927Y-90263678D01*
X58507572Y-90168386D01*
X58507570Y-90168385D01*
X58502663Y-90166097D01*
X58497438Y-90164697D01*
X58497430Y-90164694D01*
X58279634Y-90106337D01*
X58279630Y-90106336D01*
X58274408Y-90104937D01*
X58269020Y-90104465D01*
X58269017Y-90104465D01*
X58044395Y-90084813D01*
X58039000Y-90084341D01*
X58033605Y-90084813D01*
X57808982Y-90104465D01*
X57808977Y-90104465D01*
X57803592Y-90104937D01*
X57798371Y-90106335D01*
X57798365Y-90106337D01*
X57580569Y-90164694D01*
X57580557Y-90164698D01*
X57575337Y-90166097D01*
X57570432Y-90168383D01*
X57570427Y-90168386D01*
X57366081Y-90263675D01*
X57366077Y-90263677D01*
X57361171Y-90265965D01*
X57356738Y-90269068D01*
X57356731Y-90269073D01*
X57172034Y-90398399D01*
X57172029Y-90398402D01*
X57167599Y-90401505D01*
X57163775Y-90405328D01*
X57163775Y-90405329D01*
X57045673Y-90523431D01*
X56992926Y-90554726D01*
X56931633Y-90556915D01*
X56876789Y-90529462D01*
X56841810Y-90479082D01*
X56814304Y-90405336D01*
X56792796Y-90347669D01*
X56706546Y-90232454D01*
X56616030Y-90164694D01*
X56598431Y-90151519D01*
X56598430Y-90151518D01*
X56591331Y-90146204D01*
X56484442Y-90106337D01*
X56463752Y-90098620D01*
X56463750Y-90098619D01*
X56456483Y-90095909D01*
X56448770Y-90095079D01*
X56448767Y-90095079D01*
X56400180Y-90089855D01*
X56400169Y-90089854D01*
X56396873Y-90089500D01*
X56393550Y-90089500D01*
X54604439Y-90089500D01*
X54604420Y-90089500D01*
X54601128Y-90089501D01*
X54597850Y-90089853D01*
X54597838Y-90089854D01*
X54549231Y-90095079D01*
X54549225Y-90095080D01*
X54541517Y-90095909D01*
X54534252Y-90098618D01*
X54534246Y-90098620D01*
X54414980Y-90143104D01*
X54414978Y-90143104D01*
X54406669Y-90146204D01*
X54399572Y-90151516D01*
X54399568Y-90151519D01*
X54298550Y-90227141D01*
X54298546Y-90227144D01*
X54291454Y-90232454D01*
X54286144Y-90239546D01*
X54286141Y-90239550D01*
X54210519Y-90340568D01*
X54210516Y-90340572D01*
X54205204Y-90347669D01*
X54202104Y-90355978D01*
X54202104Y-90355980D01*
X54157620Y-90475247D01*
X54157619Y-90475250D01*
X54154909Y-90482517D01*
X54154079Y-90490227D01*
X54154079Y-90490232D01*
X54148855Y-90538819D01*
X54148854Y-90538831D01*
X54148500Y-90542127D01*
X54148500Y-90545448D01*
X54148500Y-90545449D01*
X54148500Y-92334560D01*
X54148500Y-92334578D01*
X53433600Y-92334578D01*
X53433600Y-91198326D01*
X53430149Y-91185450D01*
X53417274Y-91182000D01*
X45896726Y-91182000D01*
X45883850Y-91185450D01*
X45880400Y-91198326D01*
X45880400Y-94088018D01*
X45880753Y-94094614D01*
X45885973Y-94143167D01*
X45889511Y-94158141D01*
X45933947Y-94277277D01*
X45942362Y-94292689D01*
X46017898Y-94393592D01*
X46030307Y-94406001D01*
X46131210Y-94481537D01*
X46146622Y-94489952D01*
X46265758Y-94534388D01*
X46280732Y-94537926D01*
X46329285Y-94543146D01*
X46335882Y-94543500D01*
X48902065Y-94543500D01*
X48955434Y-94555572D01*
X48998411Y-94589439D01*
X49022628Y-94638506D01*
X49023197Y-94680520D01*
X49025326Y-94680743D01*
X49025326Y-94680744D01*
X49005540Y-94869000D01*
X49006219Y-94875460D01*
X49006219Y-94875461D01*
X49023146Y-95036519D01*
X49014633Y-95096333D01*
X48978865Y-95145024D01*
X48924334Y-95171034D01*
X48863985Y-95168188D01*
X48812144Y-95137161D01*
X48709148Y-95034165D01*
X48697886Y-95025260D01*
X48563452Y-94942340D01*
X48550444Y-94936274D01*
X48400075Y-94886447D01*
X48386919Y-94883631D01*
X48295776Y-94874319D01*
X48289500Y-94874000D01*
X48272326Y-94874000D01*
X48259450Y-94877450D01*
X48256000Y-94890326D01*
X48256000Y-96037500D01*
X48239387Y-96099500D01*
X48194000Y-96144887D01*
X48132000Y-96161500D01*
X47047327Y-96161500D01*
X47034451Y-96164950D01*
X47031001Y-96177826D01*
X47031001Y-96257497D01*
X47031321Y-96263779D01*
X47040630Y-96354912D01*
X47043449Y-96368081D01*
X47093274Y-96518444D01*
X47099340Y-96531452D01*
X47182260Y-96665886D01*
X47191165Y-96677148D01*
X47199981Y-96685964D01*
X47232074Y-96741549D01*
X47232076Y-96805733D01*
X47199987Y-96861320D01*
X47190772Y-96870536D01*
X47190764Y-96870545D01*
X47185660Y-96875650D01*
X47181872Y-96881790D01*
X47181869Y-96881795D01*
X47110100Y-96998152D01*
X47095092Y-97022484D01*
X47092822Y-97029332D01*
X47092820Y-97029338D01*
X47068443Y-97102904D01*
X47040826Y-97186247D01*
X47040138Y-97192977D01*
X47040137Y-97192984D01*
X47030819Y-97284191D01*
X47030818Y-97284209D01*
X47030500Y-97287323D01*
X47030500Y-97290470D01*
X47030500Y-97290471D01*
X47030500Y-97982526D01*
X47030500Y-97982545D01*
X47030501Y-97985676D01*
X47030820Y-97988808D01*
X47030821Y-97988809D01*
X47040137Y-98080017D01*
X47040138Y-98080025D01*
X47040826Y-98086753D01*
X47042954Y-98093175D01*
X47042955Y-98093179D01*
X47081310Y-98208927D01*
X47095092Y-98250516D01*
X47185660Y-98397350D01*
X47190770Y-98402460D01*
X47190771Y-98402461D01*
X47229474Y-98441164D01*
X47261568Y-98496751D01*
X47261568Y-98560939D01*
X47229474Y-98616526D01*
X46818819Y-99027181D01*
X46778591Y-99054061D01*
X46731138Y-99063500D01*
X46210694Y-99063500D01*
X46210678Y-99063500D01*
X46206640Y-99063501D01*
X46202626Y-99064029D01*
X46202617Y-99064030D01*
X46097296Y-99077895D01*
X46097294Y-99077895D01*
X46089238Y-99078956D01*
X46081738Y-99082062D01*
X46081729Y-99082065D01*
X45950666Y-99136354D01*
X45950662Y-99136355D01*
X45943159Y-99139464D01*
X45936714Y-99144408D01*
X45936711Y-99144411D01*
X45824164Y-99230771D01*
X45824160Y-99230774D01*
X45817718Y-99235718D01*
X45812774Y-99242160D01*
X45812771Y-99242164D01*
X45726411Y-99354711D01*
X45726408Y-99354714D01*
X45721464Y-99361159D01*
X45718355Y-99368662D01*
X45718354Y-99368666D01*
X45664066Y-99499728D01*
X45664064Y-99499733D01*
X45660956Y-99507238D01*
X45659896Y-99515289D01*
X45659894Y-99515297D01*
X45646029Y-99620618D01*
X45645500Y-99624639D01*
X45645500Y-99628691D01*
X45645500Y-99628692D01*
X45645500Y-99899305D01*
X45645500Y-99899320D01*
X45645501Y-99903360D01*
X45646029Y-99907374D01*
X45646030Y-99907382D01*
X45656884Y-99989831D01*
X45660956Y-100020762D01*
X45664064Y-100028265D01*
X45664065Y-100028269D01*
X45669566Y-100041549D01*
X45679004Y-100089000D01*
X45669566Y-100136451D01*
X45664066Y-100149728D01*
X45664064Y-100149733D01*
X45660956Y-100157238D01*
X45659896Y-100165289D01*
X45659894Y-100165297D01*
X45646029Y-100270618D01*
X45645500Y-100274639D01*
X45645500Y-100278691D01*
X45645500Y-100278692D01*
X45645500Y-100549305D01*
X45645500Y-100549320D01*
X45645501Y-100553360D01*
X45646029Y-100557374D01*
X45646030Y-100557382D01*
X45659895Y-100662703D01*
X45660956Y-100670762D01*
X45664064Y-100678265D01*
X45664065Y-100678269D01*
X45669566Y-100691549D01*
X45679004Y-100738999D01*
X45669567Y-100786449D01*
X45664066Y-100799728D01*
X45664064Y-100799732D01*
X45660956Y-100807238D01*
X45659895Y-100815293D01*
X45659894Y-100815299D01*
X45646029Y-100920618D01*
X45645500Y-100924639D01*
X45645500Y-100928691D01*
X45645500Y-100928692D01*
X45645500Y-101199305D01*
X45645500Y-101199320D01*
X45645501Y-101203360D01*
X45646029Y-101207374D01*
X45646030Y-101207382D01*
X45650907Y-101244425D01*
X45660956Y-101320762D01*
X45664064Y-101328265D01*
X45664065Y-101328269D01*
X45669566Y-101341549D01*
X45679004Y-101389000D01*
X45669566Y-101436451D01*
X45664066Y-101449728D01*
X45664064Y-101449733D01*
X45660956Y-101457238D01*
X45659896Y-101465289D01*
X45659894Y-101465297D01*
X45652793Y-101519241D01*
X45645500Y-101574639D01*
X45645500Y-101578691D01*
X45645500Y-101578692D01*
X45645500Y-101849305D01*
X45645500Y-101849320D01*
X45645501Y-101853360D01*
X45646029Y-101857374D01*
X45646030Y-101857382D01*
X45657071Y-101941251D01*
X45660956Y-101970762D01*
X45664064Y-101978265D01*
X45664065Y-101978269D01*
X45669566Y-101991549D01*
X45679004Y-102039000D01*
X45669566Y-102086451D01*
X45664066Y-102099728D01*
X45664064Y-102099733D01*
X45660956Y-102107238D01*
X45659896Y-102115289D01*
X45659894Y-102115297D01*
X45646029Y-102220618D01*
X45645500Y-102224639D01*
X45645500Y-102228691D01*
X45645500Y-102228692D01*
X45645500Y-102499305D01*
X45645500Y-102499320D01*
X45645501Y-102503360D01*
X45646029Y-102507374D01*
X45646030Y-102507382D01*
X45651889Y-102551885D01*
X45660956Y-102620762D01*
X45664063Y-102628263D01*
X45664065Y-102628270D01*
X45669565Y-102641546D01*
X45679004Y-102688997D01*
X45669567Y-102736448D01*
X45664066Y-102749728D01*
X45664064Y-102749733D01*
X45660956Y-102757238D01*
X45659896Y-102765289D01*
X45659894Y-102765297D01*
X45647870Y-102856634D01*
X45645500Y-102874639D01*
X45645500Y-102878691D01*
X45645500Y-102878692D01*
X45645500Y-103149305D01*
X45645500Y-103149320D01*
X45645501Y-103153360D01*
X45660956Y-103270762D01*
X45664064Y-103278265D01*
X45664065Y-103278269D01*
X45669566Y-103291549D01*
X45679004Y-103339000D01*
X45669566Y-103386451D01*
X45664066Y-103399728D01*
X45664064Y-103399733D01*
X45660956Y-103407238D01*
X45659895Y-103415292D01*
X45659895Y-103415295D01*
X45655359Y-103449748D01*
X45628272Y-103512226D01*
X45572277Y-103550980D01*
X45504262Y-103554321D01*
X45444739Y-103521241D01*
X45021244Y-103097746D01*
X44989150Y-103042158D01*
X44989150Y-102977971D01*
X44990939Y-102971294D01*
X45023063Y-102851408D01*
X45043659Y-102616000D01*
X45023063Y-102380592D01*
X44961903Y-102152337D01*
X44862035Y-101938171D01*
X44726495Y-101744599D01*
X44559401Y-101577505D01*
X44554970Y-101574402D01*
X44554966Y-101574399D01*
X44373841Y-101447574D01*
X44334976Y-101403256D01*
X44320965Y-101345999D01*
X44334976Y-101288742D01*
X44373839Y-101244426D01*
X44559401Y-101114495D01*
X44726495Y-100947401D01*
X44862035Y-100753830D01*
X44961903Y-100539663D01*
X45023063Y-100311408D01*
X45043659Y-100076000D01*
X45023063Y-99840592D01*
X44961903Y-99612337D01*
X44862035Y-99398171D01*
X44726495Y-99204599D01*
X44559401Y-99037505D01*
X44554968Y-99034401D01*
X44554961Y-99034395D01*
X44373842Y-98907575D01*
X44334976Y-98863257D01*
X44320965Y-98806000D01*
X44334976Y-98748743D01*
X44373842Y-98704425D01*
X44554961Y-98577604D01*
X44554961Y-98577603D01*
X44559401Y-98574495D01*
X44726495Y-98407401D01*
X44862035Y-98213830D01*
X44961903Y-97999663D01*
X45023063Y-97771408D01*
X45043659Y-97536000D01*
X45023063Y-97300592D01*
X44961903Y-97072337D01*
X44862035Y-96858171D01*
X44726495Y-96664599D01*
X44559401Y-96497505D01*
X44554968Y-96494401D01*
X44554961Y-96494395D01*
X44373842Y-96367575D01*
X44334976Y-96323257D01*
X44320965Y-96266000D01*
X44334976Y-96208743D01*
X44373842Y-96164425D01*
X44554961Y-96037604D01*
X44554961Y-96037603D01*
X44559401Y-96034495D01*
X44726495Y-95867401D01*
X44862035Y-95673830D01*
X44875398Y-95645174D01*
X47031000Y-95645174D01*
X47034450Y-95658049D01*
X47047326Y-95661500D01*
X47739674Y-95661500D01*
X47752549Y-95658049D01*
X47756000Y-95645174D01*
X47756000Y-94890327D01*
X47752549Y-94877451D01*
X47739674Y-94874001D01*
X47722503Y-94874001D01*
X47716220Y-94874321D01*
X47625087Y-94883630D01*
X47611918Y-94886449D01*
X47461555Y-94936274D01*
X47448547Y-94942340D01*
X47314113Y-95025260D01*
X47302851Y-95034165D01*
X47191165Y-95145851D01*
X47182260Y-95157113D01*
X47099340Y-95291547D01*
X47093274Y-95304555D01*
X47043447Y-95454924D01*
X47040631Y-95468080D01*
X47031319Y-95559223D01*
X47031000Y-95565500D01*
X47031000Y-95645174D01*
X44875398Y-95645174D01*
X44961903Y-95459663D01*
X45023063Y-95231408D01*
X45043659Y-94996000D01*
X45023063Y-94760592D01*
X44961903Y-94532337D01*
X44862035Y-94318171D01*
X44726495Y-94124599D01*
X44559401Y-93957505D01*
X44554968Y-93954401D01*
X44554961Y-93954395D01*
X44373842Y-93827575D01*
X44334976Y-93783257D01*
X44320965Y-93726000D01*
X44334976Y-93668743D01*
X44373842Y-93624425D01*
X44554961Y-93497604D01*
X44554961Y-93497603D01*
X44559401Y-93494495D01*
X44726495Y-93327401D01*
X44862035Y-93133830D01*
X44961903Y-92919663D01*
X45023063Y-92691408D01*
X45043659Y-92456000D01*
X45023063Y-92220592D01*
X44974572Y-92039619D01*
X44963305Y-91997569D01*
X44963304Y-91997567D01*
X44961903Y-91992337D01*
X44862035Y-91778171D01*
X44726495Y-91584599D01*
X44559401Y-91417505D01*
X44554968Y-91414401D01*
X44554961Y-91414395D01*
X44373842Y-91287575D01*
X44334976Y-91243257D01*
X44320965Y-91186000D01*
X44334976Y-91128743D01*
X44373842Y-91084425D01*
X44554961Y-90957604D01*
X44554961Y-90957603D01*
X44559401Y-90954495D01*
X44726495Y-90787401D01*
X44862035Y-90593830D01*
X44961903Y-90379663D01*
X45023063Y-90151408D01*
X45043659Y-89916000D01*
X45023063Y-89680592D01*
X44961903Y-89452337D01*
X44862035Y-89238171D01*
X44726495Y-89044599D01*
X44559401Y-88877505D01*
X44554970Y-88874402D01*
X44554966Y-88874399D01*
X44373841Y-88747574D01*
X44334976Y-88703256D01*
X44320965Y-88645999D01*
X44334976Y-88588742D01*
X44373839Y-88544426D01*
X44559401Y-88414495D01*
X44726495Y-88247401D01*
X44862035Y-88053830D01*
X44961903Y-87839663D01*
X45023063Y-87611408D01*
X45043659Y-87376000D01*
X45023063Y-87140592D01*
X44961903Y-86912337D01*
X44862035Y-86698171D01*
X44726495Y-86504599D01*
X44604569Y-86382673D01*
X44573273Y-86329927D01*
X44571084Y-86268634D01*
X44598537Y-86213789D01*
X44648916Y-86178810D01*
X44780331Y-86129796D01*
X44895546Y-86043546D01*
X44981796Y-85928331D01*
X45032091Y-85793483D01*
X45038500Y-85733873D01*
X45038499Y-83938128D01*
X45032091Y-83878517D01*
X44981796Y-83743669D01*
X44895546Y-83628454D01*
X44848045Y-83592895D01*
X44787431Y-83547519D01*
X44787430Y-83547518D01*
X44780331Y-83542204D01*
X44682850Y-83505846D01*
X44652752Y-83494620D01*
X44652750Y-83494619D01*
X44645483Y-83491909D01*
X44637770Y-83491079D01*
X44637767Y-83491079D01*
X44589180Y-83485855D01*
X44589169Y-83485854D01*
X44585873Y-83485500D01*
X44582550Y-83485500D01*
X42793439Y-83485500D01*
X42793420Y-83485500D01*
X42790128Y-83485501D01*
X42786850Y-83485853D01*
X42786838Y-83485854D01*
X42738231Y-83491079D01*
X42738225Y-83491080D01*
X42730517Y-83491909D01*
X42723252Y-83494618D01*
X42723246Y-83494620D01*
X42603980Y-83539104D01*
X42603978Y-83539104D01*
X42595669Y-83542204D01*
X42588572Y-83547516D01*
X42588568Y-83547519D01*
X42487550Y-83623141D01*
X42487546Y-83623144D01*
X42480454Y-83628454D01*
X42475144Y-83635546D01*
X42475141Y-83635550D01*
X42399519Y-83736568D01*
X42399516Y-83736572D01*
X42394204Y-83743669D01*
X42391104Y-83751978D01*
X42391104Y-83751980D01*
X42346620Y-83871247D01*
X42346619Y-83871250D01*
X42343909Y-83878517D01*
X42343079Y-83886227D01*
X42343079Y-83886232D01*
X42337855Y-83934819D01*
X42337854Y-83934831D01*
X42337500Y-83938127D01*
X42337500Y-83941448D01*
X42337500Y-83941449D01*
X42337500Y-85730560D01*
X42337500Y-85730578D01*
X42337501Y-85733872D01*
X42337853Y-85737150D01*
X42337854Y-85737161D01*
X42343079Y-85785768D01*
X42343080Y-85785773D01*
X42343909Y-85793483D01*
X42346619Y-85800749D01*
X42346620Y-85800753D01*
X42372695Y-85870663D01*
X42394204Y-85928331D01*
X42399518Y-85935430D01*
X42399519Y-85935431D01*
X42474240Y-86035246D01*
X42480454Y-86043546D01*
X42595669Y-86129796D01*
X42685383Y-86163257D01*
X42727082Y-86178810D01*
X42777462Y-86213789D01*
X42804915Y-86268633D01*
X42802726Y-86329926D01*
X42771430Y-86382673D01*
X42649505Y-86504599D01*
X42646402Y-86509029D01*
X42646399Y-86509034D01*
X42517073Y-86693731D01*
X42517068Y-86693738D01*
X42513965Y-86698171D01*
X42511677Y-86703077D01*
X42511675Y-86703081D01*
X42416386Y-86907427D01*
X42416383Y-86907432D01*
X42414097Y-86912337D01*
X42412698Y-86917557D01*
X42412694Y-86917569D01*
X42354337Y-87135365D01*
X42354335Y-87135371D01*
X42352937Y-87140592D01*
X42352465Y-87145977D01*
X42352465Y-87145982D01*
X42338539Y-87305162D01*
X42332341Y-87376000D01*
X42332813Y-87381395D01*
X42348455Y-87560188D01*
X42352937Y-87611408D01*
X42354336Y-87616630D01*
X42354337Y-87616634D01*
X42412694Y-87834430D01*
X42412697Y-87834438D01*
X42414097Y-87839663D01*
X42416385Y-87844570D01*
X42416386Y-87844572D01*
X42511678Y-88048927D01*
X42511681Y-88048933D01*
X42513965Y-88053830D01*
X42517064Y-88058257D01*
X42517066Y-88058259D01*
X42646399Y-88242966D01*
X42646402Y-88242970D01*
X42649505Y-88247401D01*
X42816599Y-88414495D01*
X42821032Y-88417599D01*
X42821038Y-88417604D01*
X43002158Y-88544425D01*
X43041024Y-88588743D01*
X43055035Y-88646000D01*
X43041024Y-88703257D01*
X43002159Y-88747575D01*
X42873667Y-88837546D01*
X42816599Y-88877505D01*
X42812775Y-88881328D01*
X42812769Y-88881334D01*
X42653334Y-89040769D01*
X42653328Y-89040775D01*
X42649505Y-89044599D01*
X42646402Y-89049029D01*
X42646399Y-89049034D01*
X42517073Y-89233731D01*
X42517068Y-89233738D01*
X42513965Y-89238171D01*
X42511677Y-89243077D01*
X42511675Y-89243081D01*
X42416386Y-89447427D01*
X42416383Y-89447432D01*
X42414097Y-89452337D01*
X42412698Y-89457557D01*
X42412694Y-89457569D01*
X42354337Y-89675365D01*
X42354335Y-89675371D01*
X42352937Y-89680592D01*
X42352465Y-89685977D01*
X42352465Y-89685982D01*
X42338335Y-89847485D01*
X42332341Y-89916000D01*
X42332813Y-89921395D01*
X42350660Y-90125389D01*
X42352937Y-90151408D01*
X42354336Y-90156630D01*
X42354337Y-90156634D01*
X42412694Y-90374430D01*
X42412697Y-90374438D01*
X42414097Y-90379663D01*
X42416385Y-90384570D01*
X42416386Y-90384572D01*
X42511678Y-90588927D01*
X42511681Y-90588933D01*
X42513965Y-90593830D01*
X42517064Y-90598257D01*
X42517066Y-90598259D01*
X42646399Y-90782966D01*
X42646402Y-90782970D01*
X42649505Y-90787401D01*
X42816599Y-90954495D01*
X42821032Y-90957599D01*
X42821038Y-90957604D01*
X43002158Y-91084425D01*
X43041024Y-91128743D01*
X43055035Y-91186000D01*
X43041024Y-91243257D01*
X43002159Y-91287575D01*
X42821041Y-91414395D01*
X42816599Y-91417505D01*
X42812775Y-91421328D01*
X42812769Y-91421334D01*
X42653334Y-91580769D01*
X42653328Y-91580775D01*
X42649505Y-91584599D01*
X42646402Y-91589029D01*
X42646399Y-91589034D01*
X42517073Y-91773731D01*
X42517068Y-91773738D01*
X42513965Y-91778171D01*
X42511677Y-91783077D01*
X42511675Y-91783081D01*
X42416386Y-91987427D01*
X42416383Y-91987432D01*
X42414097Y-91992337D01*
X42412698Y-91997557D01*
X42412694Y-91997569D01*
X42354337Y-92215365D01*
X42354335Y-92215371D01*
X42352937Y-92220592D01*
X42352465Y-92225977D01*
X42352465Y-92225982D01*
X42338136Y-92389768D01*
X42332341Y-92456000D01*
X42332813Y-92461395D01*
X42352465Y-92686017D01*
X42352465Y-92686020D01*
X42352937Y-92691408D01*
X42354336Y-92696630D01*
X42354337Y-92696634D01*
X42412694Y-92914430D01*
X42412697Y-92914438D01*
X42414097Y-92919663D01*
X42416385Y-92924570D01*
X42416386Y-92924572D01*
X42511678Y-93128927D01*
X42511681Y-93128933D01*
X42513965Y-93133830D01*
X42517064Y-93138257D01*
X42517066Y-93138259D01*
X42646399Y-93322966D01*
X42646402Y-93322970D01*
X42649505Y-93327401D01*
X42816599Y-93494495D01*
X42821032Y-93497599D01*
X42821038Y-93497604D01*
X43002158Y-93624425D01*
X43041024Y-93668743D01*
X43055035Y-93726000D01*
X43041024Y-93783257D01*
X43002159Y-93827575D01*
X42821041Y-93954395D01*
X42816599Y-93957505D01*
X42812775Y-93961328D01*
X42812769Y-93961334D01*
X42653334Y-94120769D01*
X42653328Y-94120775D01*
X42649505Y-94124599D01*
X42646402Y-94129029D01*
X42646399Y-94129034D01*
X42517073Y-94313731D01*
X42517068Y-94313738D01*
X42513965Y-94318171D01*
X42511677Y-94323077D01*
X42511675Y-94323081D01*
X42416386Y-94527427D01*
X42416383Y-94527432D01*
X42414097Y-94532337D01*
X42412698Y-94537557D01*
X42412694Y-94537569D01*
X42354337Y-94755365D01*
X42354335Y-94755371D01*
X42352937Y-94760592D01*
X42352465Y-94765977D01*
X42352465Y-94765982D01*
X42341586Y-94890326D01*
X42332341Y-94996000D01*
X42332813Y-95001395D01*
X42345451Y-95145851D01*
X42352937Y-95231408D01*
X42354336Y-95236630D01*
X42354337Y-95236634D01*
X42412694Y-95454430D01*
X42412697Y-95454438D01*
X42414097Y-95459663D01*
X42416385Y-95464570D01*
X42416386Y-95464572D01*
X42511678Y-95668927D01*
X42511681Y-95668933D01*
X42513965Y-95673830D01*
X42517064Y-95678257D01*
X42517066Y-95678259D01*
X42646399Y-95862966D01*
X42646402Y-95862970D01*
X42649505Y-95867401D01*
X42816599Y-96034495D01*
X42821032Y-96037599D01*
X42821038Y-96037604D01*
X43002158Y-96164425D01*
X43041024Y-96208743D01*
X43055035Y-96266000D01*
X43041024Y-96323257D01*
X43002159Y-96367575D01*
X42821041Y-96494395D01*
X42816599Y-96497505D01*
X42812775Y-96501328D01*
X42812769Y-96501334D01*
X42653334Y-96660769D01*
X42653328Y-96660775D01*
X42649505Y-96664599D01*
X42646402Y-96669029D01*
X42646399Y-96669034D01*
X42517073Y-96853731D01*
X42517068Y-96853738D01*
X42513965Y-96858171D01*
X42511678Y-96863073D01*
X42511674Y-96863082D01*
X42462542Y-96968446D01*
X42424120Y-97015569D01*
X42367917Y-97038763D01*
X42307445Y-97032452D01*
X42257242Y-96998152D01*
X42229379Y-96944112D01*
X42214896Y-96881795D01*
X42200374Y-96819311D01*
X42109075Y-96543796D01*
X42070937Y-96428705D01*
X42070935Y-96428699D01*
X42070046Y-96426017D01*
X41904278Y-96046299D01*
X41704461Y-95683341D01*
X41472271Y-95340190D01*
X41209656Y-95019723D01*
X41012164Y-94819341D01*
X40920810Y-94726650D01*
X40920808Y-94726648D01*
X40918820Y-94724631D01*
X40602203Y-94457389D01*
X40507319Y-94391157D01*
X40264784Y-94221860D01*
X40264780Y-94221857D01*
X40262460Y-94220238D01*
X40260003Y-94218838D01*
X40259996Y-94218834D01*
X39904918Y-94016579D01*
X39904914Y-94016577D01*
X39902444Y-94015170D01*
X39899856Y-94013995D01*
X39899846Y-94013990D01*
X39527768Y-93845082D01*
X39527767Y-93845081D01*
X39525173Y-93843904D01*
X39522491Y-93842971D01*
X39522484Y-93842969D01*
X39136484Y-93708805D01*
X39136483Y-93708804D01*
X39133814Y-93707877D01*
X39123478Y-93705316D01*
X38734416Y-93608915D01*
X38734413Y-93608914D01*
X38731651Y-93608230D01*
X38728843Y-93607802D01*
X38728833Y-93607800D01*
X38324874Y-93546229D01*
X38324862Y-93546227D01*
X38322056Y-93545800D01*
X38319225Y-93545631D01*
X38319216Y-93545630D01*
X37911294Y-93521278D01*
X37911278Y-93521277D01*
X37908468Y-93521110D01*
X37905648Y-93521200D01*
X37905628Y-93521200D01*
X37497209Y-93534276D01*
X37497195Y-93534277D01*
X37494355Y-93534368D01*
X37491549Y-93534716D01*
X37491532Y-93534718D01*
X37086006Y-93585112D01*
X37085996Y-93585113D01*
X37083193Y-93585462D01*
X37080420Y-93586068D01*
X37080416Y-93586069D01*
X36681205Y-93673357D01*
X36681200Y-93673358D01*
X36678430Y-93673964D01*
X36675732Y-93674818D01*
X36675732Y-93674819D01*
X36594594Y-93700532D01*
X36541346Y-93705316D01*
X36491032Y-93687236D01*
X36453007Y-93649655D01*
X36434338Y-93599557D01*
X36391523Y-93294449D01*
X36390845Y-93288615D01*
X36315959Y-92473875D01*
X36315563Y-92468040D01*
X36279661Y-91650658D01*
X36279544Y-91644759D01*
X36281541Y-91128306D01*
X36932328Y-91128306D01*
X36932551Y-91133560D01*
X36932551Y-91133565D01*
X36939081Y-91287269D01*
X36942114Y-91358668D01*
X36943221Y-91363809D01*
X36943223Y-91363817D01*
X36966624Y-91472397D01*
X36990690Y-91584062D01*
X36992652Y-91588945D01*
X36992654Y-91588951D01*
X37038796Y-91703780D01*
X37076659Y-91798006D01*
X37079422Y-91802494D01*
X37079424Y-91802497D01*
X37194786Y-91989857D01*
X37194791Y-91989863D01*
X37197549Y-91994343D01*
X37349880Y-92167425D01*
X37529272Y-92312274D01*
X37667483Y-92389483D01*
X37687951Y-92400917D01*
X37730563Y-92424721D01*
X37947962Y-92501533D01*
X38175215Y-92540500D01*
X38345404Y-92540500D01*
X38348035Y-92540500D01*
X38520239Y-92525843D01*
X38743369Y-92467745D01*
X38953471Y-92372773D01*
X39144500Y-92243659D01*
X39310962Y-92084119D01*
X39448066Y-91898742D01*
X39551870Y-91692860D01*
X39619386Y-91472397D01*
X39648672Y-91243694D01*
X39638886Y-91013332D01*
X39590310Y-90787938D01*
X39504341Y-90573994D01*
X39472819Y-90522800D01*
X39386213Y-90382142D01*
X39386210Y-90382138D01*
X39383451Y-90377657D01*
X39231120Y-90204575D01*
X39051728Y-90059726D01*
X39015833Y-90039674D01*
X38855037Y-89949848D01*
X38855030Y-89949845D01*
X38850437Y-89947279D01*
X38841226Y-89944024D01*
X38638007Y-89872222D01*
X38637999Y-89872220D01*
X38633038Y-89870467D01*
X38627847Y-89869577D01*
X38627840Y-89869575D01*
X38410978Y-89832390D01*
X38410972Y-89832389D01*
X38405785Y-89831500D01*
X38232965Y-89831500D01*
X38230349Y-89831722D01*
X38230340Y-89831723D01*
X38066014Y-89845709D01*
X38066003Y-89845710D01*
X38060761Y-89846157D01*
X38055662Y-89847484D01*
X38055660Y-89847485D01*
X37842726Y-89902928D01*
X37842721Y-89902929D01*
X37837631Y-89904255D01*
X37832838Y-89906421D01*
X37832831Y-89906424D01*
X37632331Y-89997055D01*
X37632318Y-89997062D01*
X37627529Y-89999227D01*
X37623167Y-90002175D01*
X37623162Y-90002178D01*
X37440867Y-90125389D01*
X37440863Y-90125391D01*
X37436500Y-90128341D01*
X37432700Y-90131982D01*
X37432695Y-90131987D01*
X37273841Y-90284235D01*
X37273834Y-90284242D01*
X37270038Y-90287881D01*
X37266910Y-90292110D01*
X37266905Y-90292116D01*
X37136067Y-90469020D01*
X37136060Y-90469031D01*
X37132934Y-90473258D01*
X37130562Y-90477961D01*
X37130561Y-90477964D01*
X37035919Y-90665674D01*
X37029130Y-90679140D01*
X37027589Y-90684170D01*
X37027588Y-90684174D01*
X36963155Y-90894568D01*
X36963152Y-90894578D01*
X36961614Y-90899603D01*
X36960945Y-90904821D01*
X36960945Y-90904825D01*
X36932996Y-91123088D01*
X36932328Y-91128306D01*
X36281541Y-91128306D01*
X36282707Y-90826655D01*
X36282870Y-90820780D01*
X36325092Y-90003713D01*
X36325538Y-89997827D01*
X36327036Y-89982806D01*
X36406719Y-89183735D01*
X36407438Y-89177927D01*
X36527401Y-88368592D01*
X36528396Y-88362827D01*
X36686860Y-87560159D01*
X36688139Y-87554408D01*
X36884743Y-86760231D01*
X36886283Y-86754588D01*
X37120580Y-85970699D01*
X37122407Y-85965081D01*
X37393853Y-85193300D01*
X37395946Y-85187778D01*
X37407897Y-85158367D01*
X37691674Y-84460000D01*
X38585841Y-84460000D01*
X38606437Y-84695408D01*
X38607836Y-84700630D01*
X38607837Y-84700634D01*
X38666194Y-84918430D01*
X38666197Y-84918438D01*
X38667597Y-84923663D01*
X38669885Y-84928570D01*
X38669886Y-84928572D01*
X38765178Y-85132927D01*
X38765181Y-85132933D01*
X38767465Y-85137830D01*
X38770564Y-85142257D01*
X38770566Y-85142259D01*
X38899899Y-85326966D01*
X38899902Y-85326970D01*
X38903005Y-85331401D01*
X38906835Y-85335231D01*
X38906836Y-85335232D01*
X39024930Y-85453326D01*
X39056226Y-85506072D01*
X39058415Y-85567365D01*
X39030962Y-85622210D01*
X38980583Y-85657189D01*
X38887407Y-85691942D01*
X38849169Y-85706204D01*
X38842072Y-85711516D01*
X38842068Y-85711519D01*
X38741050Y-85787141D01*
X38741046Y-85787144D01*
X38733954Y-85792454D01*
X38728644Y-85799546D01*
X38728641Y-85799550D01*
X38653019Y-85900568D01*
X38653016Y-85900572D01*
X38647704Y-85907669D01*
X38644604Y-85915978D01*
X38644604Y-85915980D01*
X38600120Y-86035247D01*
X38600119Y-86035250D01*
X38597409Y-86042517D01*
X38596579Y-86050227D01*
X38596579Y-86050232D01*
X38591355Y-86098819D01*
X38591354Y-86098831D01*
X38591000Y-86102127D01*
X38591000Y-86105448D01*
X38591000Y-86105449D01*
X38591000Y-87894560D01*
X38591000Y-87894578D01*
X38591001Y-87897872D01*
X38591353Y-87901150D01*
X38591354Y-87901161D01*
X38596579Y-87949768D01*
X38596580Y-87949773D01*
X38597409Y-87957483D01*
X38600119Y-87964749D01*
X38600120Y-87964753D01*
X38625062Y-88031625D01*
X38647704Y-88092331D01*
X38733954Y-88207546D01*
X38849169Y-88293796D01*
X38984017Y-88344091D01*
X39043627Y-88350500D01*
X40839372Y-88350499D01*
X40898983Y-88344091D01*
X41033831Y-88293796D01*
X41149046Y-88207546D01*
X41235296Y-88092331D01*
X41285591Y-87957483D01*
X41292000Y-87897873D01*
X41291999Y-86102128D01*
X41285591Y-86042517D01*
X41235296Y-85907669D01*
X41149046Y-85792454D01*
X41140113Y-85785767D01*
X41040931Y-85711519D01*
X41040930Y-85711518D01*
X41033831Y-85706204D01*
X40959218Y-85678375D01*
X40902416Y-85657189D01*
X40852037Y-85622210D01*
X40824584Y-85567365D01*
X40826773Y-85506072D01*
X40858066Y-85453329D01*
X40979995Y-85331401D01*
X41115535Y-85137830D01*
X41215403Y-84923663D01*
X41276563Y-84695408D01*
X41297159Y-84460000D01*
X41276563Y-84224592D01*
X41215403Y-83996337D01*
X41115535Y-83782171D01*
X40979995Y-83588599D01*
X40812901Y-83421505D01*
X40808470Y-83418402D01*
X40808466Y-83418399D01*
X40623759Y-83289066D01*
X40623757Y-83289064D01*
X40619330Y-83285965D01*
X40614433Y-83283681D01*
X40614427Y-83283678D01*
X40410072Y-83188386D01*
X40410070Y-83188385D01*
X40405163Y-83186097D01*
X40399938Y-83184697D01*
X40399930Y-83184694D01*
X40182134Y-83126337D01*
X40182130Y-83126336D01*
X40176908Y-83124937D01*
X40171520Y-83124465D01*
X40171517Y-83124465D01*
X39946895Y-83104813D01*
X39941500Y-83104341D01*
X39936105Y-83104813D01*
X39711482Y-83124465D01*
X39711477Y-83124465D01*
X39706092Y-83124937D01*
X39700871Y-83126335D01*
X39700865Y-83126337D01*
X39483069Y-83184694D01*
X39483057Y-83184698D01*
X39477837Y-83186097D01*
X39472932Y-83188383D01*
X39472927Y-83188386D01*
X39268581Y-83283675D01*
X39268577Y-83283677D01*
X39263671Y-83285965D01*
X39259238Y-83289068D01*
X39259231Y-83289073D01*
X39074534Y-83418399D01*
X39074529Y-83418402D01*
X39070099Y-83421505D01*
X39066275Y-83425328D01*
X39066269Y-83425334D01*
X38906834Y-83584769D01*
X38906828Y-83584775D01*
X38903005Y-83588599D01*
X38899902Y-83593029D01*
X38899899Y-83593034D01*
X38770573Y-83777731D01*
X38770568Y-83777738D01*
X38767465Y-83782171D01*
X38765177Y-83787077D01*
X38765175Y-83787081D01*
X38669886Y-83991427D01*
X38669883Y-83991432D01*
X38667597Y-83996337D01*
X38666198Y-84001557D01*
X38666194Y-84001569D01*
X38607837Y-84219365D01*
X38607835Y-84219371D01*
X38606437Y-84224592D01*
X38605965Y-84229977D01*
X38605965Y-84229982D01*
X38589734Y-84415500D01*
X38585841Y-84460000D01*
X37691674Y-84460000D01*
X37703939Y-84429815D01*
X37706266Y-84424459D01*
X38050092Y-83682073D01*
X38052702Y-83676774D01*
X38431590Y-82951630D01*
X38434407Y-82946539D01*
X38847504Y-82240281D01*
X38850569Y-82235317D01*
X39296892Y-81549621D01*
X39300239Y-81544739D01*
X39379259Y-81435162D01*
X39778773Y-80881156D01*
X39782327Y-80876469D01*
X40291992Y-80236498D01*
X40295765Y-80231986D01*
X40603304Y-79881551D01*
X42233688Y-79881551D01*
X42234056Y-79892780D01*
X42286168Y-80087263D01*
X42289856Y-80097397D01*
X42385113Y-80301676D01*
X42390501Y-80311008D01*
X42519784Y-80495643D01*
X42526721Y-80503909D01*
X42686090Y-80663278D01*
X42694356Y-80670215D01*
X42878991Y-80799498D01*
X42888323Y-80804886D01*
X43092602Y-80900143D01*
X43102736Y-80903831D01*
X43297219Y-80955943D01*
X43308448Y-80956311D01*
X43311000Y-80945369D01*
X43311000Y-79895326D01*
X43307549Y-79882450D01*
X43294674Y-79879000D01*
X42244631Y-79879000D01*
X42233688Y-79881551D01*
X40603304Y-79881551D01*
X40835441Y-79617036D01*
X40839400Y-79612736D01*
X41067633Y-79376448D01*
X42233688Y-79376448D01*
X42244631Y-79379000D01*
X43294674Y-79379000D01*
X43307549Y-79375549D01*
X43311000Y-79362674D01*
X43311000Y-78312631D01*
X43308448Y-78301688D01*
X43297219Y-78302056D01*
X43102736Y-78354168D01*
X43092602Y-78357856D01*
X42888332Y-78453110D01*
X42878982Y-78458508D01*
X42694357Y-78587784D01*
X42686092Y-78594719D01*
X42526719Y-78754092D01*
X42519784Y-78762357D01*
X42390508Y-78946982D01*
X42385110Y-78956332D01*
X42289856Y-79160602D01*
X42286168Y-79170736D01*
X42234056Y-79365219D01*
X42233688Y-79376448D01*
X41067633Y-79376448D01*
X41407806Y-79024269D01*
X41411982Y-79020146D01*
X42007847Y-78459476D01*
X42012218Y-78455556D01*
X42634165Y-77923982D01*
X42638691Y-77920297D01*
X43285336Y-77419000D01*
X43290047Y-77415526D01*
X43959847Y-76945703D01*
X43964736Y-76942445D01*
X44656210Y-76505132D01*
X44661235Y-76502120D01*
X45372795Y-76098323D01*
X45378006Y-76095529D01*
X46107990Y-75726187D01*
X46113326Y-75723646D01*
X46676917Y-75471527D01*
X46744207Y-75461841D01*
X46806491Y-75489090D01*
G37*
%TD.AperFunction*%
%TA.AperFunction,Conductor*%
G36*
X50224718Y-96436988D02*
G01*
X50258651Y-96489405D01*
X50268273Y-96518443D01*
X50274340Y-96531452D01*
X50357260Y-96665886D01*
X50366165Y-96677148D01*
X50374981Y-96685964D01*
X50407074Y-96741549D01*
X50407076Y-96805733D01*
X50374987Y-96861320D01*
X50365772Y-96870536D01*
X50365764Y-96870545D01*
X50360660Y-96875650D01*
X50356872Y-96881790D01*
X50356869Y-96881795D01*
X50285100Y-96998152D01*
X50270092Y-97022484D01*
X50267822Y-97029332D01*
X50267820Y-97029338D01*
X50243443Y-97102904D01*
X50215826Y-97186247D01*
X50215138Y-97192977D01*
X50215137Y-97192984D01*
X50205819Y-97284191D01*
X50205818Y-97284209D01*
X50205500Y-97287323D01*
X50205500Y-97290470D01*
X50205500Y-97290471D01*
X50205500Y-97982526D01*
X50205500Y-97982545D01*
X50205501Y-97985676D01*
X50205820Y-97988808D01*
X50205821Y-97988809D01*
X50215137Y-98080017D01*
X50215138Y-98080025D01*
X50215826Y-98086753D01*
X50217954Y-98093175D01*
X50217955Y-98093179D01*
X50256310Y-98208927D01*
X50270092Y-98250516D01*
X50360660Y-98397350D01*
X50482650Y-98519340D01*
X50488801Y-98523134D01*
X50519997Y-98542376D01*
X50563178Y-98587482D01*
X50578900Y-98647914D01*
X50578900Y-101934240D01*
X50569461Y-101981693D01*
X50542581Y-102021921D01*
X49493922Y-103070579D01*
X49444559Y-103100829D01*
X49386843Y-103105371D01*
X49333356Y-103083216D01*
X49295756Y-103039193D01*
X49285556Y-102996707D01*
X49283145Y-102997000D01*
X49262640Y-102828128D01*
X49209752Y-102688672D01*
X49201795Y-102639707D01*
X49213666Y-102591542D01*
X49243462Y-102551891D01*
X49359683Y-102448929D01*
X49456318Y-102308930D01*
X49516640Y-102149872D01*
X49537145Y-101981000D01*
X49516640Y-101812128D01*
X49456318Y-101653070D01*
X49359683Y-101513071D01*
X49275863Y-101438813D01*
X49238987Y-101380499D01*
X49238987Y-101311501D01*
X49275863Y-101253186D01*
X49359683Y-101178929D01*
X49456318Y-101038930D01*
X49516640Y-100879872D01*
X49537145Y-100711000D01*
X49516640Y-100542128D01*
X49505252Y-100512101D01*
X49466720Y-100410499D01*
X49456318Y-100383070D01*
X49380643Y-100273437D01*
X49361201Y-100227803D01*
X49361201Y-100178197D01*
X49380643Y-100132562D01*
X49456318Y-100022930D01*
X49516640Y-99863872D01*
X49537145Y-99695000D01*
X49516640Y-99526128D01*
X49512532Y-99515297D01*
X49458979Y-99374087D01*
X49456318Y-99367070D01*
X49359683Y-99227071D01*
X49232352Y-99114266D01*
X49184877Y-99089349D01*
X49088366Y-99038695D01*
X49088362Y-99038693D01*
X49081725Y-99035210D01*
X49074447Y-99033416D01*
X49074444Y-99033415D01*
X48923837Y-98996294D01*
X48923832Y-98996293D01*
X48916556Y-98994500D01*
X48746444Y-98994500D01*
X48739162Y-98996294D01*
X48731715Y-98997199D01*
X48731482Y-98995286D01*
X48678890Y-98994353D01*
X48624234Y-98961865D01*
X48592865Y-98906559D01*
X48593015Y-98848734D01*
X48592602Y-98848680D01*
X48592602Y-98848679D01*
X48598221Y-98806000D01*
X48608100Y-98730960D01*
X48608100Y-98730955D01*
X48613294Y-98691500D01*
X48609647Y-98663798D01*
X48612506Y-98616683D01*
X48632765Y-98574049D01*
X48667484Y-98542078D01*
X48704350Y-98519340D01*
X48826340Y-98397350D01*
X48916908Y-98250516D01*
X48971174Y-98086753D01*
X48981500Y-97985677D01*
X48981499Y-97563858D01*
X48990938Y-97516406D01*
X49017815Y-97476181D01*
X50053269Y-96440727D01*
X50107113Y-96409116D01*
X50169541Y-96407753D01*
X50224718Y-96436988D01*
G37*
%TD.AperFunction*%
%TA.AperFunction,Conductor*%
G36*
X54098540Y-74057419D02*
G01*
X54104399Y-74057613D01*
X54921224Y-74104205D01*
X54927118Y-74104683D01*
X55740716Y-74190213D01*
X55746587Y-74190971D01*
X56555234Y-74315257D01*
X56561010Y-74316287D01*
X57362820Y-74479042D01*
X57368566Y-74480352D01*
X58161635Y-74681190D01*
X58167326Y-74682777D01*
X58949930Y-74921258D01*
X58955523Y-74923109D01*
X59725842Y-75198680D01*
X59731340Y-75200796D01*
X60487648Y-75512840D01*
X60493028Y-75515212D01*
X61233574Y-75863011D01*
X61238835Y-75865637D01*
X61832456Y-76179859D01*
X61961891Y-76248373D01*
X61967058Y-76251267D01*
X62671024Y-76668094D01*
X62676026Y-76671219D01*
X63175297Y-77000012D01*
X63359314Y-77121196D01*
X63364180Y-77124571D01*
X63378403Y-77134944D01*
X64025158Y-77606624D01*
X64029832Y-77610206D01*
X64132028Y-77692491D01*
X64667072Y-78123292D01*
X64671595Y-78127115D01*
X65283603Y-78670031D01*
X65287938Y-78674066D01*
X65873320Y-79245576D01*
X65877455Y-79249811D01*
X66209432Y-79606431D01*
X66434877Y-79848611D01*
X66438807Y-79853040D01*
X66518108Y-79946834D01*
X66966504Y-80477180D01*
X66967012Y-80477780D01*
X66970721Y-80482386D01*
X67089647Y-80637500D01*
X67468496Y-81131632D01*
X67471986Y-81136416D01*
X67594071Y-81312461D01*
X67615467Y-81369891D01*
X67606745Y-81430555D01*
X67570036Y-81479631D01*
X67514307Y-81505133D01*
X67453171Y-81500830D01*
X67309225Y-81453131D01*
X67309224Y-81453130D01*
X67302797Y-81451001D01*
X67296064Y-81450313D01*
X67296059Y-81450312D01*
X67203140Y-81440819D01*
X67203123Y-81440818D01*
X67200009Y-81440500D01*
X67196860Y-81440500D01*
X66633544Y-81440500D01*
X66586091Y-81431061D01*
X66545863Y-81404181D01*
X63909766Y-78768084D01*
X63904632Y-78762630D01*
X63890281Y-78746431D01*
X63864566Y-78717405D01*
X63814843Y-78683084D01*
X63808814Y-78678648D01*
X63767130Y-78645990D01*
X63767128Y-78645988D01*
X63761225Y-78641364D01*
X63754384Y-78638285D01*
X63754382Y-78638284D01*
X63751895Y-78637165D01*
X63732344Y-78626138D01*
X63730100Y-78624589D01*
X63730094Y-78624585D01*
X63723927Y-78620329D01*
X63716915Y-78617669D01*
X63716914Y-78617669D01*
X63667408Y-78598893D01*
X63660506Y-78596034D01*
X63605390Y-78571230D01*
X63598014Y-78569878D01*
X63598010Y-78569877D01*
X63595334Y-78569387D01*
X63573712Y-78563359D01*
X63571153Y-78562388D01*
X63571148Y-78562386D01*
X63564143Y-78559730D01*
X63556705Y-78558826D01*
X63556702Y-78558826D01*
X63504123Y-78552441D01*
X63496723Y-78551314D01*
X63444683Y-78541778D01*
X63444675Y-78541777D01*
X63437300Y-78540426D01*
X63429819Y-78540878D01*
X63429812Y-78540878D01*
X63376986Y-78544074D01*
X63369500Y-78544300D01*
X61338121Y-78544300D01*
X61279104Y-78529355D01*
X61234313Y-78488122D01*
X61174078Y-78395927D01*
X61171269Y-78391627D01*
X61015308Y-78222208D01*
X60942345Y-78165419D01*
X60837635Y-78083920D01*
X60837634Y-78083919D01*
X60833589Y-78080771D01*
X60759955Y-78040922D01*
X60635573Y-77973609D01*
X60635568Y-77973607D01*
X60631069Y-77971172D01*
X60626228Y-77969510D01*
X60626221Y-77969507D01*
X60418124Y-77898068D01*
X60418123Y-77898067D01*
X60413271Y-77896402D01*
X60408221Y-77895559D01*
X60408212Y-77895557D01*
X60191199Y-77859344D01*
X60191190Y-77859343D01*
X60186137Y-77858500D01*
X60034076Y-77858500D01*
X59968212Y-77839562D01*
X59922467Y-77788532D01*
X59910813Y-77720998D01*
X59936811Y-77657588D01*
X59946606Y-77645200D01*
X60031067Y-77508266D01*
X60037129Y-77495267D01*
X60087875Y-77342125D01*
X60090694Y-77328958D01*
X60100180Y-77236109D01*
X60100500Y-77229832D01*
X60100500Y-76974326D01*
X60097049Y-76961450D01*
X60084174Y-76958000D01*
X59279326Y-76958000D01*
X59266450Y-76961450D01*
X59263000Y-76974326D01*
X59263000Y-77916673D01*
X59266788Y-77930812D01*
X59270041Y-77934065D01*
X59303359Y-77994629D01*
X59299076Y-78063621D01*
X59258523Y-78119599D01*
X59130741Y-78219055D01*
X59130730Y-78219065D01*
X59126692Y-78222208D01*
X59123222Y-78225976D01*
X59123218Y-78225981D01*
X58974200Y-78387857D01*
X58974191Y-78387867D01*
X58970731Y-78391627D01*
X58967935Y-78395906D01*
X58967923Y-78395922D01*
X58904508Y-78492986D01*
X58859717Y-78534219D01*
X58800699Y-78549164D01*
X58741682Y-78534218D01*
X58696891Y-78492985D01*
X58681805Y-78469894D01*
X58673838Y-78462170D01*
X58664457Y-78468094D01*
X57896095Y-79236457D01*
X57889431Y-79248000D01*
X57896095Y-79259542D01*
X58664457Y-80027904D01*
X58673838Y-80033828D01*
X58681803Y-80026106D01*
X58696890Y-80003014D01*
X58741682Y-79961780D01*
X58800699Y-79946834D01*
X58859717Y-79961779D01*
X58904509Y-80003013D01*
X58967925Y-80100080D01*
X58967932Y-80100089D01*
X58970731Y-80104373D01*
X58974196Y-80108137D01*
X58974200Y-80108142D01*
X58974206Y-80108148D01*
X59126692Y-80273792D01*
X59130738Y-80276941D01*
X59130739Y-80276942D01*
X59174507Y-80311008D01*
X59308411Y-80415229D01*
X59510931Y-80524828D01*
X59728729Y-80599598D01*
X59955863Y-80637500D01*
X60181004Y-80637500D01*
X60186137Y-80637500D01*
X60413271Y-80599598D01*
X60631069Y-80524828D01*
X60833589Y-80415229D01*
X61015308Y-80273792D01*
X61171269Y-80104373D01*
X61208974Y-80046661D01*
X61234313Y-80007878D01*
X61279104Y-79966645D01*
X61338121Y-79951700D01*
X63051656Y-79951700D01*
X63099109Y-79961139D01*
X63139337Y-79988019D01*
X63896896Y-80745578D01*
X63930276Y-80806420D01*
X63925737Y-80875669D01*
X63884702Y-80931634D01*
X63820023Y-80956787D01*
X63777983Y-80960465D01*
X63777979Y-80960465D01*
X63772592Y-80960937D01*
X63767371Y-80962335D01*
X63767365Y-80962337D01*
X63549569Y-81020694D01*
X63549557Y-81020698D01*
X63544337Y-81022097D01*
X63539432Y-81024383D01*
X63539427Y-81024386D01*
X63335081Y-81119675D01*
X63335077Y-81119677D01*
X63330171Y-81121965D01*
X63325738Y-81125068D01*
X63325731Y-81125073D01*
X63141034Y-81254399D01*
X63141029Y-81254402D01*
X63136599Y-81257505D01*
X63132775Y-81261328D01*
X63132769Y-81261334D01*
X62973334Y-81420769D01*
X62973328Y-81420775D01*
X62969505Y-81424599D01*
X62966402Y-81429029D01*
X62966399Y-81429034D01*
X62839575Y-81610159D01*
X62795257Y-81649025D01*
X62738000Y-81663036D01*
X62680743Y-81649025D01*
X62636425Y-81610159D01*
X62592302Y-81547145D01*
X62506495Y-81424599D01*
X62339401Y-81257505D01*
X62334970Y-81254402D01*
X62334966Y-81254399D01*
X62150259Y-81125066D01*
X62150257Y-81125064D01*
X62145830Y-81121965D01*
X62140933Y-81119681D01*
X62140927Y-81119678D01*
X61936572Y-81024386D01*
X61936570Y-81024385D01*
X61931663Y-81022097D01*
X61926438Y-81020697D01*
X61926430Y-81020694D01*
X61708634Y-80962337D01*
X61708630Y-80962336D01*
X61703408Y-80960937D01*
X61698020Y-80960465D01*
X61698017Y-80960465D01*
X61473395Y-80940813D01*
X61468000Y-80940341D01*
X61462605Y-80940813D01*
X61237982Y-80960465D01*
X61237977Y-80960465D01*
X61232592Y-80960937D01*
X61227371Y-80962335D01*
X61227365Y-80962337D01*
X61009569Y-81020694D01*
X61009557Y-81020698D01*
X61004337Y-81022097D01*
X60999432Y-81024383D01*
X60999427Y-81024386D01*
X60795081Y-81119675D01*
X60795077Y-81119677D01*
X60790171Y-81121965D01*
X60785738Y-81125068D01*
X60785731Y-81125073D01*
X60601034Y-81254399D01*
X60601029Y-81254402D01*
X60596599Y-81257505D01*
X60592774Y-81261329D01*
X60592775Y-81261329D01*
X60474673Y-81379431D01*
X60421926Y-81410726D01*
X60360633Y-81412915D01*
X60305789Y-81385462D01*
X60270810Y-81335082D01*
X60253317Y-81288181D01*
X60221796Y-81203669D01*
X60135546Y-81088454D01*
X60045030Y-81020694D01*
X60027431Y-81007519D01*
X60027430Y-81007518D01*
X60020331Y-81002204D01*
X59913442Y-80962337D01*
X59892752Y-80954620D01*
X59892750Y-80954619D01*
X59885483Y-80951909D01*
X59877770Y-80951079D01*
X59877767Y-80951079D01*
X59829180Y-80945855D01*
X59829169Y-80945854D01*
X59825873Y-80945500D01*
X59822550Y-80945500D01*
X58033439Y-80945500D01*
X58033420Y-80945500D01*
X58030128Y-80945501D01*
X58026850Y-80945853D01*
X58026838Y-80945854D01*
X57978231Y-80951079D01*
X57978225Y-80951080D01*
X57970517Y-80951909D01*
X57963252Y-80954618D01*
X57963246Y-80954620D01*
X57843980Y-80999104D01*
X57843978Y-80999104D01*
X57835669Y-81002204D01*
X57828572Y-81007516D01*
X57828568Y-81007519D01*
X57727550Y-81083141D01*
X57727546Y-81083144D01*
X57720454Y-81088454D01*
X57715144Y-81095546D01*
X57715141Y-81095550D01*
X57639519Y-81196568D01*
X57639516Y-81196572D01*
X57634204Y-81203669D01*
X57631104Y-81211978D01*
X57631104Y-81211980D01*
X57586620Y-81331247D01*
X57586619Y-81331250D01*
X57583909Y-81338517D01*
X57583079Y-81346227D01*
X57583079Y-81346232D01*
X57577855Y-81394819D01*
X57577854Y-81394831D01*
X57577500Y-81398127D01*
X57577500Y-81401448D01*
X57577500Y-81401449D01*
X57577500Y-83190560D01*
X57577500Y-83190578D01*
X57577501Y-83193872D01*
X57577853Y-83197150D01*
X57577854Y-83197161D01*
X57583079Y-83245768D01*
X57583080Y-83245773D01*
X57583909Y-83253483D01*
X57586619Y-83260749D01*
X57586620Y-83260753D01*
X57615158Y-83337267D01*
X57634204Y-83388331D01*
X57639518Y-83395430D01*
X57639519Y-83395431D01*
X57711742Y-83491909D01*
X57720454Y-83503546D01*
X57835669Y-83589796D01*
X57970517Y-83640091D01*
X58030127Y-83646500D01*
X59825872Y-83646499D01*
X59885483Y-83640091D01*
X60020331Y-83589796D01*
X60135546Y-83503546D01*
X60221796Y-83388331D01*
X60270810Y-83256916D01*
X60305789Y-83206537D01*
X60360634Y-83179084D01*
X60421927Y-83181273D01*
X60474672Y-83212568D01*
X60596599Y-83334495D01*
X60601031Y-83337598D01*
X60601033Y-83337600D01*
X60685013Y-83396403D01*
X60790170Y-83470035D01*
X61004337Y-83569903D01*
X61232592Y-83631063D01*
X61443095Y-83649480D01*
X61507774Y-83674632D01*
X61548810Y-83730598D01*
X61553349Y-83799846D01*
X61519969Y-83860689D01*
X60090879Y-85289781D01*
X60050651Y-85316661D01*
X60003198Y-85326100D01*
X57240000Y-85326100D01*
X57178000Y-85309487D01*
X57132613Y-85264100D01*
X57116000Y-85202100D01*
X57116000Y-85102326D01*
X57112549Y-85089450D01*
X57099674Y-85086000D01*
X55902500Y-85086000D01*
X55840500Y-85069387D01*
X55795113Y-85024000D01*
X55778500Y-84962000D01*
X55778500Y-84569674D01*
X56278500Y-84569674D01*
X56281950Y-84582549D01*
X56294826Y-84586000D01*
X57099673Y-84586000D01*
X57112548Y-84582549D01*
X57115999Y-84569674D01*
X57115999Y-84314171D01*
X57115678Y-84307888D01*
X57106194Y-84215040D01*
X57103376Y-84201877D01*
X57052629Y-84048732D01*
X57046567Y-84035733D01*
X56962109Y-83898805D01*
X56953205Y-83887544D01*
X56846342Y-83780681D01*
X56814248Y-83725094D01*
X56814248Y-83660906D01*
X56846342Y-83605319D01*
X56953205Y-83498455D01*
X56962109Y-83487194D01*
X57046567Y-83350266D01*
X57052629Y-83337267D01*
X57103375Y-83184125D01*
X57106194Y-83170958D01*
X57115680Y-83078109D01*
X57116000Y-83071832D01*
X57116000Y-82816326D01*
X57112549Y-82803450D01*
X57099674Y-82800000D01*
X56294826Y-82800000D01*
X56281950Y-82803450D01*
X56278500Y-82816326D01*
X56278500Y-84569674D01*
X55778500Y-84569674D01*
X55778500Y-82283674D01*
X56278500Y-82283674D01*
X56281950Y-82296549D01*
X56294826Y-82300000D01*
X57099673Y-82300000D01*
X57112548Y-82296549D01*
X57115999Y-82283674D01*
X57115999Y-82028171D01*
X57115678Y-82021888D01*
X57106194Y-81929040D01*
X57103376Y-81915877D01*
X57052629Y-81762732D01*
X57046567Y-81749733D01*
X56962109Y-81612805D01*
X56953205Y-81601544D01*
X56839455Y-81487794D01*
X56828194Y-81478890D01*
X56691266Y-81394432D01*
X56678267Y-81388370D01*
X56525125Y-81337624D01*
X56511958Y-81334805D01*
X56419109Y-81325319D01*
X56412832Y-81325000D01*
X56294826Y-81325000D01*
X56281950Y-81328450D01*
X56278500Y-81341326D01*
X56278500Y-82283674D01*
X55778500Y-82283674D01*
X55778500Y-81341327D01*
X55774711Y-81327187D01*
X55756419Y-81308895D01*
X55729539Y-81268667D01*
X55720100Y-81221214D01*
X55720100Y-80501915D01*
X55732700Y-80447455D01*
X55767938Y-80404061D01*
X55783239Y-80392152D01*
X56745845Y-80392152D01*
X56753951Y-80403341D01*
X56764643Y-80411662D01*
X56773190Y-80417246D01*
X56966628Y-80521930D01*
X56975980Y-80526032D01*
X57183998Y-80597444D01*
X57193910Y-80599955D01*
X57410842Y-80636155D01*
X57421037Y-80637000D01*
X57640963Y-80637000D01*
X57651157Y-80636155D01*
X57868089Y-80599955D01*
X57878001Y-80597444D01*
X58086019Y-80526032D01*
X58095371Y-80521930D01*
X58288805Y-80417248D01*
X58297360Y-80411659D01*
X58308045Y-80403342D01*
X58316152Y-80392151D01*
X58309493Y-80380046D01*
X57542542Y-79613095D01*
X57531000Y-79606431D01*
X57519457Y-79613095D01*
X56752505Y-80380046D01*
X56745845Y-80392152D01*
X55783239Y-80392152D01*
X55879501Y-80317228D01*
X55935308Y-80273792D01*
X56091269Y-80104373D01*
X56120482Y-80059660D01*
X56157490Y-80003014D01*
X56202281Y-79961780D01*
X56261299Y-79946835D01*
X56320317Y-79961780D01*
X56365108Y-80003014D01*
X56380193Y-80026104D01*
X56388160Y-80033828D01*
X56397540Y-80027905D01*
X57531000Y-78894447D01*
X58309492Y-78115954D01*
X58316152Y-78103845D01*
X58303604Y-78086525D01*
X58280963Y-78029040D01*
X58288872Y-77967766D01*
X58325366Y-77917913D01*
X58381386Y-77891858D01*
X58443025Y-77896069D01*
X58516377Y-77920376D01*
X58529541Y-77923194D01*
X58622390Y-77932680D01*
X58628668Y-77933000D01*
X58746674Y-77933000D01*
X58759549Y-77929549D01*
X58763000Y-77916674D01*
X58763000Y-76441674D01*
X59263000Y-76441674D01*
X59266450Y-76454549D01*
X59279326Y-76458000D01*
X60084173Y-76458000D01*
X60097048Y-76454549D01*
X60100499Y-76441674D01*
X60100499Y-76186171D01*
X60100178Y-76179888D01*
X60090694Y-76087040D01*
X60087876Y-76073877D01*
X60037129Y-75920732D01*
X60031067Y-75907733D01*
X59946609Y-75770805D01*
X59937705Y-75759544D01*
X59823955Y-75645794D01*
X59812694Y-75636890D01*
X59675766Y-75552432D01*
X59662767Y-75546370D01*
X59509625Y-75495624D01*
X59496458Y-75492805D01*
X59403609Y-75483319D01*
X59397332Y-75483000D01*
X59279326Y-75483000D01*
X59266450Y-75486450D01*
X59263000Y-75499326D01*
X59263000Y-76441674D01*
X58763000Y-76441674D01*
X58763000Y-75499327D01*
X58759549Y-75486451D01*
X58746674Y-75483001D01*
X58628671Y-75483001D01*
X58622388Y-75483321D01*
X58529540Y-75492805D01*
X58516377Y-75495623D01*
X58363232Y-75546370D01*
X58350233Y-75552432D01*
X58213305Y-75636890D01*
X58202044Y-75645794D01*
X58088294Y-75759544D01*
X58074910Y-75776471D01*
X58073386Y-75775266D01*
X58036212Y-75810844D01*
X57975781Y-75826559D01*
X57915353Y-75810832D01*
X57877936Y-75775008D01*
X57876484Y-75776157D01*
X57872002Y-75770488D01*
X57868212Y-75764344D01*
X57744156Y-75640288D01*
X57738015Y-75636500D01*
X57738011Y-75636497D01*
X57600980Y-75551977D01*
X57594834Y-75548186D01*
X57522832Y-75524327D01*
X57434725Y-75495131D01*
X57434724Y-75495130D01*
X57428297Y-75493001D01*
X57421564Y-75492313D01*
X57421559Y-75492312D01*
X57328640Y-75482819D01*
X57328623Y-75482818D01*
X57325509Y-75482500D01*
X57322360Y-75482500D01*
X56553641Y-75482500D01*
X56553621Y-75482500D01*
X56550492Y-75482501D01*
X56547360Y-75482820D01*
X56547358Y-75482821D01*
X56454438Y-75492312D01*
X56454428Y-75492313D01*
X56447703Y-75493001D01*
X56441281Y-75495128D01*
X56441276Y-75495130D01*
X56288021Y-75545914D01*
X56288017Y-75545915D01*
X56281166Y-75548186D01*
X56275022Y-75551975D01*
X56275019Y-75551977D01*
X56137988Y-75636497D01*
X56137980Y-75636503D01*
X56131844Y-75640288D01*
X56126742Y-75645389D01*
X56126738Y-75645393D01*
X56012893Y-75759238D01*
X56012889Y-75759242D01*
X56007788Y-75764344D01*
X56004003Y-75770480D01*
X56003997Y-75770488D01*
X55928084Y-75893565D01*
X55915686Y-75913666D01*
X55913415Y-75920517D01*
X55913414Y-75920521D01*
X55862631Y-76073774D01*
X55860501Y-76080203D01*
X55859813Y-76086933D01*
X55859812Y-76086940D01*
X55850319Y-76179859D01*
X55850318Y-76179877D01*
X55850000Y-76182991D01*
X55850000Y-76186138D01*
X55850000Y-76186139D01*
X55850000Y-77229859D01*
X55850000Y-77229878D01*
X55850001Y-77233008D01*
X55850320Y-77236140D01*
X55850321Y-77236141D01*
X55855588Y-77287702D01*
X55849057Y-77341866D01*
X55819911Y-77387984D01*
X55359742Y-77848153D01*
X55309892Y-77878560D01*
X55251652Y-77882781D01*
X55111200Y-77859344D01*
X55111189Y-77859343D01*
X55106137Y-77858500D01*
X54875863Y-77858500D01*
X54870810Y-77859343D01*
X54870800Y-77859344D01*
X54653787Y-77895557D01*
X54653775Y-77895559D01*
X54648729Y-77896402D01*
X54643879Y-77898066D01*
X54643875Y-77898068D01*
X54435778Y-77969507D01*
X54435767Y-77969511D01*
X54430931Y-77971172D01*
X54426435Y-77973604D01*
X54426426Y-77973609D01*
X54232919Y-78078331D01*
X54232915Y-78078333D01*
X54228411Y-78080771D01*
X54224371Y-78083915D01*
X54224364Y-78083920D01*
X54050739Y-78219057D01*
X54050731Y-78219064D01*
X54046692Y-78222208D01*
X54043222Y-78225976D01*
X54043218Y-78225981D01*
X53894200Y-78387857D01*
X53894191Y-78387867D01*
X53890731Y-78391627D01*
X53887936Y-78395904D01*
X53887929Y-78395914D01*
X53771380Y-78574308D01*
X53764783Y-78584405D01*
X53762728Y-78589089D01*
X53762723Y-78589099D01*
X53684214Y-78768084D01*
X53672283Y-78795284D01*
X53671025Y-78800249D01*
X53671024Y-78800254D01*
X53617013Y-79013537D01*
X53617011Y-79013546D01*
X53615754Y-79018512D01*
X53615330Y-79023621D01*
X53615329Y-79023631D01*
X53607821Y-79114247D01*
X53596738Y-79248000D01*
X53597162Y-79253117D01*
X53615329Y-79472368D01*
X53615330Y-79472376D01*
X53615754Y-79477488D01*
X53617011Y-79482455D01*
X53617013Y-79482462D01*
X53671024Y-79695745D01*
X53672283Y-79700716D01*
X53674343Y-79705412D01*
X53762723Y-79906900D01*
X53762726Y-79906905D01*
X53764783Y-79911595D01*
X53800749Y-79966645D01*
X53887929Y-80100085D01*
X53887932Y-80100089D01*
X53890731Y-80104373D01*
X53894196Y-80108137D01*
X53894200Y-80108142D01*
X53894206Y-80108148D01*
X54046692Y-80273792D01*
X54050738Y-80276941D01*
X54050739Y-80276942D01*
X54214062Y-80404061D01*
X54249300Y-80447455D01*
X54261900Y-80501915D01*
X54261900Y-81200500D01*
X54245287Y-81262500D01*
X54199900Y-81307887D01*
X54137900Y-81324500D01*
X53774544Y-81324500D01*
X53727091Y-81315061D01*
X53686863Y-81288181D01*
X52348917Y-79950235D01*
X52319771Y-79904116D01*
X52313240Y-79849951D01*
X52319180Y-79791806D01*
X52319500Y-79788677D01*
X52319499Y-79215324D01*
X52309174Y-79114247D01*
X52254908Y-78950484D01*
X52164340Y-78803650D01*
X52042350Y-78681660D01*
X51895516Y-78591092D01*
X51888664Y-78588821D01*
X51888661Y-78588820D01*
X51796088Y-78558144D01*
X51731753Y-78536826D01*
X51725020Y-78536138D01*
X51725015Y-78536137D01*
X51633808Y-78526819D01*
X51633791Y-78526818D01*
X51630677Y-78526500D01*
X51627528Y-78526500D01*
X51035473Y-78526500D01*
X51035453Y-78526500D01*
X51032324Y-78526501D01*
X51029192Y-78526820D01*
X51029190Y-78526821D01*
X50937982Y-78536137D01*
X50937972Y-78536138D01*
X50931247Y-78536826D01*
X50924826Y-78538953D01*
X50924820Y-78538955D01*
X50774338Y-78588820D01*
X50774332Y-78588822D01*
X50767484Y-78591092D01*
X50761340Y-78594881D01*
X50761339Y-78594882D01*
X50626799Y-78677867D01*
X50620650Y-78681660D01*
X50615542Y-78686767D01*
X50615538Y-78686771D01*
X50506681Y-78795629D01*
X50451094Y-78827723D01*
X50386906Y-78827723D01*
X50331319Y-78795629D01*
X50222461Y-78686771D01*
X50222460Y-78686770D01*
X50217350Y-78681660D01*
X50070516Y-78591092D01*
X50063664Y-78588821D01*
X50063661Y-78588820D01*
X49971088Y-78558144D01*
X49906753Y-78536826D01*
X49900020Y-78536138D01*
X49900015Y-78536137D01*
X49808808Y-78526819D01*
X49808791Y-78526818D01*
X49805677Y-78526500D01*
X49802528Y-78526500D01*
X49433860Y-78526500D01*
X49386407Y-78517061D01*
X49346179Y-78490181D01*
X48907980Y-78051982D01*
X48875521Y-77994999D01*
X48876665Y-77929429D01*
X48911093Y-77873613D01*
X48969175Y-77843163D01*
X49034665Y-77846595D01*
X49181874Y-77895375D01*
X49195041Y-77898194D01*
X49287890Y-77907680D01*
X49294168Y-77908000D01*
X49399674Y-77908000D01*
X49412549Y-77904549D01*
X49416000Y-77891674D01*
X49416000Y-77891673D01*
X49916000Y-77891673D01*
X49919450Y-77904548D01*
X49932326Y-77907999D01*
X50037829Y-77907999D01*
X50044111Y-77907678D01*
X50136959Y-77898194D01*
X50150122Y-77895376D01*
X50303267Y-77844629D01*
X50316266Y-77838567D01*
X50453194Y-77754109D01*
X50464455Y-77745205D01*
X50578205Y-77631455D01*
X50587109Y-77620194D01*
X50671567Y-77483266D01*
X50677629Y-77470267D01*
X50728375Y-77317125D01*
X50731194Y-77303958D01*
X50740680Y-77211109D01*
X50741000Y-77204832D01*
X50741000Y-76974326D01*
X50737549Y-76961450D01*
X50724674Y-76958000D01*
X49932326Y-76958000D01*
X49919450Y-76961450D01*
X49916000Y-76974326D01*
X49916000Y-77891673D01*
X49416000Y-77891673D01*
X49416000Y-76441674D01*
X49916000Y-76441674D01*
X49919450Y-76454549D01*
X49932326Y-76458000D01*
X50724673Y-76458000D01*
X50737548Y-76454549D01*
X50740999Y-76441674D01*
X50740999Y-76211171D01*
X50740678Y-76204888D01*
X50731194Y-76112040D01*
X50728376Y-76098877D01*
X50677629Y-75945732D01*
X50671567Y-75932733D01*
X50644164Y-75888306D01*
X52172328Y-75888306D01*
X52172551Y-75893560D01*
X52172551Y-75893565D01*
X52181131Y-76095529D01*
X52182114Y-76118668D01*
X52183221Y-76123809D01*
X52183223Y-76123817D01*
X52206624Y-76232397D01*
X52230690Y-76344062D01*
X52232652Y-76348945D01*
X52232654Y-76348951D01*
X52296827Y-76508651D01*
X52316659Y-76558006D01*
X52319422Y-76562494D01*
X52319424Y-76562497D01*
X52434786Y-76749857D01*
X52434791Y-76749863D01*
X52437549Y-76754343D01*
X52589880Y-76927425D01*
X52769272Y-77072274D01*
X52970563Y-77184721D01*
X53187962Y-77261533D01*
X53415215Y-77300500D01*
X53585404Y-77300500D01*
X53588035Y-77300500D01*
X53760239Y-77285843D01*
X53983369Y-77227745D01*
X54193471Y-77132773D01*
X54384500Y-77003659D01*
X54550962Y-76844119D01*
X54688066Y-76658742D01*
X54791870Y-76452860D01*
X54859386Y-76232397D01*
X54888672Y-76003694D01*
X54878886Y-75773332D01*
X54830310Y-75547938D01*
X54744341Y-75333994D01*
X54661638Y-75199676D01*
X54626213Y-75142142D01*
X54626210Y-75142138D01*
X54623451Y-75137657D01*
X54471120Y-74964575D01*
X54291728Y-74819726D01*
X54188712Y-74762178D01*
X54095037Y-74709848D01*
X54095030Y-74709845D01*
X54090437Y-74707279D01*
X54081226Y-74704024D01*
X53878007Y-74632222D01*
X53877999Y-74632220D01*
X53873038Y-74630467D01*
X53867847Y-74629577D01*
X53867840Y-74629575D01*
X53650978Y-74592390D01*
X53650972Y-74592389D01*
X53645785Y-74591500D01*
X53472965Y-74591500D01*
X53470349Y-74591722D01*
X53470340Y-74591723D01*
X53306014Y-74605709D01*
X53306003Y-74605710D01*
X53300761Y-74606157D01*
X53295662Y-74607484D01*
X53295660Y-74607485D01*
X53082726Y-74662928D01*
X53082721Y-74662929D01*
X53077631Y-74664255D01*
X53072838Y-74666421D01*
X53072831Y-74666424D01*
X52872331Y-74757055D01*
X52872318Y-74757062D01*
X52867529Y-74759227D01*
X52863167Y-74762175D01*
X52863162Y-74762178D01*
X52680867Y-74885389D01*
X52680863Y-74885391D01*
X52676500Y-74888341D01*
X52672700Y-74891982D01*
X52672695Y-74891987D01*
X52513841Y-75044235D01*
X52513834Y-75044242D01*
X52510038Y-75047881D01*
X52506910Y-75052110D01*
X52506905Y-75052116D01*
X52376067Y-75229020D01*
X52376060Y-75229031D01*
X52372934Y-75233258D01*
X52370562Y-75237961D01*
X52370561Y-75237964D01*
X52319677Y-75338886D01*
X52269130Y-75439140D01*
X52267589Y-75444170D01*
X52267588Y-75444174D01*
X52203155Y-75654568D01*
X52203152Y-75654578D01*
X52201614Y-75659603D01*
X52200945Y-75664821D01*
X52200945Y-75664825D01*
X52172996Y-75883088D01*
X52172328Y-75888306D01*
X50644164Y-75888306D01*
X50587109Y-75795805D01*
X50578205Y-75784544D01*
X50464455Y-75670794D01*
X50453194Y-75661890D01*
X50316266Y-75577432D01*
X50303267Y-75571370D01*
X50150125Y-75520624D01*
X50136958Y-75517805D01*
X50044109Y-75508319D01*
X50037832Y-75508000D01*
X49932326Y-75508000D01*
X49919450Y-75511450D01*
X49916000Y-75524326D01*
X49916000Y-76441674D01*
X49416000Y-76441674D01*
X49416000Y-75524327D01*
X49412549Y-75511451D01*
X49399674Y-75508001D01*
X49294171Y-75508001D01*
X49287888Y-75508321D01*
X49195040Y-75517805D01*
X49181877Y-75520623D01*
X49028732Y-75571370D01*
X49015733Y-75577432D01*
X48878805Y-75661890D01*
X48867544Y-75670794D01*
X48753794Y-75784544D01*
X48740410Y-75801471D01*
X48738886Y-75800266D01*
X48701712Y-75835844D01*
X48641281Y-75851559D01*
X48580853Y-75835832D01*
X48543436Y-75800008D01*
X48541984Y-75801157D01*
X48537502Y-75795488D01*
X48533712Y-75789344D01*
X48409656Y-75665288D01*
X48403515Y-75661500D01*
X48403511Y-75661497D01*
X48266480Y-75576977D01*
X48260334Y-75573186D01*
X48199676Y-75553086D01*
X48100225Y-75520131D01*
X48100224Y-75520130D01*
X48093797Y-75518001D01*
X48087064Y-75517313D01*
X48087059Y-75517312D01*
X47994140Y-75507819D01*
X47994123Y-75507818D01*
X47991009Y-75507500D01*
X47987860Y-75507500D01*
X47244141Y-75507500D01*
X47244121Y-75507500D01*
X47240992Y-75507501D01*
X47237875Y-75507819D01*
X47237863Y-75507820D01*
X47221496Y-75509492D01*
X47163292Y-75501440D01*
X47115328Y-75467498D01*
X47088376Y-75415285D01*
X47088487Y-75356526D01*
X47115637Y-75304415D01*
X47163724Y-75270656D01*
X47627503Y-75089235D01*
X47633006Y-75087233D01*
X48408300Y-74825897D01*
X48413917Y-74824152D01*
X49200798Y-74600133D01*
X49206491Y-74598659D01*
X50003173Y-74412462D01*
X50008898Y-74411267D01*
X50813604Y-74263311D01*
X50819377Y-74262393D01*
X51630186Y-74153032D01*
X51636045Y-74152384D01*
X52451116Y-74081862D01*
X52456999Y-74081493D01*
X53274528Y-74049965D01*
X53280426Y-74049879D01*
X54098540Y-74057419D01*
G37*
%TD.AperFunction*%
%TD*%
M02*
