%TF.GenerationSoftware,KiCad,Pcbnew,7.0.8*%
%TF.CreationDate,2023-11-05T13:21:07-08:00*%
%TF.ProjectId,flex_camera_conn,666c6578-5f63-4616-9d65-72615f636f6e,rev?*%
%TF.SameCoordinates,Original*%
%TF.FileFunction,Copper,L2,Bot*%
%TF.FilePolarity,Positive*%
%FSLAX46Y46*%
G04 Gerber Fmt 4.6, Leading zero omitted, Abs format (unit mm)*
G04 Created by KiCad (PCBNEW 7.0.8) date 2023-11-05 13:21:07*
%MOMM*%
%LPD*%
G01*
G04 APERTURE LIST*
%TA.AperFunction,SMDPad,CuDef*%
%ADD10R,0.350000X0.240000*%
%TD*%
%TA.AperFunction,SMDPad,CuDef*%
%ADD11R,0.420000X0.300000*%
%TD*%
%TA.AperFunction,ViaPad*%
%ADD12C,0.400000*%
%TD*%
%TA.AperFunction,Conductor*%
%ADD13C,0.203200*%
%TD*%
%TA.AperFunction,Conductor*%
%ADD14C,0.192019*%
%TD*%
G04 APERTURE END LIST*
D10*
%TO.P,J3,1,1*%
%TO.N,/2b*%
X43814193Y-117976634D03*
%TO.P,J3,2,2*%
%TO.N,/1b*%
X45864193Y-117976634D03*
%TO.P,J3,3,3*%
%TO.N,/4b*%
X43814193Y-117576634D03*
%TO.P,J3,4,4*%
%TO.N,/3b*%
X45864193Y-117576634D03*
%TO.P,J3,5,5*%
%TO.N,/6b*%
X43814193Y-117176634D03*
%TO.P,J3,6,6*%
%TO.N,/5b*%
X45864193Y-117176634D03*
%TO.P,J3,7,7*%
%TO.N,/8b*%
X43814193Y-116776634D03*
%TO.P,J3,8,8*%
%TO.N,/7b*%
X45864193Y-116776634D03*
%TO.P,J3,9,9*%
%TO.N,/10b*%
X43814193Y-116376634D03*
%TO.P,J3,10,10*%
%TO.N,/9b*%
X45864193Y-116376634D03*
%TO.P,J3,11,11*%
%TO.N,/12b*%
X43814193Y-115976634D03*
%TO.P,J3,12,12*%
%TO.N,/11b*%
X45864193Y-115976634D03*
%TO.P,J3,13,13*%
%TO.N,/14b*%
X43814193Y-115576634D03*
%TO.P,J3,14,14*%
%TO.N,/13b*%
X45864193Y-115576634D03*
%TO.P,J3,15,15*%
%TO.N,/16b*%
X43814193Y-115176634D03*
%TO.P,J3,16,16*%
%TO.N,/15b*%
X45864193Y-115176634D03*
%TO.P,J3,17,17*%
%TO.N,/18b*%
X43814193Y-114776634D03*
%TO.P,J3,18,18*%
%TO.N,/17b*%
X45864193Y-114776634D03*
%TO.P,J3,19,19*%
%TO.N,/20b*%
X43814193Y-114376634D03*
%TO.P,J3,20,20*%
%TO.N,/19b*%
X45864193Y-114376634D03*
%TO.P,J3,21,21*%
%TO.N,/22b*%
X43814193Y-113976634D03*
%TO.P,J3,22,22*%
%TO.N,/21b*%
X45864193Y-113976634D03*
%TO.P,J3,23,23*%
%TO.N,/24b*%
X43814193Y-113576634D03*
%TO.P,J3,24,24*%
%TO.N,/23b*%
X45864193Y-113576634D03*
D11*
%TO.P,J3,MP1,MP1*%
%TO.N,GND*%
X44359193Y-118606634D03*
%TO.P,J3,MP2,MP2*%
X44359193Y-112946634D03*
%TO.P,J3,MP3,MP3*%
X45319193Y-112946634D03*
%TO.P,J3,MP4,MP4*%
X45319193Y-118606634D03*
%TD*%
D12*
%TO.N,GND*%
X41097200Y-116332000D03*
%TO.N,/1b*%
X239356052Y-118269918D03*
%TO.N,/2b*%
X43407793Y-118186634D03*
%TO.N,/3b*%
X241632961Y-117759091D03*
%TO.N,/4b*%
X44450000Y-117652800D03*
%TO.N,/5b*%
X239623600Y-117094000D03*
%TO.N,/6b*%
X43331780Y-117346635D03*
%TO.N,/7b*%
X241597003Y-116833532D03*
%TO.N,/8b*%
X44958000Y-116652909D03*
%TO.N,/9b*%
X240436400Y-116332000D03*
%TO.N,/10b*%
X43337431Y-116531965D03*
%TO.N,/11b*%
X241603993Y-116071116D03*
%TO.N,/12b*%
X44423793Y-115934607D03*
%TO.N,/13b*%
X239826800Y-115553891D03*
%TO.N,/14b*%
X43255393Y-115646634D03*
%TO.N,/15b*%
X241602915Y-115263315D03*
%TO.N,/16b*%
X45059600Y-115027309D03*
%TO.N,/17b*%
X240487200Y-114537391D03*
%TO.N,/18b*%
X43255393Y-114884634D03*
%TO.N,/19b*%
X241602088Y-114458107D03*
%TO.N,/20b*%
X44474593Y-114243571D03*
%TO.N,/21b*%
X239825128Y-113789988D03*
%TO.N,/22b*%
X43255393Y-114021034D03*
%TO.N,/23b*%
X241591252Y-113596318D03*
%TO.N,/24b*%
X44982593Y-113398053D03*
%TD*%
D13*
%TO.N,GND*%
X44359193Y-112946634D02*
X45319193Y-112946634D01*
X44359193Y-118606634D02*
X45319193Y-118606634D01*
D14*
%TO.N,/1b*%
X45864193Y-117976634D02*
X238931434Y-117976634D01*
X239224718Y-118269918D02*
X239356052Y-118269918D01*
X238931434Y-117976634D02*
X239224718Y-118269918D01*
%TO.N,/2b*%
X43617793Y-117976634D02*
X43407793Y-118186634D01*
X43814193Y-117976634D02*
X43617793Y-117976634D01*
%TO.N,/3b*%
X46151766Y-117576634D02*
X46177200Y-117551200D01*
X46177200Y-117551200D02*
X241425070Y-117551200D01*
X45864193Y-117576634D02*
X46151766Y-117576634D01*
X241425070Y-117551200D02*
X241632961Y-117759091D01*
%TO.N,/4b*%
X44373834Y-117576634D02*
X44450000Y-117652800D01*
X44220193Y-117576634D02*
X44373834Y-117576634D01*
X43814193Y-117576634D02*
X44220193Y-117576634D01*
%TO.N,/5b*%
X46145366Y-117176634D02*
X46177200Y-117144800D01*
X239572800Y-117144800D02*
X239623600Y-117094000D01*
X45864193Y-117176634D02*
X46145366Y-117176634D01*
X46177200Y-117144800D02*
X239572800Y-117144800D01*
%TO.N,/6b*%
X43814193Y-117176634D02*
X43501781Y-117176634D01*
X43501781Y-117176634D02*
X43331780Y-117346635D01*
D13*
%TO.N,/7b*%
X239322268Y-116789200D02*
X239446068Y-116665400D01*
X241552671Y-116789200D02*
X241597003Y-116833532D01*
X46177200Y-116789200D02*
X239322268Y-116789200D01*
X239979200Y-116789200D02*
X241552671Y-116789200D01*
X46177200Y-116789200D02*
X46164634Y-116776634D01*
X239446068Y-116665400D02*
X239855400Y-116665400D01*
X46164634Y-116776634D02*
X45864193Y-116776634D01*
X239855400Y-116665400D02*
X239979200Y-116789200D01*
D14*
%TO.N,/8b*%
X44834275Y-116776634D02*
X43814193Y-116776634D01*
X44958000Y-116652909D02*
X44834275Y-116776634D01*
%TO.N,/9b*%
X46171034Y-116376634D02*
X45864193Y-116376634D01*
X46177200Y-116382800D02*
X46171034Y-116376634D01*
X240431943Y-116327543D02*
X240436400Y-116332000D01*
X45864193Y-116376634D02*
X45876221Y-116388662D01*
X239295241Y-116332000D02*
X239244441Y-116382800D01*
X240233200Y-116327543D02*
X240431943Y-116327543D01*
X239244441Y-116382800D02*
X46177200Y-116382800D01*
X240436400Y-116332000D02*
X239295241Y-116332000D01*
%TO.N,/10b*%
X43814193Y-116376634D02*
X43492762Y-116376634D01*
X43492762Y-116376634D02*
X43337431Y-116531965D01*
%TO.N,/11b*%
X46177200Y-115976400D02*
X240131600Y-115976400D01*
X240131600Y-115976400D02*
X240199009Y-115908991D01*
X46176966Y-115976634D02*
X45864193Y-115976634D01*
X46177200Y-115976400D02*
X46176966Y-115976634D01*
X241441868Y-115908991D02*
X241603993Y-116071116D01*
X240199009Y-115908991D02*
X241441868Y-115908991D01*
%TO.N,/12b*%
X43814193Y-115976634D02*
X44381766Y-115976634D01*
X44381766Y-115976634D02*
X44423793Y-115934607D01*
%TO.N,/13b*%
X46177200Y-115570000D02*
X46170566Y-115576634D01*
X239260550Y-115553891D02*
X239244441Y-115570000D01*
X46177200Y-115570000D02*
X239244441Y-115570000D01*
X46170566Y-115576634D02*
X45864193Y-115576634D01*
X239826800Y-115553891D02*
X239260550Y-115553891D01*
%TO.N,/14b*%
X43814193Y-115576634D02*
X43325393Y-115576634D01*
X43325393Y-115576634D02*
X43255393Y-115646634D01*
%TO.N,/15b*%
X46177200Y-115214400D02*
X239244441Y-115214400D01*
X46177200Y-115214400D02*
X46139434Y-115176634D01*
X46139434Y-115176634D02*
X45864193Y-115176634D01*
X239244441Y-115214400D02*
X239327959Y-115130882D01*
X241470482Y-115130882D02*
X241602915Y-115263315D01*
X239327959Y-115130882D02*
X241470482Y-115130882D01*
D13*
%TO.N,/16b*%
X43814193Y-115176634D02*
X44910275Y-115176634D01*
X44910275Y-115176634D02*
X45059600Y-115027309D01*
D14*
%TO.N,/17b*%
X240487200Y-114537391D02*
X240216591Y-114808000D01*
X240216591Y-114808000D02*
X46177200Y-114808000D01*
X46145834Y-114776634D02*
X45864193Y-114776634D01*
X46177200Y-114808000D02*
X46145834Y-114776634D01*
%TO.N,/18b*%
X43363393Y-114776634D02*
X43814193Y-114776634D01*
X43255393Y-114884634D02*
X43363393Y-114776634D01*
%TO.N,/19b*%
X240095235Y-114114882D02*
X239808517Y-114401600D01*
X241258863Y-114114882D02*
X240095235Y-114114882D01*
X46152234Y-114376634D02*
X45864193Y-114376634D01*
X241602088Y-114458107D02*
X241258863Y-114114882D01*
X239808517Y-114401600D02*
X46177200Y-114401600D01*
X46177200Y-114401600D02*
X46152234Y-114376634D01*
%TO.N,/20b*%
X44341530Y-114376634D02*
X44474593Y-114243571D01*
X43814193Y-114376634D02*
X44341530Y-114376634D01*
%TO.N,/21b*%
X46177200Y-113995200D02*
X46158634Y-113976634D01*
X46158634Y-113976634D02*
X45864193Y-113976634D01*
X46177200Y-113995200D02*
X239619916Y-113995200D01*
X239619916Y-113995200D02*
X239825128Y-113789988D01*
%TO.N,/22b*%
X43814193Y-113976634D02*
X43299793Y-113976634D01*
X43299793Y-113976634D02*
X43255393Y-114021034D01*
%TO.N,/23b*%
X46177200Y-113588800D02*
X46165034Y-113576634D01*
X46177200Y-113588800D02*
X239318800Y-113588800D01*
X241278934Y-113284000D02*
X241591252Y-113596318D01*
X239623600Y-113284000D02*
X241278934Y-113284000D01*
X239318800Y-113588800D02*
X239623600Y-113284000D01*
X46165034Y-113576634D02*
X45864193Y-113576634D01*
%TO.N,/24b*%
X43814193Y-113576634D02*
X44868193Y-113576634D01*
X44868193Y-113576634D02*
X45033393Y-113411434D01*
%TD*%
%TA.AperFunction,Conductor*%
%TO.N,GND*%
G36*
X241809898Y-110485814D02*
G01*
X242074200Y-110501801D01*
X242081634Y-110502705D01*
X242340260Y-110550101D01*
X242347530Y-110551892D01*
X242598561Y-110630116D01*
X242605554Y-110632769D01*
X242743118Y-110694681D01*
X242845330Y-110740683D01*
X242851956Y-110744160D01*
X243072104Y-110877245D01*
X243076969Y-110880186D01*
X243083135Y-110884442D01*
X243215069Y-110987806D01*
X243290111Y-111046597D01*
X243295711Y-111051558D01*
X243481640Y-111237487D01*
X243486602Y-111243088D01*
X243648756Y-111450063D01*
X243653013Y-111456230D01*
X243789036Y-111681238D01*
X243792519Y-111687874D01*
X243900430Y-111927645D01*
X243903086Y-111934647D01*
X243942196Y-112060157D01*
X243981305Y-112185663D01*
X243983098Y-112192939D01*
X244030494Y-112451565D01*
X244031398Y-112459004D01*
X244047387Y-112723333D01*
X244047500Y-112727077D01*
X244047500Y-118275203D01*
X244047387Y-118278950D01*
X244031387Y-118543285D01*
X244030484Y-118550724D01*
X244021599Y-118599201D01*
X243983978Y-118804461D01*
X243983085Y-118809331D01*
X243981291Y-118816607D01*
X243903062Y-119067633D01*
X243900404Y-119074640D01*
X243792491Y-119314403D01*
X243789008Y-119321038D01*
X243652986Y-119546041D01*
X243648729Y-119552207D01*
X243486574Y-119759181D01*
X243481605Y-119764790D01*
X243295691Y-119950704D01*
X243290082Y-119955673D01*
X243083108Y-120117828D01*
X243076942Y-120122085D01*
X242851940Y-120258107D01*
X242845305Y-120261590D01*
X242605537Y-120369505D01*
X242598531Y-120372163D01*
X242347514Y-120450390D01*
X242340243Y-120452182D01*
X242185451Y-120480554D01*
X242081626Y-120499584D01*
X242074187Y-120500487D01*
X241809880Y-120516485D01*
X241806136Y-120516598D01*
X241760394Y-120516600D01*
X241760391Y-120516600D01*
X42272669Y-120527765D01*
X42266672Y-120527765D01*
X42262927Y-120527652D01*
X41998595Y-120511661D01*
X41991156Y-120510758D01*
X41732535Y-120463365D01*
X41725259Y-120461571D01*
X41474229Y-120383348D01*
X41467222Y-120380691D01*
X41227452Y-120272780D01*
X41220820Y-120269300D01*
X40995813Y-120133280D01*
X40989646Y-120129023D01*
X40782661Y-119966865D01*
X40777060Y-119961903D01*
X40591126Y-119775973D01*
X40586166Y-119770374D01*
X40581791Y-119764790D01*
X40424010Y-119563402D01*
X40419753Y-119557235D01*
X40283722Y-119332221D01*
X40280239Y-119325586D01*
X40249204Y-119256633D01*
X40172325Y-119085823D01*
X40169668Y-119078818D01*
X40166182Y-119067633D01*
X40123201Y-118929707D01*
X40091439Y-118827785D01*
X40089649Y-118820526D01*
X40042245Y-118561885D01*
X40041344Y-118554462D01*
X40025405Y-118291066D01*
X40025292Y-118287321D01*
X40025292Y-118232506D01*
X40025096Y-118230086D01*
X40016323Y-115646634D01*
X42549748Y-115646634D01*
X42570252Y-115815503D01*
X42570253Y-115815508D01*
X42630575Y-115974565D01*
X42703011Y-116079505D01*
X42724894Y-116145859D01*
X42713342Y-116196289D01*
X42715273Y-116197022D01*
X42652291Y-116363090D01*
X42652290Y-116363095D01*
X42631786Y-116531965D01*
X42652290Y-116700834D01*
X42652291Y-116700839D01*
X42712613Y-116859895D01*
X42715976Y-116864767D01*
X42737858Y-116931121D01*
X42720392Y-116998773D01*
X42715977Y-117005643D01*
X42706964Y-117018701D01*
X42706962Y-117018703D01*
X42646640Y-117177760D01*
X42646639Y-117177765D01*
X42626135Y-117346635D01*
X42646639Y-117515504D01*
X42646640Y-117515509D01*
X42706962Y-117674566D01*
X42764121Y-117757374D01*
X42786004Y-117823728D01*
X42778013Y-117871784D01*
X42722654Y-118017756D01*
X42722652Y-118017764D01*
X42702148Y-118186634D01*
X42722652Y-118355503D01*
X42722653Y-118355508D01*
X42782975Y-118514565D01*
X42836370Y-118591919D01*
X42879610Y-118654563D01*
X42947824Y-118714995D01*
X43006943Y-118767370D01*
X43157566Y-118846423D01*
X43157568Y-118846424D01*
X43322737Y-118887134D01*
X43492851Y-118887134D01*
X43492851Y-118887133D01*
X43542537Y-118874887D01*
X43612337Y-118877954D01*
X43669400Y-118918273D01*
X43688394Y-118951949D01*
X43705839Y-118998722D01*
X43705842Y-118998727D01*
X43792002Y-119113821D01*
X43792005Y-119113824D01*
X43907099Y-119199984D01*
X43907106Y-119199988D01*
X44041813Y-119250230D01*
X44041820Y-119250232D01*
X44101348Y-119256633D01*
X44101365Y-119256634D01*
X44209193Y-119256634D01*
X44209193Y-118756634D01*
X44509193Y-118756634D01*
X44509193Y-119256634D01*
X44617021Y-119256634D01*
X44617037Y-119256633D01*
X44676565Y-119250232D01*
X44676576Y-119250229D01*
X44795859Y-119205739D01*
X44865550Y-119200754D01*
X44882527Y-119205739D01*
X45001809Y-119250229D01*
X45001820Y-119250232D01*
X45061348Y-119256633D01*
X45061365Y-119256634D01*
X45169193Y-119256634D01*
X45169193Y-118756634D01*
X44509193Y-118756634D01*
X44209193Y-118756634D01*
X44209193Y-118619216D01*
X44228878Y-118552177D01*
X44258883Y-118519949D01*
X44310423Y-118481367D01*
X44375887Y-118456950D01*
X44384733Y-118456634D01*
X45293653Y-118456634D01*
X45360692Y-118476319D01*
X45367963Y-118481367D01*
X45419503Y-118519949D01*
X45461375Y-118575882D01*
X45469193Y-118619216D01*
X45469193Y-119256634D01*
X45577021Y-119256634D01*
X45577037Y-119256633D01*
X45636565Y-119250232D01*
X45636572Y-119250230D01*
X45771279Y-119199988D01*
X45771286Y-119199984D01*
X45886380Y-119113824D01*
X45886383Y-119113821D01*
X45972543Y-118998727D01*
X45972547Y-118998720D01*
X46022789Y-118864013D01*
X46022791Y-118864006D01*
X46029192Y-118804478D01*
X46029193Y-118804461D01*
X46029193Y-118714995D01*
X46048878Y-118647956D01*
X46101682Y-118602201D01*
X46138844Y-118593057D01*
X46138747Y-118592292D01*
X46138736Y-118592236D01*
X46138740Y-118592235D01*
X46138700Y-118591919D01*
X46143106Y-118591360D01*
X46143114Y-118591360D01*
X46143121Y-118591358D01*
X46143220Y-118591346D01*
X46145571Y-118590986D01*
X46146671Y-118590725D01*
X46146676Y-118590725D01*
X46146680Y-118590723D01*
X46148779Y-118590226D01*
X46197578Y-118580471D01*
X46222201Y-118575549D01*
X46246508Y-118573143D01*
X238619011Y-118573143D01*
X238686050Y-118592828D01*
X238709261Y-118612108D01*
X238840695Y-118751603D01*
X238842677Y-118753653D01*
X238843130Y-118754122D01*
X238854785Y-118764825D01*
X238887464Y-118794835D01*
X238892290Y-118797731D01*
X238910707Y-118811235D01*
X238955200Y-118850652D01*
X238955205Y-118850654D01*
X238955207Y-118850656D01*
X239105825Y-118929707D01*
X239105827Y-118929708D01*
X239270996Y-118970418D01*
X239441108Y-118970418D01*
X239606277Y-118929708D01*
X239710729Y-118874887D01*
X239756901Y-118850654D01*
X239756902Y-118850652D01*
X239756904Y-118850652D01*
X239884235Y-118737847D01*
X239980870Y-118597848D01*
X240041192Y-118438790D01*
X240061697Y-118269918D01*
X240061696Y-118269917D01*
X240062601Y-118262472D01*
X240064347Y-118262684D01*
X240081382Y-118204670D01*
X240134186Y-118158915D01*
X240185697Y-118147709D01*
X240983870Y-118147709D01*
X241050909Y-118167394D01*
X241083046Y-118197277D01*
X241086307Y-118201622D01*
X241090363Y-118206539D01*
X241093565Y-118210777D01*
X241104776Y-118227018D01*
X241104777Y-118227019D01*
X241104778Y-118227020D01*
X241151991Y-118268847D01*
X241154524Y-118271222D01*
X241166413Y-118283015D01*
X241166421Y-118283019D01*
X241172357Y-118287629D01*
X241172149Y-118287896D01*
X241179903Y-118293575D01*
X241232108Y-118339824D01*
X241232110Y-118339826D01*
X241382734Y-118418880D01*
X241382736Y-118418881D01*
X241547905Y-118459591D01*
X241718017Y-118459591D01*
X241883186Y-118418881D01*
X242003936Y-118355506D01*
X242033810Y-118339827D01*
X242033811Y-118339825D01*
X242033813Y-118339825D01*
X242161144Y-118227020D01*
X242257779Y-118087021D01*
X242318101Y-117927963D01*
X242338606Y-117759091D01*
X242318101Y-117590219D01*
X242257779Y-117431161D01*
X242257778Y-117431159D01*
X242195341Y-117340704D01*
X242173458Y-117274350D01*
X242190923Y-117206698D01*
X242195342Y-117199823D01*
X242221821Y-117161462D01*
X242282143Y-117002404D01*
X242302648Y-116833532D01*
X242282143Y-116664660D01*
X242221821Y-116505602D01*
X242221820Y-116505600D01*
X242221083Y-116503657D01*
X242215716Y-116433993D01*
X242227229Y-116402059D01*
X242228806Y-116399052D01*
X242228811Y-116399046D01*
X242289133Y-116239988D01*
X242309638Y-116071116D01*
X242289133Y-115902244D01*
X242228811Y-115743186D01*
X242228809Y-115743184D01*
X242228809Y-115743182D01*
X242228808Y-115743181D01*
X242224458Y-115736879D01*
X242202572Y-115670526D01*
X242220033Y-115602873D01*
X242224438Y-115596017D01*
X242227733Y-115591245D01*
X242288055Y-115432187D01*
X242308560Y-115263315D01*
X242288055Y-115094443D01*
X242227733Y-114935385D01*
X242224397Y-114930552D01*
X242202513Y-114864200D01*
X242219977Y-114796548D01*
X242224383Y-114789691D01*
X242226906Y-114786037D01*
X242287228Y-114626979D01*
X242307733Y-114458107D01*
X242287228Y-114289235D01*
X242226906Y-114130177D01*
X242226905Y-114130175D01*
X242199038Y-114089803D01*
X242177155Y-114023448D01*
X242194620Y-113955797D01*
X242199039Y-113948921D01*
X242216070Y-113924248D01*
X242276392Y-113765190D01*
X242296897Y-113596318D01*
X242276392Y-113427446D01*
X242216070Y-113268388D01*
X242119435Y-113128389D01*
X241992104Y-113015584D01*
X241992102Y-113015583D01*
X241992101Y-113015582D01*
X241992100Y-113015581D01*
X241942352Y-112989472D01*
X241937696Y-112987028D01*
X241919264Y-112975166D01*
X241916248Y-112972824D01*
X241908961Y-112967164D01*
X241843902Y-112930124D01*
X241668265Y-112830128D01*
X241661189Y-112825431D01*
X241579762Y-112762951D01*
X241579759Y-112762949D01*
X241434654Y-112702845D01*
X241434652Y-112702844D01*
X241331420Y-112689254D01*
X241318029Y-112687491D01*
X241278934Y-112682344D01*
X241243870Y-112686960D01*
X241235772Y-112687491D01*
X239666762Y-112687491D01*
X239658663Y-112686960D01*
X239623600Y-112682344D01*
X239584505Y-112687491D01*
X239571114Y-112689254D01*
X239467881Y-112702844D01*
X239467879Y-112702845D01*
X239322772Y-112762950D01*
X239198166Y-112858563D01*
X239176634Y-112886622D01*
X239171284Y-112892723D01*
X239108038Y-112955971D01*
X239046715Y-112989457D01*
X239020355Y-112992291D01*
X46300605Y-112992291D01*
X46292510Y-112991760D01*
X46284820Y-112990748D01*
X46275134Y-112989472D01*
X46253164Y-112984200D01*
X46253157Y-112984228D01*
X46252329Y-112984000D01*
X46249966Y-112983433D01*
X46248896Y-112983054D01*
X46248891Y-112983053D01*
X46148774Y-112963037D01*
X46145564Y-112962281D01*
X46143150Y-112961912D01*
X46139779Y-112961239D01*
X46137947Y-112960898D01*
X46136257Y-112960584D01*
X46136251Y-112960583D01*
X46136250Y-112960583D01*
X46136233Y-112960580D01*
X46136872Y-112960665D01*
X46073006Y-112932328D01*
X46034600Y-112873961D01*
X46029193Y-112837744D01*
X46029193Y-112748806D01*
X46029192Y-112748789D01*
X46022791Y-112689261D01*
X46022789Y-112689254D01*
X45972547Y-112554547D01*
X45972543Y-112554540D01*
X45886383Y-112439446D01*
X45886380Y-112439443D01*
X45771286Y-112353283D01*
X45771279Y-112353279D01*
X45636572Y-112303037D01*
X45636565Y-112303035D01*
X45577037Y-112296634D01*
X45469193Y-112296634D01*
X45469193Y-112657201D01*
X45449508Y-112724240D01*
X45396704Y-112769995D01*
X45327546Y-112779939D01*
X45287567Y-112766997D01*
X45235567Y-112739705D01*
X45185354Y-112691120D01*
X45169193Y-112629909D01*
X45169193Y-112296634D01*
X45061348Y-112296634D01*
X45001820Y-112303035D01*
X45001812Y-112303037D01*
X44882526Y-112347528D01*
X44812834Y-112352512D01*
X44795860Y-112347528D01*
X44676573Y-112303037D01*
X44676565Y-112303035D01*
X44617037Y-112296634D01*
X44509193Y-112296634D01*
X44509193Y-112825782D01*
X44489508Y-112892821D01*
X44467422Y-112918596D01*
X44454408Y-112930125D01*
X44449438Y-112935736D01*
X44447580Y-112934090D01*
X44402584Y-112970555D01*
X44354817Y-112980125D01*
X44333193Y-112980125D01*
X44266154Y-112960440D01*
X44220399Y-112907636D01*
X44209193Y-112856125D01*
X44209193Y-112296634D01*
X44101348Y-112296634D01*
X44041820Y-112303035D01*
X44041813Y-112303037D01*
X43907106Y-112353279D01*
X43907099Y-112353283D01*
X43792005Y-112439443D01*
X43792002Y-112439446D01*
X43705842Y-112554540D01*
X43705838Y-112554547D01*
X43655596Y-112689254D01*
X43655594Y-112689261D01*
X43649193Y-112748789D01*
X43649193Y-112838528D01*
X43629508Y-112905567D01*
X43576704Y-112951322D01*
X43538453Y-112961817D01*
X43531712Y-112962541D01*
X43396864Y-113012836D01*
X43396857Y-113012840D01*
X43281648Y-113099086D01*
X43281645Y-113099089D01*
X43195398Y-113214299D01*
X43177195Y-113263103D01*
X43135323Y-113319035D01*
X43090690Y-113340164D01*
X43005165Y-113361244D01*
X42854543Y-113440297D01*
X42727209Y-113553106D01*
X42630575Y-113693102D01*
X42570253Y-113852159D01*
X42570252Y-113852164D01*
X42549748Y-114021034D01*
X42570252Y-114189903D01*
X42570253Y-114189908D01*
X42630575Y-114348965D01*
X42630577Y-114348968D01*
X42653650Y-114382396D01*
X42675532Y-114448751D01*
X42658066Y-114516402D01*
X42653650Y-114523272D01*
X42630577Y-114556699D01*
X42630575Y-114556702D01*
X42570253Y-114715759D01*
X42570252Y-114715764D01*
X42549748Y-114884634D01*
X42570252Y-115053503D01*
X42570254Y-115053511D01*
X42633234Y-115219578D01*
X42630699Y-115220539D01*
X42641904Y-115276555D01*
X42631752Y-115311128D01*
X42633234Y-115311690D01*
X42570254Y-115477756D01*
X42570252Y-115477764D01*
X42549748Y-115646634D01*
X40016323Y-115646634D01*
X40007249Y-112974245D01*
X40007362Y-112970314D01*
X40008511Y-112951322D01*
X40023343Y-112706108D01*
X40024246Y-112698678D01*
X40048618Y-112565681D01*
X40071642Y-112440038D01*
X40073427Y-112432797D01*
X40151659Y-112181744D01*
X40154308Y-112174762D01*
X40262219Y-111934992D01*
X40265702Y-111928357D01*
X40401724Y-111703349D01*
X40405975Y-111697188D01*
X40568133Y-111490211D01*
X40573100Y-111484606D01*
X40759022Y-111298686D01*
X40764631Y-111293717D01*
X40829255Y-111243088D01*
X40971603Y-111131565D01*
X40977767Y-111127312D01*
X41202783Y-110991288D01*
X41209409Y-110987810D01*
X41449187Y-110879897D01*
X41456179Y-110877245D01*
X41707222Y-110799021D01*
X41714467Y-110797236D01*
X41973118Y-110749839D01*
X41980530Y-110748940D01*
X42245301Y-110732928D01*
X42249037Y-110732816D01*
X42294332Y-110732817D01*
X42294335Y-110732816D01*
X42303615Y-110732816D01*
X42304520Y-110732743D01*
X241806093Y-110485702D01*
X241809898Y-110485814D01*
G37*
%TD.AperFunction*%
%TD*%
%TA.AperFunction,Conductor*%
%TO.N,/1b*%
G36*
X46044009Y-117857596D02*
G01*
X46149788Y-117878744D01*
X46157227Y-117883726D01*
X46159193Y-117890217D01*
X46159193Y-118063050D01*
X46155766Y-118071323D01*
X46149787Y-118074523D01*
X46044015Y-118095669D01*
X46035230Y-118093930D01*
X46035130Y-118093863D01*
X45877371Y-117986301D01*
X45872466Y-117978809D01*
X45874295Y-117970043D01*
X45877371Y-117966967D01*
X46035130Y-117859404D01*
X46043896Y-117857575D01*
X46044009Y-117857596D01*
G37*
%TD.AperFunction*%
%TD*%
%TA.AperFunction,Conductor*%
%TO.N,/1b*%
G36*
X239100284Y-118004874D02*
G01*
X239419354Y-118081945D01*
X239426590Y-118087218D01*
X239427979Y-118096064D01*
X239427436Y-118097745D01*
X239357661Y-118268417D01*
X239355063Y-118272303D01*
X239223154Y-118402900D01*
X239214864Y-118406286D01*
X239206608Y-118402818D01*
X239206406Y-118402609D01*
X238965922Y-118147377D01*
X238962743Y-118139006D01*
X238966164Y-118131082D01*
X239089272Y-118007974D01*
X239097544Y-118004548D01*
X239100284Y-118004874D01*
G37*
%TD.AperFunction*%
%TD*%
%TA.AperFunction,Conductor*%
%TO.N,/2b*%
G36*
X43714549Y-117886162D02*
G01*
X43720280Y-117893043D01*
X43720808Y-117896520D01*
X43720808Y-118069077D01*
X43718820Y-118075602D01*
X43557115Y-118316294D01*
X43549657Y-118321250D01*
X43540878Y-118319481D01*
X43539159Y-118318071D01*
X43537369Y-118316294D01*
X43408479Y-118188308D01*
X43405893Y-118184433D01*
X43336083Y-118013666D01*
X43336124Y-118004712D01*
X43342486Y-117998409D01*
X43343426Y-117998070D01*
X43705631Y-117885348D01*
X43714549Y-117886162D01*
G37*
%TD.AperFunction*%
%TD*%
%TA.AperFunction,Conductor*%
%TO.N,/2b*%
G36*
X43644251Y-117900431D02*
G01*
X43644833Y-117900689D01*
X43808717Y-117973192D01*
X43814896Y-117979673D01*
X43815617Y-117982650D01*
X43826518Y-118084724D01*
X43823989Y-118093314D01*
X43816126Y-118097600D01*
X43815853Y-118097626D01*
X43621366Y-118113793D01*
X43612838Y-118111063D01*
X43612124Y-118110406D01*
X43491616Y-117989898D01*
X43488189Y-117981625D01*
X43491616Y-117973352D01*
X43494614Y-117971181D01*
X43634250Y-117900688D01*
X43643180Y-117900020D01*
X43644251Y-117900431D01*
G37*
%TD.AperFunction*%
%TD*%
%TA.AperFunction,Conductor*%
%TO.N,/3b*%
G36*
X46046059Y-117463077D02*
G01*
X46089130Y-117503494D01*
X46210962Y-117625326D01*
X46214389Y-117633599D01*
X46210962Y-117641872D01*
X46205985Y-117644825D01*
X46044415Y-117692264D01*
X46035512Y-117691307D01*
X46034655Y-117690790D01*
X45877937Y-117586919D01*
X45872934Y-117579492D01*
X45874649Y-117570703D01*
X45877772Y-117567526D01*
X46031432Y-117461965D01*
X46040190Y-117460106D01*
X46046059Y-117463077D01*
G37*
%TD.AperFunction*%
%TD*%
%TA.AperFunction,Conductor*%
%TO.N,/3b*%
G36*
X241334182Y-117459801D02*
G01*
X241669013Y-117561962D01*
X241697227Y-117570571D01*
X241704140Y-117576263D01*
X241705004Y-117585176D01*
X241704643Y-117586189D01*
X241634860Y-117756890D01*
X241632274Y-117760765D01*
X241501531Y-117890591D01*
X241493246Y-117893989D01*
X241484985Y-117890533D01*
X241483616Y-117888874D01*
X241321101Y-117650188D01*
X241319072Y-117643603D01*
X241319072Y-117470993D01*
X241322499Y-117462720D01*
X241330772Y-117459293D01*
X241334182Y-117459801D01*
G37*
%TD.AperFunction*%
%TD*%
%TA.AperFunction,Conductor*%
%TO.N,/4b*%
G36*
X44446017Y-117456524D02*
G01*
X44450032Y-117464528D01*
X44450062Y-117465313D01*
X44450988Y-117650413D01*
X44450077Y-117654999D01*
X44378436Y-117825722D01*
X44372074Y-117832025D01*
X44363120Y-117831984D01*
X44362128Y-117831512D01*
X44071331Y-117675949D01*
X44065653Y-117669024D01*
X44065150Y-117665632D01*
X44065150Y-117491510D01*
X44068577Y-117483237D01*
X44076005Y-117479840D01*
X44437519Y-117453702D01*
X44446017Y-117456524D01*
G37*
%TD.AperFunction*%
%TD*%
%TA.AperFunction,Conductor*%
%TO.N,/4b*%
G36*
X43994009Y-117457596D02*
G01*
X44099788Y-117478744D01*
X44107227Y-117483726D01*
X44109193Y-117490217D01*
X44109193Y-117663050D01*
X44105766Y-117671323D01*
X44099787Y-117674523D01*
X43994015Y-117695669D01*
X43985230Y-117693930D01*
X43985130Y-117693863D01*
X43827371Y-117586301D01*
X43822466Y-117578809D01*
X43824295Y-117570043D01*
X43827371Y-117566967D01*
X43985130Y-117459404D01*
X43993896Y-117457575D01*
X43994009Y-117457596D01*
G37*
%TD.AperFunction*%
%TD*%
%TA.AperFunction,Conductor*%
%TO.N,/5b*%
G36*
X46046034Y-117062661D02*
G01*
X46087124Y-117098855D01*
X46087394Y-117099108D01*
X46209274Y-117220988D01*
X46212701Y-117229261D01*
X46209274Y-117237534D01*
X46204430Y-117240447D01*
X46044404Y-117289504D01*
X46035490Y-117288653D01*
X46034622Y-117288142D01*
X45930900Y-117220988D01*
X45878209Y-117186873D01*
X45873127Y-117179500D01*
X45874747Y-117170693D01*
X45877939Y-117167412D01*
X46031678Y-117061796D01*
X46040436Y-117059937D01*
X46046034Y-117062661D01*
G37*
%TD.AperFunction*%
%TD*%
%TA.AperFunction,Conductor*%
%TO.N,/5b*%
G36*
X239551588Y-116920016D02*
G01*
X239551689Y-116920249D01*
X239623677Y-117091800D01*
X239624588Y-117096386D01*
X239623666Y-117280663D01*
X239620198Y-117288918D01*
X239611907Y-117292304D01*
X239610384Y-117292197D01*
X239243823Y-117242189D01*
X239236089Y-117237675D01*
X239233705Y-117230596D01*
X239233705Y-117056387D01*
X239237132Y-117048114D01*
X239240640Y-117045701D01*
X239299892Y-117019312D01*
X239304652Y-117018300D01*
X239316125Y-117018300D01*
X239316431Y-117018308D01*
X239317766Y-117018377D01*
X239358907Y-117020534D01*
X239386687Y-117009869D01*
X239388426Y-117009355D01*
X239408973Y-117004988D01*
X239417530Y-117003170D01*
X239417530Y-117003169D01*
X239417533Y-117003169D01*
X239431290Y-116993173D01*
X239433958Y-116991724D01*
X239449832Y-116985632D01*
X239470875Y-116964587D01*
X239472251Y-116963412D01*
X239496326Y-116945922D01*
X239504824Y-116931201D01*
X239506677Y-116928785D01*
X239507985Y-116927477D01*
X239511488Y-116925068D01*
X239536142Y-116914087D01*
X239545092Y-116913853D01*
X239551588Y-116920016D01*
G37*
%TD.AperFunction*%
%TD*%
%TA.AperFunction,Conductor*%
%TO.N,/6b*%
G36*
X43643155Y-117059336D02*
G01*
X43643255Y-117059404D01*
X43801014Y-117166967D01*
X43805919Y-117174459D01*
X43804090Y-117183225D01*
X43801014Y-117186301D01*
X43643255Y-117293863D01*
X43634489Y-117295692D01*
X43634370Y-117295669D01*
X43528599Y-117274523D01*
X43521158Y-117269541D01*
X43519193Y-117263050D01*
X43519193Y-117090217D01*
X43522620Y-117081944D01*
X43528597Y-117078744D01*
X43634370Y-117057598D01*
X43643155Y-117059336D01*
G37*
%TD.AperFunction*%
%TD*%
%TA.AperFunction,Conductor*%
%TO.N,/6b*%
G36*
X43656153Y-117085162D02*
G01*
X43661136Y-117092602D01*
X43661363Y-117094897D01*
X43661363Y-117268252D01*
X43658475Y-117275949D01*
X43611564Y-117329652D01*
X43605035Y-117333430D01*
X43589445Y-117336532D01*
X43589444Y-117336532D01*
X43547271Y-117364711D01*
X43547270Y-117364712D01*
X43519091Y-117406885D01*
X43519091Y-117406886D01*
X43512324Y-117440900D01*
X43509661Y-117446314D01*
X43481406Y-117478662D01*
X43473382Y-117482638D01*
X43464897Y-117479777D01*
X43464350Y-117479267D01*
X43332466Y-117348309D01*
X43329880Y-117344434D01*
X43260606Y-117174978D01*
X43260647Y-117166024D01*
X43267009Y-117159721D01*
X43269130Y-117159081D01*
X43647368Y-117083424D01*
X43656153Y-117085162D01*
G37*
%TD.AperFunction*%
%TD*%
%TA.AperFunction,Conductor*%
%TO.N,/7b*%
G36*
X241592432Y-116637623D02*
G01*
X241596959Y-116645349D01*
X241597069Y-116646892D01*
X241597991Y-116831145D01*
X241597080Y-116835731D01*
X241524937Y-117007651D01*
X241518575Y-117013954D01*
X241509754Y-117013967D01*
X241213127Y-116893760D01*
X241206746Y-116887477D01*
X241205821Y-116882917D01*
X241205821Y-116697794D01*
X241209248Y-116689521D01*
X241215918Y-116686204D01*
X241583768Y-116635361D01*
X241592432Y-116637623D01*
G37*
%TD.AperFunction*%
%TD*%
%TA.AperFunction,Conductor*%
%TO.N,/7b*%
G36*
X46149267Y-116673512D02*
G01*
X46156924Y-116678152D01*
X46159193Y-116685076D01*
X46159193Y-116868191D01*
X46155766Y-116876464D01*
X46149266Y-116879756D01*
X46043748Y-116895935D01*
X46035384Y-116894037D01*
X46009610Y-116876464D01*
X45877370Y-116786300D01*
X45872466Y-116778809D01*
X45874295Y-116770043D01*
X45877371Y-116766967D01*
X46035386Y-116659229D01*
X46043746Y-116657332D01*
X46149267Y-116673512D01*
G37*
%TD.AperFunction*%
%TD*%
%TA.AperFunction,Conductor*%
%TO.N,/8b*%
G36*
X44823976Y-116518833D02*
G01*
X44955519Y-116649452D01*
X44958975Y-116657713D01*
X44958975Y-116657812D01*
X44958055Y-116841899D01*
X44954587Y-116850155D01*
X44947008Y-116853523D01*
X44617108Y-116871952D01*
X44608656Y-116868992D01*
X44604773Y-116860923D01*
X44604755Y-116860270D01*
X44604755Y-116686254D01*
X44608182Y-116677981D01*
X44609147Y-116677117D01*
X44808434Y-116517991D01*
X44817035Y-116515508D01*
X44823976Y-116518833D01*
G37*
%TD.AperFunction*%
%TD*%
%TA.AperFunction,Conductor*%
%TO.N,/8b*%
G36*
X43994009Y-116657596D02*
G01*
X44099788Y-116678744D01*
X44107227Y-116683726D01*
X44109193Y-116690217D01*
X44109193Y-116863050D01*
X44105766Y-116871323D01*
X44099787Y-116874523D01*
X43994015Y-116895669D01*
X43985230Y-116893930D01*
X43985130Y-116893863D01*
X43827371Y-116786301D01*
X43822466Y-116778809D01*
X43824295Y-116770043D01*
X43827371Y-116766967D01*
X43985130Y-116659404D01*
X43993896Y-116657575D01*
X43994009Y-116657596D01*
G37*
%TD.AperFunction*%
%TD*%
%TA.AperFunction,Conductor*%
%TO.N,/9b*%
G36*
X46044009Y-116257596D02*
G01*
X46149788Y-116278744D01*
X46157227Y-116283726D01*
X46159193Y-116290217D01*
X46159193Y-116463050D01*
X46155766Y-116471323D01*
X46149787Y-116474523D01*
X46044015Y-116495669D01*
X46035230Y-116493930D01*
X46035130Y-116493863D01*
X45877371Y-116386301D01*
X45872466Y-116378809D01*
X45874295Y-116370043D01*
X45877371Y-116366967D01*
X46035130Y-116259404D01*
X46043896Y-116257575D01*
X46044009Y-116257596D01*
G37*
%TD.AperFunction*%
%TD*%
%TA.AperFunction,Conductor*%
%TO.N,/9b*%
G36*
X240364294Y-116158329D02*
G01*
X240365343Y-116160285D01*
X240434348Y-116324728D01*
X240434389Y-116333682D01*
X240431803Y-116337557D01*
X240302416Y-116466035D01*
X240294131Y-116469433D01*
X240286823Y-116466837D01*
X240237551Y-116427064D01*
X240233266Y-116419201D01*
X240233200Y-116417960D01*
X240233200Y-116237801D01*
X240236627Y-116229528D01*
X240238414Y-116228063D01*
X240348073Y-116155071D01*
X240356857Y-116153341D01*
X240364294Y-116158329D01*
G37*
%TD.AperFunction*%
%TD*%
%TA.AperFunction,Conductor*%
%TO.N,/9b*%
G36*
X240358839Y-116151058D02*
G01*
X240363839Y-116156699D01*
X240435500Y-116327473D01*
X240435541Y-116336428D01*
X240435500Y-116336527D01*
X240363839Y-116507300D01*
X240357477Y-116513603D01*
X240349954Y-116514056D01*
X240045004Y-116430370D01*
X240037932Y-116424876D01*
X240036400Y-116419087D01*
X240036400Y-116244912D01*
X240039827Y-116236639D01*
X240045001Y-116233630D01*
X240159310Y-116202261D01*
X240163006Y-116201861D01*
X240167346Y-116202089D01*
X240185665Y-116195056D01*
X240186184Y-116194885D01*
X240211684Y-116187888D01*
X240211970Y-116187818D01*
X240224540Y-116185147D01*
X240224548Y-116185140D01*
X240228330Y-116183320D01*
X240349954Y-116149943D01*
X240358839Y-116151058D01*
G37*
%TD.AperFunction*%
%TD*%
%TA.AperFunction,Conductor*%
%TO.N,/10b*%
G36*
X43643155Y-116259336D02*
G01*
X43643255Y-116259404D01*
X43801014Y-116366967D01*
X43805919Y-116374459D01*
X43804090Y-116383225D01*
X43801014Y-116386301D01*
X43643255Y-116493863D01*
X43634489Y-116495692D01*
X43634370Y-116495669D01*
X43528599Y-116474523D01*
X43521158Y-116469541D01*
X43519193Y-116463050D01*
X43519193Y-116290217D01*
X43522620Y-116281944D01*
X43528597Y-116278744D01*
X43634370Y-116257598D01*
X43643155Y-116259336D01*
G37*
%TD.AperFunction*%
%TD*%
%TA.AperFunction,Conductor*%
%TO.N,/10b*%
G36*
X43668318Y-116284821D02*
G01*
X43672957Y-116292481D01*
X43673091Y-116294250D01*
X43673091Y-116467909D01*
X43669799Y-116476045D01*
X43619014Y-116528529D01*
X43612889Y-116531868D01*
X43589445Y-116536532D01*
X43589444Y-116536532D01*
X43547271Y-116564711D01*
X43547270Y-116564712D01*
X43519091Y-116606885D01*
X43519091Y-116606886D01*
X43513524Y-116634868D01*
X43510457Y-116640721D01*
X43487093Y-116664868D01*
X43478878Y-116668430D01*
X43470549Y-116665140D01*
X43470441Y-116665034D01*
X43411881Y-116606885D01*
X43339910Y-116535420D01*
X43336455Y-116527160D01*
X43337381Y-116341958D01*
X43340849Y-116333704D01*
X43347307Y-116330454D01*
X43659624Y-116282684D01*
X43668318Y-116284821D01*
G37*
%TD.AperFunction*%
%TD*%
%TA.AperFunction,Conductor*%
%TO.N,/11b*%
G36*
X46044009Y-115857596D02*
G01*
X46149788Y-115878744D01*
X46157227Y-115883726D01*
X46159193Y-115890217D01*
X46159193Y-116063050D01*
X46155766Y-116071323D01*
X46149787Y-116074523D01*
X46044015Y-116095669D01*
X46035230Y-116093930D01*
X46035130Y-116093863D01*
X45877371Y-115986301D01*
X45872466Y-115978809D01*
X45874295Y-115970043D01*
X45877371Y-115966967D01*
X46035130Y-115859404D01*
X46043896Y-115857575D01*
X46044009Y-115857596D01*
G37*
%TD.AperFunction*%
%TD*%
%TA.AperFunction,Conductor*%
%TO.N,/11b*%
G36*
X241284859Y-115815376D02*
G01*
X241594355Y-115869432D01*
X241601914Y-115874232D01*
X241604041Y-115880899D01*
X241604968Y-116066211D01*
X241601582Y-116074502D01*
X241601512Y-116074572D01*
X241471186Y-116203983D01*
X241462901Y-116207381D01*
X241454640Y-116203925D01*
X241454342Y-116203614D01*
X241274247Y-116008360D01*
X241271147Y-116000427D01*
X241271147Y-115826903D01*
X241274574Y-115818630D01*
X241282847Y-115815203D01*
X241284859Y-115815376D01*
G37*
%TD.AperFunction*%
%TD*%
%TA.AperFunction,Conductor*%
%TO.N,/12b*%
G36*
X44351765Y-115760578D02*
G01*
X44423870Y-115932407D01*
X44424781Y-115936993D01*
X44423861Y-116120980D01*
X44420393Y-116129235D01*
X44412102Y-116132621D01*
X44410333Y-116132477D01*
X44042025Y-116074204D01*
X44034389Y-116069527D01*
X44032153Y-116062648D01*
X44032153Y-115888436D01*
X44035580Y-115880163D01*
X44039368Y-115877630D01*
X44336491Y-115754298D01*
X44345445Y-115754292D01*
X44351765Y-115760578D01*
G37*
%TD.AperFunction*%
%TD*%
%TA.AperFunction,Conductor*%
%TO.N,/12b*%
G36*
X43994009Y-115857596D02*
G01*
X44099788Y-115878744D01*
X44107227Y-115883726D01*
X44109193Y-115890217D01*
X44109193Y-116063050D01*
X44105766Y-116071323D01*
X44099787Y-116074523D01*
X43994015Y-116095669D01*
X43985230Y-116093930D01*
X43985130Y-116093863D01*
X43827371Y-115986301D01*
X43822466Y-115978809D01*
X43824295Y-115970043D01*
X43827371Y-115966967D01*
X43985130Y-115859404D01*
X43993896Y-115857575D01*
X43994009Y-115857596D01*
G37*
%TD.AperFunction*%
%TD*%
%TA.AperFunction,Conductor*%
%TO.N,/13b*%
G36*
X46044009Y-115457596D02*
G01*
X46149788Y-115478744D01*
X46157227Y-115483726D01*
X46159193Y-115490217D01*
X46159193Y-115663050D01*
X46155766Y-115671323D01*
X46149787Y-115674523D01*
X46044015Y-115695669D01*
X46035230Y-115693930D01*
X46035130Y-115693863D01*
X45877371Y-115586301D01*
X45872466Y-115578809D01*
X45874295Y-115570043D01*
X45877371Y-115566967D01*
X46035130Y-115459404D01*
X46043896Y-115457575D01*
X46044009Y-115457596D01*
G37*
%TD.AperFunction*%
%TD*%
%TA.AperFunction,Conductor*%
%TO.N,/13b*%
G36*
X239749239Y-115372949D02*
G01*
X239754239Y-115378590D01*
X239825900Y-115549364D01*
X239825941Y-115558319D01*
X239825900Y-115558418D01*
X239754239Y-115729191D01*
X239747877Y-115735494D01*
X239740354Y-115735947D01*
X239435404Y-115652261D01*
X239428332Y-115646767D01*
X239426800Y-115640978D01*
X239426800Y-115466803D01*
X239430227Y-115458530D01*
X239435401Y-115455521D01*
X239740354Y-115371834D01*
X239749239Y-115372949D01*
G37*
%TD.AperFunction*%
%TD*%
%TA.AperFunction,Conductor*%
%TO.N,/14b*%
G36*
X43268035Y-115447747D02*
G01*
X43630795Y-115479685D01*
X43638736Y-115483824D01*
X43641469Y-115491340D01*
X43641469Y-115665495D01*
X43638042Y-115673768D01*
X43635109Y-115675905D01*
X43343170Y-115825644D01*
X43334244Y-115826371D01*
X43327420Y-115820574D01*
X43327048Y-115819777D01*
X43255314Y-115648829D01*
X43254404Y-115644251D01*
X43255329Y-115459342D01*
X43258797Y-115451089D01*
X43267088Y-115447703D01*
X43268035Y-115447747D01*
G37*
%TD.AperFunction*%
%TD*%
%TA.AperFunction,Conductor*%
%TO.N,/14b*%
G36*
X43643155Y-115459336D02*
G01*
X43643255Y-115459404D01*
X43801014Y-115566967D01*
X43805919Y-115574459D01*
X43804090Y-115583225D01*
X43801014Y-115586301D01*
X43643255Y-115693863D01*
X43634489Y-115695692D01*
X43634370Y-115695669D01*
X43528599Y-115674523D01*
X43521158Y-115669541D01*
X43519193Y-115663050D01*
X43519193Y-115490217D01*
X43522620Y-115481944D01*
X43528597Y-115478744D01*
X43634370Y-115457598D01*
X43643155Y-115459336D01*
G37*
%TD.AperFunction*%
%TD*%
%TA.AperFunction,Conductor*%
%TO.N,/15b*%
G36*
X46044380Y-115066323D02*
G01*
X46202990Y-115116883D01*
X46209831Y-115122659D01*
X46210583Y-115131582D01*
X46207709Y-115136302D01*
X46085723Y-115258288D01*
X46085305Y-115258668D01*
X46045993Y-115291034D01*
X46037427Y-115293646D01*
X46031931Y-115291645D01*
X45878103Y-115185968D01*
X45873224Y-115178458D01*
X45875084Y-115169699D01*
X45878466Y-115166441D01*
X46034583Y-115067588D01*
X46043404Y-115066058D01*
X46044380Y-115066323D01*
G37*
%TD.AperFunction*%
%TD*%
%TA.AperFunction,Conductor*%
%TO.N,/15b*%
G36*
X241268118Y-115035907D02*
G01*
X241592224Y-115062439D01*
X241600189Y-115066529D01*
X241602968Y-115074041D01*
X241603890Y-115258410D01*
X241600504Y-115266701D01*
X241600434Y-115266771D01*
X241469182Y-115397101D01*
X241460897Y-115400499D01*
X241453292Y-115397655D01*
X241259542Y-115230390D01*
X241255519Y-115222390D01*
X241255488Y-115221534D01*
X241255488Y-115047569D01*
X241258915Y-115039296D01*
X241267188Y-115035869D01*
X241268118Y-115035907D01*
G37*
%TD.AperFunction*%
%TD*%
%TA.AperFunction,Conductor*%
%TO.N,/16b*%
G36*
X44099267Y-115073512D02*
G01*
X44106924Y-115078152D01*
X44109193Y-115085076D01*
X44109193Y-115268191D01*
X44105766Y-115276464D01*
X44099266Y-115279756D01*
X43993748Y-115295935D01*
X43985384Y-115294037D01*
X43959610Y-115276464D01*
X43827370Y-115186300D01*
X43822466Y-115178809D01*
X43824295Y-115170043D01*
X43827371Y-115166967D01*
X43985386Y-115059229D01*
X43993746Y-115057332D01*
X44099267Y-115073512D01*
G37*
%TD.AperFunction*%
%TD*%
%TA.AperFunction,Conductor*%
%TO.N,/16b*%
G36*
X44926291Y-114893943D02*
G01*
X45057119Y-115023852D01*
X45060575Y-115032113D01*
X45060575Y-115032212D01*
X45059650Y-115217289D01*
X45056182Y-115225545D01*
X45049692Y-115228801D01*
X44734894Y-115276209D01*
X44726203Y-115274052D01*
X44721582Y-115266381D01*
X44721452Y-115264639D01*
X44721452Y-115080015D01*
X44724879Y-115071742D01*
X44725043Y-115071581D01*
X44766093Y-115032113D01*
X44909938Y-114893810D01*
X44918277Y-114890547D01*
X44926291Y-114893943D01*
G37*
%TD.AperFunction*%
%TD*%
%TA.AperFunction,Conductor*%
%TO.N,/17b*%
G36*
X240483678Y-114535528D02*
G01*
X240490022Y-114541848D01*
X240490051Y-114541919D01*
X240559628Y-114712117D01*
X240559587Y-114721071D01*
X240554022Y-114727013D01*
X240216214Y-114895564D01*
X240207281Y-114896191D01*
X240200521Y-114890319D01*
X240199290Y-114885095D01*
X240199290Y-114714300D01*
X240200167Y-114709855D01*
X240269162Y-114541848D01*
X240297975Y-114471686D01*
X240304287Y-114465337D01*
X240313239Y-114465310D01*
X240483678Y-114535528D01*
G37*
%TD.AperFunction*%
%TD*%
%TA.AperFunction,Conductor*%
%TO.N,/17b*%
G36*
X46044405Y-114663561D02*
G01*
X46204543Y-114712500D01*
X46211454Y-114718195D01*
X46212313Y-114727108D01*
X46209397Y-114731962D01*
X46087522Y-114853837D01*
X46087263Y-114854081D01*
X46046038Y-114890574D01*
X46037572Y-114893491D01*
X46031658Y-114891457D01*
X45877931Y-114785850D01*
X45873052Y-114778341D01*
X45874912Y-114769581D01*
X45878185Y-114766393D01*
X46034620Y-114664933D01*
X46043425Y-114663307D01*
X46044405Y-114663561D01*
G37*
%TD.AperFunction*%
%TD*%
%TA.AperFunction,Conductor*%
%TO.N,/18b*%
G36*
X43615627Y-114684090D02*
G01*
X43619145Y-114692325D01*
X43619146Y-114692454D01*
X43619146Y-114866501D01*
X43615719Y-114874774D01*
X43614091Y-114876131D01*
X43404809Y-115020537D01*
X43396053Y-115022415D01*
X43389920Y-115019209D01*
X43257873Y-114888090D01*
X43254417Y-114879829D01*
X43255335Y-114696145D01*
X43258803Y-114687892D01*
X43266905Y-114684507D01*
X43607317Y-114680755D01*
X43615627Y-114684090D01*
G37*
%TD.AperFunction*%
%TD*%
%TA.AperFunction,Conductor*%
%TO.N,/18b*%
G36*
X43643155Y-114659336D02*
G01*
X43643255Y-114659404D01*
X43801014Y-114766967D01*
X43805919Y-114774459D01*
X43804090Y-114783225D01*
X43801014Y-114786301D01*
X43643255Y-114893863D01*
X43634489Y-114895692D01*
X43634370Y-114895669D01*
X43528599Y-114874523D01*
X43521158Y-114869541D01*
X43519193Y-114863050D01*
X43519193Y-114690217D01*
X43522620Y-114681944D01*
X43528597Y-114678744D01*
X43634370Y-114657598D01*
X43643155Y-114659336D01*
G37*
%TD.AperFunction*%
%TD*%
%TA.AperFunction,Conductor*%
%TO.N,/19b*%
G36*
X46044401Y-114260796D02*
G01*
X46206099Y-114308122D01*
X46213076Y-114313735D01*
X46214041Y-114322638D01*
X46211085Y-114327624D01*
X46089267Y-114449443D01*
X46046062Y-114490160D01*
X46037691Y-114493340D01*
X46031413Y-114491289D01*
X45877764Y-114385736D01*
X45872885Y-114378227D01*
X45874745Y-114369467D01*
X45877916Y-114366346D01*
X46034659Y-114262281D01*
X46043445Y-114260561D01*
X46044401Y-114260796D01*
G37*
%TD.AperFunction*%
%TD*%
%TA.AperFunction,Conductor*%
%TO.N,/19b*%
G36*
X241394887Y-114111791D02*
G01*
X241669695Y-114268247D01*
X241675189Y-114275319D01*
X241674736Y-114282843D01*
X241604652Y-114454269D01*
X241598349Y-114460630D01*
X241598250Y-114460671D01*
X241426824Y-114530755D01*
X241417869Y-114530714D01*
X241412228Y-114525714D01*
X241255772Y-114250906D01*
X241254657Y-114242021D01*
X241257665Y-114236846D01*
X241380826Y-114113685D01*
X241389098Y-114110259D01*
X241394887Y-114111791D01*
G37*
%TD.AperFunction*%
%TD*%
%TA.AperFunction,Conductor*%
%TO.N,/20b*%
G36*
X44340881Y-114109805D02*
G01*
X44472112Y-114240114D01*
X44475568Y-114248375D01*
X44475568Y-114248475D01*
X44474646Y-114432864D01*
X44471178Y-114441119D01*
X44463923Y-114444464D01*
X44140264Y-114471580D01*
X44131733Y-114468856D01*
X44127628Y-114460898D01*
X44127587Y-114459921D01*
X44127587Y-114285961D01*
X44131014Y-114277688D01*
X44131617Y-114277126D01*
X44324968Y-114109271D01*
X44333461Y-114106436D01*
X44340881Y-114109805D01*
G37*
%TD.AperFunction*%
%TD*%
%TA.AperFunction,Conductor*%
%TO.N,/20b*%
G36*
X43994009Y-114257596D02*
G01*
X44099788Y-114278744D01*
X44107227Y-114283726D01*
X44109193Y-114290217D01*
X44109193Y-114463050D01*
X44105766Y-114471323D01*
X44099787Y-114474523D01*
X43994015Y-114495669D01*
X43985230Y-114493930D01*
X43985130Y-114493863D01*
X43827371Y-114386301D01*
X43822466Y-114378809D01*
X43824295Y-114370043D01*
X43827371Y-114366967D01*
X43985130Y-114259404D01*
X43993896Y-114257575D01*
X43994009Y-114257596D01*
G37*
%TD.AperFunction*%
%TD*%
%TA.AperFunction,Conductor*%
%TO.N,/21b*%
G36*
X46044404Y-113858091D02*
G01*
X46207646Y-113903750D01*
X46214689Y-113909279D01*
X46215761Y-113918170D01*
X46212766Y-113923291D01*
X46169757Y-113966301D01*
X46091141Y-114044917D01*
X46072809Y-114063148D01*
X46046069Y-114089742D01*
X46037787Y-114093146D01*
X46031197Y-114091091D01*
X45953739Y-114037902D01*
X45877611Y-113985626D01*
X45872731Y-113978118D01*
X45874589Y-113969358D01*
X45877657Y-113966305D01*
X46034701Y-113859683D01*
X46043469Y-113857872D01*
X46044404Y-113858091D01*
G37*
%TD.AperFunction*%
%TD*%
%TA.AperFunction,Conductor*%
%TO.N,/21b*%
G36*
X239692035Y-113657091D02*
G01*
X239693614Y-113658404D01*
X239789052Y-113753172D01*
X239824441Y-113788313D01*
X239827027Y-113792188D01*
X239896776Y-113962805D01*
X239896735Y-113971759D01*
X239890373Y-113978062D01*
X239889281Y-113978447D01*
X239525165Y-114086737D01*
X239516259Y-114085810D01*
X239510615Y-114078857D01*
X239510130Y-114075522D01*
X239510130Y-113902846D01*
X239512211Y-113896185D01*
X239675757Y-113660045D01*
X239683282Y-113655197D01*
X239692035Y-113657091D01*
G37*
%TD.AperFunction*%
%TD*%
%TA.AperFunction,Conductor*%
%TO.N,/22b*%
G36*
X43268780Y-113823073D02*
G01*
X43636623Y-113879111D01*
X43644286Y-113883745D01*
X43646561Y-113890678D01*
X43646561Y-114064889D01*
X43643134Y-114073162D01*
X43639421Y-114075664D01*
X43342737Y-114201235D01*
X43333783Y-114201303D01*
X43327402Y-114195020D01*
X43327388Y-114194987D01*
X43276267Y-114073162D01*
X43255314Y-114023229D01*
X43254404Y-114018651D01*
X43255325Y-113834581D01*
X43258793Y-113826327D01*
X43267084Y-113822941D01*
X43268780Y-113823073D01*
G37*
%TD.AperFunction*%
%TD*%
%TA.AperFunction,Conductor*%
%TO.N,/22b*%
G36*
X43643155Y-113859336D02*
G01*
X43643255Y-113859404D01*
X43801014Y-113966967D01*
X43805919Y-113974459D01*
X43804090Y-113983225D01*
X43801014Y-113986301D01*
X43643255Y-114093863D01*
X43634489Y-114095692D01*
X43634370Y-114095669D01*
X43528599Y-114074523D01*
X43521158Y-114069541D01*
X43519193Y-114063050D01*
X43519193Y-113890217D01*
X43522620Y-113881944D01*
X43528597Y-113878744D01*
X43634370Y-113857598D01*
X43643155Y-113859336D01*
G37*
%TD.AperFunction*%
%TD*%
%TA.AperFunction,Conductor*%
%TO.N,/23b*%
G36*
X241384051Y-113250002D02*
G01*
X241658859Y-113406458D01*
X241664353Y-113413530D01*
X241663900Y-113421054D01*
X241593816Y-113592480D01*
X241587513Y-113598841D01*
X241587414Y-113598882D01*
X241415988Y-113668966D01*
X241407033Y-113668925D01*
X241401392Y-113663925D01*
X241244936Y-113389117D01*
X241243821Y-113380232D01*
X241246829Y-113375057D01*
X241369990Y-113251896D01*
X241378262Y-113248470D01*
X241384051Y-113250002D01*
G37*
%TD.AperFunction*%
%TD*%
%TA.AperFunction,Conductor*%
%TO.N,/23b*%
G36*
X46044009Y-113457596D02*
G01*
X46149788Y-113478744D01*
X46157227Y-113483726D01*
X46159193Y-113490217D01*
X46159193Y-113663050D01*
X46155766Y-113671323D01*
X46149787Y-113674523D01*
X46044015Y-113695669D01*
X46035230Y-113693930D01*
X46035130Y-113693863D01*
X45877371Y-113586301D01*
X45872466Y-113578809D01*
X45874295Y-113570043D01*
X45877371Y-113566967D01*
X46035130Y-113459404D01*
X46043896Y-113457575D01*
X46044009Y-113457596D01*
G37*
%TD.AperFunction*%
%TD*%
%TA.AperFunction,Conductor*%
%TO.N,/24b*%
G36*
X43994009Y-113457596D02*
G01*
X44099788Y-113478744D01*
X44107227Y-113483726D01*
X44109193Y-113490217D01*
X44109193Y-113663050D01*
X44105766Y-113671323D01*
X44099787Y-113674523D01*
X43994015Y-113695669D01*
X43985230Y-113693930D01*
X43985130Y-113693863D01*
X43827371Y-113586301D01*
X43822466Y-113578809D01*
X43824295Y-113570043D01*
X43827371Y-113566967D01*
X43985130Y-113459404D01*
X43993896Y-113457575D01*
X43994009Y-113457596D01*
G37*
%TD.AperFunction*%
%TD*%
%TA.AperFunction,Conductor*%
%TO.N,/24b*%
G36*
X44849497Y-113265140D02*
G01*
X44851032Y-113266423D01*
X44981906Y-113396378D01*
X44984492Y-113400253D01*
X45053968Y-113570203D01*
X45053927Y-113579157D01*
X45047565Y-113585460D01*
X45045865Y-113586008D01*
X44698815Y-113669185D01*
X44689971Y-113667781D01*
X44684710Y-113660534D01*
X44684388Y-113657807D01*
X44684388Y-113484312D01*
X44686503Y-113477603D01*
X44742184Y-113398053D01*
X44833204Y-113268015D01*
X44840754Y-113263203D01*
X44849497Y-113265140D01*
G37*
%TD.AperFunction*%
%TD*%
M02*
