%TF.GenerationSoftware,KiCad,Pcbnew,(7.0.0-0)*%
%TF.CreationDate,2023-09-01T09:13:59-07:00*%
%TF.ProjectId,level_shifter_breakout,6c657665-6c5f-4736-9869-667465725f62,rev?*%
%TF.SameCoordinates,Original*%
%TF.FileFunction,Legend,Top*%
%TF.FilePolarity,Positive*%
%FSLAX46Y46*%
G04 Gerber Fmt 4.6, Leading zero omitted, Abs format (unit mm)*
G04 Created by KiCad (PCBNEW (7.0.0-0)) date 2023-09-01 09:13:59*
%MOMM*%
%LPD*%
G01*
G04 APERTURE LIST*
%ADD10C,0.150000*%
%ADD11C,0.120000*%
G04 APERTURE END LIST*
D10*
X128079476Y-82554666D02*
X128555666Y-82554666D01*
X127984238Y-82840380D02*
X128317571Y-81840380D01*
X128317571Y-81840380D02*
X128650904Y-82840380D01*
X128889000Y-81840380D02*
X129508047Y-81840380D01*
X129508047Y-81840380D02*
X129174714Y-82221333D01*
X129174714Y-82221333D02*
X129317571Y-82221333D01*
X129317571Y-82221333D02*
X129412809Y-82268952D01*
X129412809Y-82268952D02*
X129460428Y-82316571D01*
X129460428Y-82316571D02*
X129508047Y-82411809D01*
X129508047Y-82411809D02*
X129508047Y-82649904D01*
X129508047Y-82649904D02*
X129460428Y-82745142D01*
X129460428Y-82745142D02*
X129412809Y-82792761D01*
X129412809Y-82792761D02*
X129317571Y-82840380D01*
X129317571Y-82840380D02*
X129031857Y-82840380D01*
X129031857Y-82840380D02*
X128936619Y-82792761D01*
X128936619Y-82792761D02*
X128889000Y-82745142D01*
X141414428Y-84856571D02*
X141557285Y-84904190D01*
X141557285Y-84904190D02*
X141604904Y-84951809D01*
X141604904Y-84951809D02*
X141652523Y-85047047D01*
X141652523Y-85047047D02*
X141652523Y-85189904D01*
X141652523Y-85189904D02*
X141604904Y-85285142D01*
X141604904Y-85285142D02*
X141557285Y-85332761D01*
X141557285Y-85332761D02*
X141462047Y-85380380D01*
X141462047Y-85380380D02*
X141081095Y-85380380D01*
X141081095Y-85380380D02*
X141081095Y-84380380D01*
X141081095Y-84380380D02*
X141414428Y-84380380D01*
X141414428Y-84380380D02*
X141509666Y-84428000D01*
X141509666Y-84428000D02*
X141557285Y-84475619D01*
X141557285Y-84475619D02*
X141604904Y-84570857D01*
X141604904Y-84570857D02*
X141604904Y-84666095D01*
X141604904Y-84666095D02*
X141557285Y-84761333D01*
X141557285Y-84761333D02*
X141509666Y-84808952D01*
X141509666Y-84808952D02*
X141414428Y-84856571D01*
X141414428Y-84856571D02*
X141081095Y-84856571D01*
X142509666Y-84713714D02*
X142509666Y-85380380D01*
X142271571Y-84332761D02*
X142033476Y-85047047D01*
X142033476Y-85047047D02*
X142652523Y-85047047D01*
X143223952Y-84904190D02*
X143223952Y-85380380D01*
X142890619Y-84380380D02*
X143223952Y-84904190D01*
X143223952Y-84904190D02*
X143557285Y-84380380D01*
X141414428Y-82316571D02*
X141557285Y-82364190D01*
X141557285Y-82364190D02*
X141604904Y-82411809D01*
X141604904Y-82411809D02*
X141652523Y-82507047D01*
X141652523Y-82507047D02*
X141652523Y-82649904D01*
X141652523Y-82649904D02*
X141604904Y-82745142D01*
X141604904Y-82745142D02*
X141557285Y-82792761D01*
X141557285Y-82792761D02*
X141462047Y-82840380D01*
X141462047Y-82840380D02*
X141081095Y-82840380D01*
X141081095Y-82840380D02*
X141081095Y-81840380D01*
X141081095Y-81840380D02*
X141414428Y-81840380D01*
X141414428Y-81840380D02*
X141509666Y-81888000D01*
X141509666Y-81888000D02*
X141557285Y-81935619D01*
X141557285Y-81935619D02*
X141604904Y-82030857D01*
X141604904Y-82030857D02*
X141604904Y-82126095D01*
X141604904Y-82126095D02*
X141557285Y-82221333D01*
X141557285Y-82221333D02*
X141509666Y-82268952D01*
X141509666Y-82268952D02*
X141414428Y-82316571D01*
X141414428Y-82316571D02*
X141081095Y-82316571D01*
X141985857Y-81840380D02*
X142604904Y-81840380D01*
X142604904Y-81840380D02*
X142271571Y-82221333D01*
X142271571Y-82221333D02*
X142414428Y-82221333D01*
X142414428Y-82221333D02*
X142509666Y-82268952D01*
X142509666Y-82268952D02*
X142557285Y-82316571D01*
X142557285Y-82316571D02*
X142604904Y-82411809D01*
X142604904Y-82411809D02*
X142604904Y-82649904D01*
X142604904Y-82649904D02*
X142557285Y-82745142D01*
X142557285Y-82745142D02*
X142509666Y-82792761D01*
X142509666Y-82792761D02*
X142414428Y-82840380D01*
X142414428Y-82840380D02*
X142128714Y-82840380D01*
X142128714Y-82840380D02*
X142033476Y-82792761D01*
X142033476Y-82792761D02*
X141985857Y-82745142D01*
X143223952Y-82364190D02*
X143223952Y-82840380D01*
X142890619Y-81840380D02*
X143223952Y-82364190D01*
X143223952Y-82364190D02*
X143557285Y-81840380D01*
X128079476Y-77728666D02*
X128555666Y-77728666D01*
X127984238Y-78014380D02*
X128317571Y-77014380D01*
X128317571Y-77014380D02*
X128650904Y-78014380D01*
X129508047Y-78014380D02*
X128936619Y-78014380D01*
X129222333Y-78014380D02*
X129222333Y-77014380D01*
X129222333Y-77014380D02*
X129127095Y-77157238D01*
X129127095Y-77157238D02*
X129031857Y-77252476D01*
X129031857Y-77252476D02*
X128936619Y-77300095D01*
X141414428Y-77236571D02*
X141557285Y-77284190D01*
X141557285Y-77284190D02*
X141604904Y-77331809D01*
X141604904Y-77331809D02*
X141652523Y-77427047D01*
X141652523Y-77427047D02*
X141652523Y-77569904D01*
X141652523Y-77569904D02*
X141604904Y-77665142D01*
X141604904Y-77665142D02*
X141557285Y-77712761D01*
X141557285Y-77712761D02*
X141462047Y-77760380D01*
X141462047Y-77760380D02*
X141081095Y-77760380D01*
X141081095Y-77760380D02*
X141081095Y-76760380D01*
X141081095Y-76760380D02*
X141414428Y-76760380D01*
X141414428Y-76760380D02*
X141509666Y-76808000D01*
X141509666Y-76808000D02*
X141557285Y-76855619D01*
X141557285Y-76855619D02*
X141604904Y-76950857D01*
X141604904Y-76950857D02*
X141604904Y-77046095D01*
X141604904Y-77046095D02*
X141557285Y-77141333D01*
X141557285Y-77141333D02*
X141509666Y-77188952D01*
X141509666Y-77188952D02*
X141414428Y-77236571D01*
X141414428Y-77236571D02*
X141081095Y-77236571D01*
X142604904Y-77760380D02*
X142033476Y-77760380D01*
X142319190Y-77760380D02*
X142319190Y-76760380D01*
X142319190Y-76760380D02*
X142223952Y-76903238D01*
X142223952Y-76903238D02*
X142128714Y-76998476D01*
X142128714Y-76998476D02*
X142033476Y-77046095D01*
X143223952Y-77284190D02*
X143223952Y-77760380D01*
X142890619Y-76760380D02*
X143223952Y-77284190D01*
X143223952Y-77284190D02*
X143557285Y-76760380D01*
X127984238Y-74474380D02*
X128317571Y-75474380D01*
X128317571Y-75474380D02*
X128650904Y-74474380D01*
X129412809Y-75426761D02*
X129317571Y-75474380D01*
X129317571Y-75474380D02*
X129127095Y-75474380D01*
X129127095Y-75474380D02*
X129031857Y-75426761D01*
X129031857Y-75426761D02*
X128984238Y-75379142D01*
X128984238Y-75379142D02*
X128936619Y-75283904D01*
X128936619Y-75283904D02*
X128936619Y-74998190D01*
X128936619Y-74998190D02*
X128984238Y-74902952D01*
X128984238Y-74902952D02*
X129031857Y-74855333D01*
X129031857Y-74855333D02*
X129127095Y-74807714D01*
X129127095Y-74807714D02*
X129317571Y-74807714D01*
X129317571Y-74807714D02*
X129412809Y-74855333D01*
X130269952Y-75426761D02*
X130174714Y-75474380D01*
X130174714Y-75474380D02*
X129984238Y-75474380D01*
X129984238Y-75474380D02*
X129889000Y-75426761D01*
X129889000Y-75426761D02*
X129841381Y-75379142D01*
X129841381Y-75379142D02*
X129793762Y-75283904D01*
X129793762Y-75283904D02*
X129793762Y-74998190D01*
X129793762Y-74998190D02*
X129841381Y-74902952D01*
X129841381Y-74902952D02*
X129889000Y-74855333D01*
X129889000Y-74855333D02*
X129984238Y-74807714D01*
X129984238Y-74807714D02*
X130174714Y-74807714D01*
X130174714Y-74807714D02*
X130269952Y-74855333D01*
X131127095Y-75474380D02*
X131127095Y-74950571D01*
X131127095Y-74950571D02*
X131079476Y-74855333D01*
X131079476Y-74855333D02*
X130984238Y-74807714D01*
X130984238Y-74807714D02*
X130793762Y-74807714D01*
X130793762Y-74807714D02*
X130698524Y-74855333D01*
X131127095Y-75426761D02*
X131031857Y-75474380D01*
X131031857Y-75474380D02*
X130793762Y-75474380D01*
X130793762Y-75474380D02*
X130698524Y-75426761D01*
X130698524Y-75426761D02*
X130650905Y-75331523D01*
X130650905Y-75331523D02*
X130650905Y-75236285D01*
X130650905Y-75236285D02*
X130698524Y-75141047D01*
X130698524Y-75141047D02*
X130793762Y-75093428D01*
X130793762Y-75093428D02*
X131031857Y-75093428D01*
X131031857Y-75093428D02*
X131127095Y-75045809D01*
X141414428Y-79776571D02*
X141557285Y-79824190D01*
X141557285Y-79824190D02*
X141604904Y-79871809D01*
X141604904Y-79871809D02*
X141652523Y-79967047D01*
X141652523Y-79967047D02*
X141652523Y-80109904D01*
X141652523Y-80109904D02*
X141604904Y-80205142D01*
X141604904Y-80205142D02*
X141557285Y-80252761D01*
X141557285Y-80252761D02*
X141462047Y-80300380D01*
X141462047Y-80300380D02*
X141081095Y-80300380D01*
X141081095Y-80300380D02*
X141081095Y-79300380D01*
X141081095Y-79300380D02*
X141414428Y-79300380D01*
X141414428Y-79300380D02*
X141509666Y-79348000D01*
X141509666Y-79348000D02*
X141557285Y-79395619D01*
X141557285Y-79395619D02*
X141604904Y-79490857D01*
X141604904Y-79490857D02*
X141604904Y-79586095D01*
X141604904Y-79586095D02*
X141557285Y-79681333D01*
X141557285Y-79681333D02*
X141509666Y-79728952D01*
X141509666Y-79728952D02*
X141414428Y-79776571D01*
X141414428Y-79776571D02*
X141081095Y-79776571D01*
X142033476Y-79395619D02*
X142081095Y-79348000D01*
X142081095Y-79348000D02*
X142176333Y-79300380D01*
X142176333Y-79300380D02*
X142414428Y-79300380D01*
X142414428Y-79300380D02*
X142509666Y-79348000D01*
X142509666Y-79348000D02*
X142557285Y-79395619D01*
X142557285Y-79395619D02*
X142604904Y-79490857D01*
X142604904Y-79490857D02*
X142604904Y-79586095D01*
X142604904Y-79586095D02*
X142557285Y-79728952D01*
X142557285Y-79728952D02*
X141985857Y-80300380D01*
X141985857Y-80300380D02*
X142604904Y-80300380D01*
X143223952Y-79824190D02*
X143223952Y-80300380D01*
X142890619Y-79300380D02*
X143223952Y-79824190D01*
X143223952Y-79824190D02*
X143557285Y-79300380D01*
X141716095Y-88174380D02*
X141716095Y-87174380D01*
X141716095Y-87174380D02*
X142287523Y-88174380D01*
X142287523Y-88174380D02*
X142287523Y-87174380D01*
X143335142Y-88079142D02*
X143287523Y-88126761D01*
X143287523Y-88126761D02*
X143144666Y-88174380D01*
X143144666Y-88174380D02*
X143049428Y-88174380D01*
X143049428Y-88174380D02*
X142906571Y-88126761D01*
X142906571Y-88126761D02*
X142811333Y-88031523D01*
X142811333Y-88031523D02*
X142763714Y-87936285D01*
X142763714Y-87936285D02*
X142716095Y-87745809D01*
X142716095Y-87745809D02*
X142716095Y-87602952D01*
X142716095Y-87602952D02*
X142763714Y-87412476D01*
X142763714Y-87412476D02*
X142811333Y-87317238D01*
X142811333Y-87317238D02*
X142906571Y-87222000D01*
X142906571Y-87222000D02*
X143049428Y-87174380D01*
X143049428Y-87174380D02*
X143144666Y-87174380D01*
X143144666Y-87174380D02*
X143287523Y-87222000D01*
X143287523Y-87222000D02*
X143335142Y-87269619D01*
X128127095Y-88174380D02*
X128127095Y-87174380D01*
X128127095Y-87174380D02*
X128698523Y-88174380D01*
X128698523Y-88174380D02*
X128698523Y-87174380D01*
X129746142Y-88079142D02*
X129698523Y-88126761D01*
X129698523Y-88126761D02*
X129555666Y-88174380D01*
X129555666Y-88174380D02*
X129460428Y-88174380D01*
X129460428Y-88174380D02*
X129317571Y-88126761D01*
X129317571Y-88126761D02*
X129222333Y-88031523D01*
X129222333Y-88031523D02*
X129174714Y-87936285D01*
X129174714Y-87936285D02*
X129127095Y-87745809D01*
X129127095Y-87745809D02*
X129127095Y-87602952D01*
X129127095Y-87602952D02*
X129174714Y-87412476D01*
X129174714Y-87412476D02*
X129222333Y-87317238D01*
X129222333Y-87317238D02*
X129317571Y-87222000D01*
X129317571Y-87222000D02*
X129460428Y-87174380D01*
X129460428Y-87174380D02*
X129555666Y-87174380D01*
X129555666Y-87174380D02*
X129698523Y-87222000D01*
X129698523Y-87222000D02*
X129746142Y-87269619D01*
X128079476Y-80268666D02*
X128555666Y-80268666D01*
X127984238Y-80554380D02*
X128317571Y-79554380D01*
X128317571Y-79554380D02*
X128650904Y-80554380D01*
X128936619Y-79649619D02*
X128984238Y-79602000D01*
X128984238Y-79602000D02*
X129079476Y-79554380D01*
X129079476Y-79554380D02*
X129317571Y-79554380D01*
X129317571Y-79554380D02*
X129412809Y-79602000D01*
X129412809Y-79602000D02*
X129460428Y-79649619D01*
X129460428Y-79649619D02*
X129508047Y-79744857D01*
X129508047Y-79744857D02*
X129508047Y-79840095D01*
X129508047Y-79840095D02*
X129460428Y-79982952D01*
X129460428Y-79982952D02*
X128889000Y-80554380D01*
X128889000Y-80554380D02*
X129508047Y-80554380D01*
X140303238Y-74220380D02*
X140636571Y-75220380D01*
X140636571Y-75220380D02*
X140969904Y-74220380D01*
X141731809Y-75172761D02*
X141636571Y-75220380D01*
X141636571Y-75220380D02*
X141446095Y-75220380D01*
X141446095Y-75220380D02*
X141350857Y-75172761D01*
X141350857Y-75172761D02*
X141303238Y-75125142D01*
X141303238Y-75125142D02*
X141255619Y-75029904D01*
X141255619Y-75029904D02*
X141255619Y-74744190D01*
X141255619Y-74744190D02*
X141303238Y-74648952D01*
X141303238Y-74648952D02*
X141350857Y-74601333D01*
X141350857Y-74601333D02*
X141446095Y-74553714D01*
X141446095Y-74553714D02*
X141636571Y-74553714D01*
X141636571Y-74553714D02*
X141731809Y-74601333D01*
X142588952Y-75172761D02*
X142493714Y-75220380D01*
X142493714Y-75220380D02*
X142303238Y-75220380D01*
X142303238Y-75220380D02*
X142208000Y-75172761D01*
X142208000Y-75172761D02*
X142160381Y-75125142D01*
X142160381Y-75125142D02*
X142112762Y-75029904D01*
X142112762Y-75029904D02*
X142112762Y-74744190D01*
X142112762Y-74744190D02*
X142160381Y-74648952D01*
X142160381Y-74648952D02*
X142208000Y-74601333D01*
X142208000Y-74601333D02*
X142303238Y-74553714D01*
X142303238Y-74553714D02*
X142493714Y-74553714D01*
X142493714Y-74553714D02*
X142588952Y-74601333D01*
X143017524Y-75220380D02*
X143017524Y-74220380D01*
X143017524Y-74601333D02*
X143112762Y-74553714D01*
X143112762Y-74553714D02*
X143303238Y-74553714D01*
X143303238Y-74553714D02*
X143398476Y-74601333D01*
X143398476Y-74601333D02*
X143446095Y-74648952D01*
X143446095Y-74648952D02*
X143493714Y-74744190D01*
X143493714Y-74744190D02*
X143493714Y-75029904D01*
X143493714Y-75029904D02*
X143446095Y-75125142D01*
X143446095Y-75125142D02*
X143398476Y-75172761D01*
X143398476Y-75172761D02*
X143303238Y-75220380D01*
X143303238Y-75220380D02*
X143112762Y-75220380D01*
X143112762Y-75220380D02*
X143017524Y-75172761D01*
X128079476Y-85094666D02*
X128555666Y-85094666D01*
X127984238Y-85380380D02*
X128317571Y-84380380D01*
X128317571Y-84380380D02*
X128650904Y-85380380D01*
X129412809Y-84713714D02*
X129412809Y-85380380D01*
X129174714Y-84332761D02*
X128936619Y-85047047D01*
X128936619Y-85047047D02*
X129555666Y-85047047D01*
X141906571Y-89714380D02*
X142097047Y-89714380D01*
X142097047Y-89714380D02*
X142192285Y-89762000D01*
X142192285Y-89762000D02*
X142287523Y-89857238D01*
X142287523Y-89857238D02*
X142335142Y-90047714D01*
X142335142Y-90047714D02*
X142335142Y-90381047D01*
X142335142Y-90381047D02*
X142287523Y-90571523D01*
X142287523Y-90571523D02*
X142192285Y-90666761D01*
X142192285Y-90666761D02*
X142097047Y-90714380D01*
X142097047Y-90714380D02*
X141906571Y-90714380D01*
X141906571Y-90714380D02*
X141811333Y-90666761D01*
X141811333Y-90666761D02*
X141716095Y-90571523D01*
X141716095Y-90571523D02*
X141668476Y-90381047D01*
X141668476Y-90381047D02*
X141668476Y-90047714D01*
X141668476Y-90047714D02*
X141716095Y-89857238D01*
X141716095Y-89857238D02*
X141811333Y-89762000D01*
X141811333Y-89762000D02*
X141906571Y-89714380D01*
X142763714Y-90190571D02*
X143097047Y-90190571D01*
X143239904Y-90714380D02*
X142763714Y-90714380D01*
X142763714Y-90714380D02*
X142763714Y-89714380D01*
X142763714Y-89714380D02*
X143239904Y-89714380D01*
X128650904Y-90016000D02*
X128555666Y-89968380D01*
X128555666Y-89968380D02*
X128412809Y-89968380D01*
X128412809Y-89968380D02*
X128269952Y-90016000D01*
X128269952Y-90016000D02*
X128174714Y-90111238D01*
X128174714Y-90111238D02*
X128127095Y-90206476D01*
X128127095Y-90206476D02*
X128079476Y-90396952D01*
X128079476Y-90396952D02*
X128079476Y-90539809D01*
X128079476Y-90539809D02*
X128127095Y-90730285D01*
X128127095Y-90730285D02*
X128174714Y-90825523D01*
X128174714Y-90825523D02*
X128269952Y-90920761D01*
X128269952Y-90920761D02*
X128412809Y-90968380D01*
X128412809Y-90968380D02*
X128508047Y-90968380D01*
X128508047Y-90968380D02*
X128650904Y-90920761D01*
X128650904Y-90920761D02*
X128698523Y-90873142D01*
X128698523Y-90873142D02*
X128698523Y-90539809D01*
X128698523Y-90539809D02*
X128508047Y-90539809D01*
X129127095Y-90968380D02*
X129127095Y-89968380D01*
X129127095Y-89968380D02*
X129698523Y-90968380D01*
X129698523Y-90968380D02*
X129698523Y-89968380D01*
X130174714Y-90968380D02*
X130174714Y-89968380D01*
X130174714Y-89968380D02*
X130412809Y-89968380D01*
X130412809Y-89968380D02*
X130555666Y-90016000D01*
X130555666Y-90016000D02*
X130650904Y-90111238D01*
X130650904Y-90111238D02*
X130698523Y-90206476D01*
X130698523Y-90206476D02*
X130746142Y-90396952D01*
X130746142Y-90396952D02*
X130746142Y-90539809D01*
X130746142Y-90539809D02*
X130698523Y-90730285D01*
X130698523Y-90730285D02*
X130650904Y-90825523D01*
X130650904Y-90825523D02*
X130555666Y-90920761D01*
X130555666Y-90920761D02*
X130412809Y-90968380D01*
X130412809Y-90968380D02*
X130174714Y-90968380D01*
%TO.C,J2*%
X145716666Y-71967380D02*
X145716666Y-72681666D01*
X145716666Y-72681666D02*
X145669047Y-72824523D01*
X145669047Y-72824523D02*
X145573809Y-72919761D01*
X145573809Y-72919761D02*
X145430952Y-72967380D01*
X145430952Y-72967380D02*
X145335714Y-72967380D01*
X146145238Y-72062619D02*
X146192857Y-72015000D01*
X146192857Y-72015000D02*
X146288095Y-71967380D01*
X146288095Y-71967380D02*
X146526190Y-71967380D01*
X146526190Y-71967380D02*
X146621428Y-72015000D01*
X146621428Y-72015000D02*
X146669047Y-72062619D01*
X146669047Y-72062619D02*
X146716666Y-72157857D01*
X146716666Y-72157857D02*
X146716666Y-72253095D01*
X146716666Y-72253095D02*
X146669047Y-72395952D01*
X146669047Y-72395952D02*
X146097619Y-72967380D01*
X146097619Y-72967380D02*
X146716666Y-72967380D01*
%TO.C,J1*%
X125396666Y-91867380D02*
X125396666Y-92581666D01*
X125396666Y-92581666D02*
X125349047Y-92724523D01*
X125349047Y-92724523D02*
X125253809Y-92819761D01*
X125253809Y-92819761D02*
X125110952Y-92867380D01*
X125110952Y-92867380D02*
X125015714Y-92867380D01*
X126396666Y-92867380D02*
X125825238Y-92867380D01*
X126110952Y-92867380D02*
X126110952Y-91867380D01*
X126110952Y-91867380D02*
X126015714Y-92010238D01*
X126015714Y-92010238D02*
X125920476Y-92105476D01*
X125920476Y-92105476D02*
X125825238Y-92153095D01*
%TO.C,U1*%
X135059595Y-78467380D02*
X135059595Y-79276904D01*
X135059595Y-79276904D02*
X135107214Y-79372142D01*
X135107214Y-79372142D02*
X135154833Y-79419761D01*
X135154833Y-79419761D02*
X135250071Y-79467380D01*
X135250071Y-79467380D02*
X135440547Y-79467380D01*
X135440547Y-79467380D02*
X135535785Y-79419761D01*
X135535785Y-79419761D02*
X135583404Y-79372142D01*
X135583404Y-79372142D02*
X135631023Y-79276904D01*
X135631023Y-79276904D02*
X135631023Y-78467380D01*
X136631023Y-79467380D02*
X136059595Y-79467380D01*
X136345309Y-79467380D02*
X136345309Y-78467380D01*
X136345309Y-78467380D02*
X136250071Y-78610238D01*
X136250071Y-78610238D02*
X136154833Y-78705476D01*
X136154833Y-78705476D02*
X136059595Y-78753095D01*
D11*
%TO.C,J2*%
X144720000Y-73600000D02*
X146050000Y-73600000D01*
X144720000Y-74930000D02*
X144720000Y-73600000D01*
X144720000Y-76200000D02*
X144720000Y-91500000D01*
X144720000Y-76200000D02*
X147380000Y-76200000D01*
X144720000Y-91500000D02*
X147380000Y-91500000D01*
X147380000Y-76200000D02*
X147380000Y-91500000D01*
%TO.C,J1*%
X127060000Y-91500000D02*
X125730000Y-91500000D01*
X127060000Y-90170000D02*
X127060000Y-91500000D01*
X127060000Y-88900000D02*
X127060000Y-73600000D01*
X127060000Y-88900000D02*
X124400000Y-88900000D01*
X127060000Y-73600000D02*
X124400000Y-73600000D01*
X124400000Y-88900000D02*
X124400000Y-73600000D01*
%TO.C,U1*%
X133885916Y-79940000D02*
X132171500Y-79940000D01*
X133885916Y-85160000D02*
X133621500Y-85160000D01*
X137757084Y-79940000D02*
X138021500Y-79940000D01*
X137757084Y-85160000D02*
X138021500Y-85160000D01*
%TD*%
M02*
