M48
; DRILL file {KiCad 7.0.8} date 2023 November 05, Sunday 13:21:05
; FORMAT={-:-/ absolute / metric / decimal}
; #@! TF.CreationDate,2023-11-05T13:21:05-08:00
; #@! TF.GenerationSoftware,Kicad,Pcbnew,7.0.8
; #@! TF.FileFunction,Plated,1,2,PTH
FMAT,2
METRIC
; #@! TA.AperFunction,Plated,PTH,ViaDrill
T1C0.250
%
G90
G05
T1
X41.097Y-116.332
X43.255Y-114.021
X43.255Y-114.885
X43.255Y-115.647
X43.332Y-117.347
X43.337Y-116.532
X43.408Y-118.187
X44.424Y-115.935
X44.45Y-117.653
X44.475Y-114.244
X44.958Y-116.653
X44.983Y-113.398
X45.06Y-115.027
X239.356Y-118.27
X239.624Y-117.094
X239.825Y-113.79
X239.827Y-115.554
X240.436Y-116.332
X240.487Y-114.537
X241.591Y-113.596
X241.597Y-116.834
X241.602Y-114.458
X241.603Y-115.263
X241.604Y-116.071
X241.633Y-117.759
T0
M30
