%TF.GenerationSoftware,KiCad,Pcbnew,7.0.8*%
%TF.CreationDate,2023-11-05T13:21:07-08:00*%
%TF.ProjectId,flex_camera_conn,666c6578-5f63-4616-9d65-72615f636f6e,rev?*%
%TF.SameCoordinates,Original*%
%TF.FileFunction,Copper,L1,Top*%
%TF.FilePolarity,Positive*%
%FSLAX46Y46*%
G04 Gerber Fmt 4.6, Leading zero omitted, Abs format (unit mm)*
G04 Created by KiCad (PCBNEW 7.0.8) date 2023-11-05 13:21:07*
%MOMM*%
%LPD*%
G01*
G04 APERTURE LIST*
%TA.AperFunction,SMDPad,CuDef*%
%ADD10R,0.450000X0.240000*%
%TD*%
%TA.AperFunction,SMDPad,CuDef*%
%ADD11R,0.470000X0.500000*%
%TD*%
%TA.AperFunction,ViaPad*%
%ADD12C,0.400000*%
%TD*%
%TA.AperFunction,Conductor*%
%ADD13C,0.203200*%
%TD*%
%TA.AperFunction,Conductor*%
%ADD14C,0.192019*%
%TD*%
G04 APERTURE END LIST*
D10*
%TO.P,J1,1,1*%
%TO.N,/1b*%
X241055052Y-117831918D03*
%TO.P,J1,2,2*%
%TO.N,/2b*%
X238705052Y-117831918D03*
%TO.P,J1,3,3*%
%TO.N,/3b*%
X241055052Y-117431918D03*
%TO.P,J1,4,4*%
%TO.N,/4b*%
X238705052Y-117431918D03*
%TO.P,J1,5,5*%
%TO.N,/5b*%
X241055052Y-117031918D03*
%TO.P,J1,6,6*%
%TO.N,/6b*%
X238705052Y-117031918D03*
%TO.P,J1,7,7*%
%TO.N,/7b*%
X241055052Y-116631918D03*
%TO.P,J1,8,8*%
%TO.N,/8b*%
X238705052Y-116631918D03*
%TO.P,J1,9,9*%
%TO.N,/9b*%
X241055052Y-116231918D03*
%TO.P,J1,10,10*%
%TO.N,/10b*%
X238705052Y-116231918D03*
%TO.P,J1,11,11*%
%TO.N,/11b*%
X241055052Y-115831918D03*
%TO.P,J1,12,12*%
%TO.N,/12b*%
X238705052Y-115831918D03*
%TO.P,J1,13,13*%
%TO.N,/13b*%
X241055052Y-115431918D03*
%TO.P,J1,14,14*%
%TO.N,/14b*%
X238705052Y-115431918D03*
%TO.P,J1,15,15*%
%TO.N,/15b*%
X241055052Y-115031918D03*
%TO.P,J1,16,16*%
%TO.N,/16b*%
X238705052Y-115031918D03*
%TO.P,J1,17,17*%
%TO.N,/17b*%
X241055052Y-114631918D03*
%TO.P,J1,18,18*%
%TO.N,/18b*%
X238705052Y-114631918D03*
%TO.P,J1,19,19*%
%TO.N,/19b*%
X241055052Y-114231918D03*
%TO.P,J1,20,20*%
%TO.N,/20b*%
X238705052Y-114231918D03*
%TO.P,J1,21,21*%
%TO.N,/21b*%
X241055052Y-113831918D03*
%TO.P,J1,22,22*%
%TO.N,/22b*%
X238705052Y-113831918D03*
%TO.P,J1,23,23*%
%TO.N,/23b*%
X241055052Y-113431918D03*
%TO.P,J1,24,24*%
%TO.N,/24b*%
X238705052Y-113431918D03*
D11*
%TO.P,J1,FN1,FN1*%
%TO.N,GND*%
X238735052Y-118581918D03*
%TO.P,J1,FN2,FN2*%
X241025052Y-118581918D03*
%TO.P,J1,FN3,FN3*%
X241025052Y-112681918D03*
%TO.P,J1,FN4,FN4*%
X238735052Y-112681918D03*
%TD*%
D12*
%TO.N,GND*%
X41097200Y-116332000D03*
%TO.N,/1b*%
X239356052Y-118269918D03*
%TO.N,/2b*%
X43407793Y-118186634D03*
%TO.N,/3b*%
X241632961Y-117759091D03*
%TO.N,/4b*%
X44450000Y-117652800D03*
%TO.N,/5b*%
X239623600Y-117094000D03*
%TO.N,/6b*%
X43331780Y-117346635D03*
%TO.N,/7b*%
X241597003Y-116833532D03*
%TO.N,/8b*%
X44958000Y-116652909D03*
%TO.N,/9b*%
X240436400Y-116332000D03*
%TO.N,/10b*%
X43337431Y-116531965D03*
%TO.N,/11b*%
X241603993Y-116071116D03*
%TO.N,/12b*%
X44423793Y-115934607D03*
%TO.N,/13b*%
X239826800Y-115553891D03*
%TO.N,/14b*%
X43255393Y-115646634D03*
%TO.N,/15b*%
X241602915Y-115263315D03*
%TO.N,/16b*%
X45059600Y-115027309D03*
%TO.N,/17b*%
X240487200Y-114537391D03*
%TO.N,/18b*%
X43255393Y-114884634D03*
%TO.N,/19b*%
X241602088Y-114458107D03*
%TO.N,/20b*%
X44474593Y-114243571D03*
%TO.N,/21b*%
X239825128Y-113789988D03*
%TO.N,/22b*%
X43255393Y-114021034D03*
%TO.N,/23b*%
X241591252Y-113596318D03*
%TO.N,/24b*%
X44982593Y-113398053D03*
%TD*%
D13*
%TO.N,GND*%
X240908452Y-118698518D02*
X241025052Y-118581918D01*
X238735052Y-112681918D02*
X241025052Y-112681918D01*
X238735052Y-118581918D02*
X238851652Y-118698518D01*
X238851652Y-118698518D02*
X240908452Y-118698518D01*
D14*
%TO.N,/1b*%
X241216775Y-117831918D02*
X241055052Y-117831918D01*
X239356052Y-118269918D02*
X239864052Y-118269918D01*
X240302052Y-117831918D02*
X241055052Y-117831918D01*
X239864052Y-118269918D02*
X240302052Y-117831918D01*
%TO.N,/2b*%
X238075518Y-117831918D02*
X238048800Y-117805200D01*
X43518618Y-118075809D02*
X43407793Y-118186634D01*
X238705052Y-117831918D02*
X238075518Y-117831918D01*
X44895826Y-117805200D02*
X44625217Y-118075809D01*
X238048800Y-117805200D02*
X44895826Y-117805200D01*
X44625217Y-118075809D02*
X43518618Y-118075809D01*
%TO.N,/3b*%
X241315436Y-117431918D02*
X241055052Y-117431918D01*
X241632961Y-117749443D02*
X241315436Y-117431918D01*
X241004052Y-117380918D02*
X241055052Y-117431918D01*
X241632961Y-117759091D02*
X241632961Y-117749443D01*
%TO.N,/4b*%
X238048800Y-117398800D02*
X238081918Y-117431918D01*
X44450000Y-117652800D02*
X44704000Y-117398800D01*
X44704000Y-117398800D02*
X238048800Y-117398800D01*
X238081918Y-117431918D02*
X238705052Y-117431918D01*
%TO.N,/5b*%
X239685682Y-117031918D02*
X241055052Y-117031918D01*
X239623600Y-117094000D02*
X239685682Y-117031918D01*
%TO.N,/6b*%
X238048800Y-116992400D02*
X238088318Y-117031918D01*
X43475781Y-117202634D02*
X43331780Y-117346635D01*
X45437426Y-117075918D02*
X43603497Y-117075918D01*
X43476281Y-117203134D02*
X43475781Y-117202634D01*
X45520944Y-116992400D02*
X238048800Y-116992400D01*
X45520944Y-116992400D02*
X45437426Y-117075918D01*
X43603497Y-117075918D02*
X43476281Y-117203134D01*
X238088318Y-117031918D02*
X238705052Y-117031918D01*
%TO.N,/7b*%
X241597003Y-116833532D02*
X241395389Y-116631918D01*
X241395389Y-116631918D02*
X241055052Y-116631918D01*
%TO.N,/8b*%
X44958000Y-116652909D02*
X45007777Y-116652909D01*
X238094718Y-116631918D02*
X238048800Y-116586000D01*
X238705052Y-116631918D02*
X238094718Y-116631918D01*
X238048800Y-116586000D02*
X45024909Y-116586000D01*
X45024909Y-116586000D02*
X44958000Y-116652909D01*
%TO.N,/9b*%
X240536482Y-116231918D02*
X241055052Y-116231918D01*
X240436400Y-116332000D02*
X240536482Y-116231918D01*
%TO.N,/10b*%
X238705052Y-116231918D02*
X238050318Y-116231918D01*
X238050318Y-116231918D02*
X238048800Y-116230400D01*
X43512280Y-116357116D02*
X43337431Y-116531965D01*
X44598792Y-116357834D02*
X43512998Y-116357834D01*
X238048800Y-116230400D02*
X44726226Y-116230400D01*
X44726226Y-116230400D02*
X44598792Y-116357834D01*
X43512998Y-116357834D02*
X43512280Y-116357116D01*
%TO.N,/11b*%
X241364795Y-115831918D02*
X241055052Y-115831918D01*
X241603993Y-116071116D02*
X241364795Y-115831918D01*
%TO.N,/12b*%
X44534400Y-115824000D02*
X238099600Y-115824000D01*
X238099600Y-115824000D02*
X238107518Y-115831918D01*
X238107518Y-115831918D02*
X238705052Y-115831918D01*
X44423793Y-115934607D02*
X44491820Y-116002634D01*
X44423793Y-115934607D02*
X44534400Y-115824000D01*
%TO.N,/13b*%
X239826800Y-115553891D02*
X239948773Y-115431918D01*
X239948773Y-115431918D02*
X241055052Y-115431918D01*
X241099052Y-115475918D02*
X241055052Y-115431918D01*
%TO.N,/14b*%
X237941170Y-115468400D02*
X43433627Y-115468400D01*
X237941170Y-115468400D02*
X237977652Y-115431918D01*
X43433627Y-115468400D02*
X43255393Y-115646634D01*
X237977652Y-115431918D02*
X238705052Y-115431918D01*
%TO.N,/15b*%
X241371518Y-115031918D02*
X241055052Y-115031918D01*
X241602915Y-115263315D02*
X241371518Y-115031918D01*
%TO.N,/16b*%
X238201200Y-114960400D02*
X238272718Y-115031918D01*
X45415200Y-114960400D02*
X238201200Y-114960400D01*
D13*
X45348291Y-115027309D02*
X45415200Y-114960400D01*
D14*
X238272718Y-115031918D02*
X238705052Y-115031918D01*
D13*
X45059600Y-115027309D02*
X45348291Y-115027309D01*
D14*
%TO.N,/17b*%
X240581727Y-114631918D02*
X241055052Y-114631918D01*
X240487200Y-114537391D02*
X240581727Y-114631918D01*
X241103561Y-114583409D02*
X241055052Y-114631918D01*
%TO.N,/18b*%
X238201200Y-114604800D02*
X238228318Y-114631918D01*
X43255393Y-114884634D02*
X43473947Y-114666080D01*
X44650310Y-114666080D02*
X44711590Y-114604800D01*
X238228318Y-114631918D02*
X238705052Y-114631918D01*
X43473947Y-114666080D02*
X44650310Y-114666080D01*
X44711590Y-114604800D02*
X238201200Y-114604800D01*
%TO.N,/19b*%
X241602088Y-114458107D02*
X241375899Y-114231918D01*
X241375899Y-114231918D02*
X241055052Y-114231918D01*
%TO.N,/20b*%
X238705052Y-114231918D02*
X238285518Y-114231918D01*
X238285518Y-114231918D02*
X238252000Y-114198400D01*
X44519764Y-114198400D02*
X44474593Y-114243571D01*
X238252000Y-114198400D02*
X44519764Y-114198400D01*
%TO.N,/21b*%
X239825128Y-113789988D02*
X241013122Y-113789988D01*
X241013122Y-113789988D02*
X241055052Y-113831918D01*
%TO.N,/22b*%
X238291918Y-113831918D02*
X238705052Y-113831918D01*
X45974000Y-113792000D02*
X45944938Y-113821062D01*
X43255393Y-114021034D02*
X43455865Y-113820562D01*
X45974000Y-113792000D02*
X238252000Y-113792000D01*
X238252000Y-113792000D02*
X238291918Y-113831918D01*
X43456365Y-113821062D02*
X43455865Y-113820562D01*
X45944938Y-113821062D02*
X43456365Y-113821062D01*
%TO.N,/23b*%
X241591252Y-113596318D02*
X241426852Y-113431918D01*
X241426852Y-113431918D02*
X241055052Y-113431918D01*
%TO.N,/24b*%
X238705052Y-113431918D02*
X238658734Y-113385600D01*
X44995046Y-113385600D02*
X44982593Y-113398053D01*
X238658734Y-113385600D02*
X44995046Y-113385600D01*
%TD*%
%TA.AperFunction,Conductor*%
%TO.N,GND*%
G36*
X241809898Y-110485814D02*
G01*
X242074200Y-110501801D01*
X242081634Y-110502705D01*
X242340260Y-110550101D01*
X242347530Y-110551892D01*
X242598561Y-110630116D01*
X242605554Y-110632769D01*
X242743118Y-110694681D01*
X242845330Y-110740683D01*
X242851956Y-110744160D01*
X243072104Y-110877245D01*
X243076969Y-110880186D01*
X243083135Y-110884442D01*
X243215069Y-110987806D01*
X243290111Y-111046597D01*
X243295711Y-111051558D01*
X243481640Y-111237487D01*
X243486602Y-111243088D01*
X243648756Y-111450063D01*
X243653013Y-111456230D01*
X243789036Y-111681238D01*
X243792519Y-111687874D01*
X243900430Y-111927645D01*
X243903086Y-111934647D01*
X243904231Y-111938321D01*
X243981305Y-112185663D01*
X243983098Y-112192939D01*
X244030494Y-112451565D01*
X244031398Y-112459004D01*
X244047387Y-112723333D01*
X244047500Y-112727077D01*
X244047500Y-118275203D01*
X244047387Y-118278950D01*
X244031387Y-118543285D01*
X244030484Y-118550724D01*
X244011452Y-118654561D01*
X243983237Y-118808504D01*
X243983085Y-118809331D01*
X243981291Y-118816607D01*
X243903062Y-119067633D01*
X243900404Y-119074640D01*
X243792491Y-119314403D01*
X243789008Y-119321038D01*
X243652986Y-119546041D01*
X243648729Y-119552207D01*
X243486574Y-119759181D01*
X243481605Y-119764790D01*
X243295691Y-119950704D01*
X243290082Y-119955673D01*
X243083108Y-120117828D01*
X243076942Y-120122085D01*
X242851940Y-120258107D01*
X242845305Y-120261590D01*
X242605537Y-120369505D01*
X242598531Y-120372163D01*
X242347514Y-120450390D01*
X242340243Y-120452182D01*
X242185451Y-120480554D01*
X242081626Y-120499584D01*
X242074187Y-120500487D01*
X241809880Y-120516485D01*
X241806136Y-120516598D01*
X241760394Y-120516600D01*
X241760391Y-120516600D01*
X42272669Y-120527765D01*
X42266672Y-120527765D01*
X42262927Y-120527652D01*
X41998595Y-120511661D01*
X41991156Y-120510758D01*
X41732535Y-120463365D01*
X41725259Y-120461571D01*
X41474229Y-120383348D01*
X41467222Y-120380691D01*
X41227452Y-120272780D01*
X41220820Y-120269300D01*
X40995813Y-120133280D01*
X40989646Y-120129023D01*
X40782661Y-119966865D01*
X40777060Y-119961903D01*
X40591126Y-119775973D01*
X40586166Y-119770374D01*
X40581791Y-119764790D01*
X40424010Y-119563402D01*
X40419753Y-119557235D01*
X40283722Y-119332221D01*
X40280239Y-119325586D01*
X40280207Y-119325516D01*
X40172325Y-119085823D01*
X40169668Y-119078818D01*
X40168167Y-119074002D01*
X40135887Y-118970418D01*
X40091439Y-118827785D01*
X40089649Y-118820526D01*
X40042245Y-118561885D01*
X40041344Y-118554462D01*
X40025405Y-118291066D01*
X40025292Y-118287321D01*
X40025292Y-118232506D01*
X40025096Y-118230086D01*
X40016323Y-115646634D01*
X42549748Y-115646634D01*
X42570252Y-115815503D01*
X42570253Y-115815508D01*
X42630575Y-115974565D01*
X42703011Y-116079505D01*
X42724894Y-116145859D01*
X42713342Y-116196289D01*
X42715273Y-116197022D01*
X42652291Y-116363090D01*
X42652290Y-116363095D01*
X42631786Y-116531965D01*
X42652290Y-116700834D01*
X42652291Y-116700839D01*
X42712613Y-116859895D01*
X42715976Y-116864767D01*
X42737858Y-116931121D01*
X42720392Y-116998773D01*
X42715977Y-117005643D01*
X42706964Y-117018701D01*
X42706962Y-117018703D01*
X42646640Y-117177760D01*
X42646639Y-117177765D01*
X42626135Y-117346635D01*
X42646639Y-117515504D01*
X42646640Y-117515509D01*
X42706962Y-117674566D01*
X42764121Y-117757374D01*
X42786004Y-117823728D01*
X42778013Y-117871784D01*
X42722654Y-118017756D01*
X42722652Y-118017764D01*
X42702148Y-118186634D01*
X42722652Y-118355503D01*
X42722653Y-118355508D01*
X42782975Y-118514565D01*
X42825669Y-118576417D01*
X42879610Y-118654563D01*
X42973616Y-118737845D01*
X43006943Y-118767370D01*
X43130676Y-118832310D01*
X43157568Y-118846424D01*
X43322737Y-118887134D01*
X43492849Y-118887134D01*
X43658018Y-118846424D01*
X43714236Y-118816918D01*
X238000052Y-118816918D01*
X238000052Y-118879762D01*
X238006453Y-118939290D01*
X238006455Y-118939297D01*
X238056697Y-119074004D01*
X238056701Y-119074011D01*
X238142861Y-119189105D01*
X238142864Y-119189108D01*
X238257958Y-119275268D01*
X238257965Y-119275272D01*
X238392672Y-119325514D01*
X238392679Y-119325516D01*
X238452207Y-119331917D01*
X238452224Y-119331918D01*
X238500052Y-119331918D01*
X238500052Y-118816918D01*
X238000052Y-118816918D01*
X43714236Y-118816918D01*
X43747340Y-118799543D01*
X43808638Y-118767372D01*
X43808639Y-118767370D01*
X43808645Y-118767368D01*
X43828123Y-118750111D01*
X43846044Y-118736906D01*
X43849530Y-118734791D01*
X43849537Y-118734788D01*
X43905465Y-118695149D01*
X43971543Y-118672446D01*
X43977166Y-118672318D01*
X44582055Y-118672318D01*
X44590153Y-118672848D01*
X44625217Y-118677465D01*
X44780937Y-118656964D01*
X44926045Y-118596858D01*
X45019368Y-118525249D01*
X45019368Y-118525248D01*
X45042306Y-118507648D01*
X45042306Y-118507647D01*
X45050652Y-118501244D01*
X45072185Y-118473179D01*
X45077529Y-118467087D01*
X45106590Y-118438026D01*
X45167914Y-118404542D01*
X45194270Y-118401709D01*
X237867698Y-118401709D01*
X237915147Y-118411146D01*
X237919798Y-118413073D01*
X238075518Y-118433574D01*
X238110581Y-118428957D01*
X238118680Y-118428427D01*
X238272732Y-118428427D01*
X238297039Y-118430832D01*
X238340613Y-118439544D01*
X238370484Y-118445516D01*
X238372562Y-118446006D01*
X238372569Y-118446009D01*
X238372575Y-118446009D01*
X238373441Y-118446214D01*
X238373658Y-118446245D01*
X238376846Y-118446788D01*
X238376855Y-118446790D01*
X238405293Y-118451636D01*
X238417369Y-118451605D01*
X238421052Y-118451596D01*
X238427827Y-118451950D01*
X238432179Y-118452418D01*
X238590488Y-118452417D01*
X238657527Y-118472101D01*
X238703282Y-118524905D01*
X238706430Y-118532445D01*
X238731234Y-118597848D01*
X238827869Y-118737847D01*
X238928280Y-118826803D01*
X238965405Y-118885990D01*
X238970052Y-118919617D01*
X238970052Y-119331918D01*
X239017880Y-119331918D01*
X239017896Y-119331917D01*
X239077424Y-119325516D01*
X239077431Y-119325514D01*
X239212138Y-119275272D01*
X239212145Y-119275268D01*
X239327239Y-119189108D01*
X239327242Y-119189105D01*
X239413402Y-119074011D01*
X239413407Y-119074002D01*
X239430253Y-119028836D01*
X239472123Y-118972902D01*
X239516759Y-118951771D01*
X239553325Y-118942758D01*
X239560433Y-118941442D01*
X239576267Y-118939452D01*
X239576268Y-118939451D01*
X239576273Y-118939451D01*
X239812566Y-118874605D01*
X239855924Y-118871634D01*
X239855924Y-118871574D01*
X239856802Y-118871574D01*
X239861569Y-118871247D01*
X239864052Y-118871574D01*
X240019772Y-118851073D01*
X240122542Y-118808503D01*
X240192010Y-118801035D01*
X240254490Y-118832310D01*
X240290142Y-118892399D01*
X240293283Y-118909807D01*
X240296453Y-118939291D01*
X240296455Y-118939297D01*
X240346697Y-119074004D01*
X240346701Y-119074011D01*
X240432861Y-119189105D01*
X240432864Y-119189108D01*
X240547958Y-119275268D01*
X240547965Y-119275272D01*
X240682672Y-119325514D01*
X240682679Y-119325516D01*
X240742207Y-119331917D01*
X240742224Y-119331918D01*
X240790052Y-119331918D01*
X240790052Y-118816918D01*
X241260052Y-118816918D01*
X241260052Y-119331918D01*
X241307880Y-119331918D01*
X241307896Y-119331917D01*
X241367424Y-119325516D01*
X241367431Y-119325514D01*
X241502138Y-119275272D01*
X241502145Y-119275268D01*
X241617239Y-119189108D01*
X241617242Y-119189105D01*
X241703402Y-119074011D01*
X241703406Y-119074004D01*
X241753648Y-118939297D01*
X241753650Y-118939290D01*
X241760051Y-118879762D01*
X241760052Y-118879745D01*
X241760052Y-118816918D01*
X241260052Y-118816918D01*
X240790052Y-118816918D01*
X240790052Y-118576417D01*
X240809737Y-118509378D01*
X240862541Y-118463623D01*
X240914048Y-118452417D01*
X241327924Y-118452417D01*
X241387535Y-118446009D01*
X241393560Y-118443761D01*
X241463247Y-118438773D01*
X241466517Y-118439530D01*
X241547905Y-118459591D01*
X241547907Y-118459591D01*
X241718017Y-118459591D01*
X241883186Y-118418881D01*
X242003936Y-118355506D01*
X242033810Y-118339827D01*
X242033811Y-118339825D01*
X242033813Y-118339825D01*
X242161144Y-118227020D01*
X242257779Y-118087021D01*
X242318101Y-117927963D01*
X242338606Y-117759091D01*
X242318101Y-117590219D01*
X242257779Y-117431161D01*
X242195341Y-117340704D01*
X242173458Y-117274350D01*
X242190923Y-117206698D01*
X242195342Y-117199823D01*
X242221821Y-117161462D01*
X242282143Y-117002404D01*
X242302648Y-116833532D01*
X242282143Y-116664660D01*
X242221821Y-116505602D01*
X242221820Y-116505600D01*
X242221083Y-116503657D01*
X242215716Y-116433993D01*
X242227229Y-116402059D01*
X242228806Y-116399052D01*
X242228811Y-116399046D01*
X242289133Y-116239988D01*
X242309638Y-116071116D01*
X242289133Y-115902244D01*
X242228811Y-115743186D01*
X242228809Y-115743184D01*
X242228809Y-115743182D01*
X242228808Y-115743181D01*
X242224458Y-115736879D01*
X242202572Y-115670526D01*
X242220033Y-115602873D01*
X242224438Y-115596017D01*
X242227733Y-115591245D01*
X242288055Y-115432187D01*
X242308560Y-115263315D01*
X242288055Y-115094443D01*
X242227733Y-114935385D01*
X242224397Y-114930552D01*
X242202513Y-114864200D01*
X242219977Y-114796548D01*
X242224383Y-114789691D01*
X242226906Y-114786037D01*
X242287228Y-114626979D01*
X242307733Y-114458107D01*
X242287228Y-114289235D01*
X242226906Y-114130177D01*
X242199038Y-114089803D01*
X242177155Y-114023448D01*
X242194620Y-113955797D01*
X242199039Y-113948921D01*
X242216070Y-113924248D01*
X242276392Y-113765190D01*
X242296897Y-113596318D01*
X242276392Y-113427446D01*
X242261560Y-113388338D01*
X242249879Y-113357537D01*
X242216070Y-113268388D01*
X242119435Y-113128389D01*
X242024568Y-113044344D01*
X241992101Y-113015581D01*
X241841478Y-112936528D01*
X241722545Y-112907214D01*
X241704769Y-112901378D01*
X241582572Y-112850763D01*
X241569772Y-112849077D01*
X241494782Y-112839204D01*
X241490719Y-112838531D01*
X241389637Y-112818322D01*
X241386686Y-112817625D01*
X241386448Y-112817592D01*
X241383254Y-112817047D01*
X241383242Y-112817045D01*
X241372919Y-112815285D01*
X241354841Y-112812203D01*
X241339072Y-112812242D01*
X241332293Y-112811887D01*
X241328910Y-112811523D01*
X241327925Y-112811418D01*
X241327924Y-112811418D01*
X240782181Y-112811418D01*
X240782175Y-112811419D01*
X240722568Y-112817826D01*
X240587723Y-112868120D01*
X240587721Y-112868122D01*
X240555577Y-112892185D01*
X240490113Y-112916602D01*
X240481266Y-112916918D01*
X240290052Y-112916918D01*
X240290052Y-112979762D01*
X240293617Y-113012911D01*
X240281212Y-113081671D01*
X240233602Y-113132808D01*
X240165903Y-113150088D01*
X240137513Y-113145746D01*
X240133060Y-113144524D01*
X240045350Y-113120454D01*
X240037482Y-113118473D01*
X240024582Y-113115224D01*
X240024576Y-113115223D01*
X240019384Y-113114793D01*
X239999963Y-113111615D01*
X239910185Y-113089488D01*
X239910184Y-113089488D01*
X239740072Y-113089488D01*
X239740070Y-113089488D01*
X239622470Y-113118473D01*
X239552668Y-113115403D01*
X239495606Y-113075083D01*
X239469401Y-113010314D01*
X239469507Y-112984815D01*
X239470051Y-112979750D01*
X239470052Y-112979745D01*
X239470052Y-112916918D01*
X239278838Y-112916918D01*
X239211799Y-112897233D01*
X239204527Y-112892185D01*
X239203993Y-112891785D01*
X239172383Y-112868122D01*
X239172381Y-112868121D01*
X239172380Y-112868120D01*
X239037534Y-112817826D01*
X239037535Y-112817826D01*
X238977935Y-112811419D01*
X238977933Y-112811418D01*
X238977925Y-112811418D01*
X238977917Y-112811418D01*
X238855954Y-112811418D01*
X238822771Y-112804818D01*
X238822308Y-112806549D01*
X238814457Y-112804445D01*
X238726985Y-112792929D01*
X238697829Y-112789091D01*
X238658734Y-112783944D01*
X238623670Y-112788560D01*
X238615572Y-112789091D01*
X238457210Y-112789091D01*
X238453310Y-112788968D01*
X238401935Y-112785728D01*
X238396069Y-112785358D01*
X238395378Y-112785337D01*
X238387105Y-112785085D01*
X238387099Y-112785085D01*
X238387093Y-112785085D01*
X238387092Y-112785085D01*
X238317700Y-112787750D01*
X238317331Y-112787804D01*
X238299515Y-112789091D01*
X45474948Y-112789091D01*
X45446267Y-112785728D01*
X45329387Y-112757940D01*
X45185707Y-112723780D01*
X45173287Y-112720991D01*
X45173270Y-112720989D01*
X45169838Y-112720764D01*
X45148292Y-112717428D01*
X45067652Y-112697553D01*
X45067649Y-112697553D01*
X44897537Y-112697553D01*
X44732366Y-112738263D01*
X44581743Y-112817316D01*
X44454409Y-112930125D01*
X44357775Y-113070121D01*
X44340670Y-113115225D01*
X44335678Y-113128390D01*
X44329559Y-113144524D01*
X44287381Y-113200227D01*
X44221784Y-113224284D01*
X44213617Y-113224553D01*
X43577331Y-113224553D01*
X43573360Y-113224426D01*
X43563291Y-113223780D01*
X43563285Y-113223780D01*
X43561552Y-113224011D01*
X43553367Y-113224553D01*
X43502825Y-113224553D01*
X43494726Y-113224022D01*
X43455865Y-113218906D01*
X43300145Y-113239407D01*
X43300144Y-113239407D01*
X43155039Y-113299512D01*
X43155037Y-113299513D01*
X43136365Y-113313840D01*
X43094569Y-113334797D01*
X43047219Y-113348162D01*
X43033500Y-113352459D01*
X43025469Y-113355227D01*
X43022242Y-113356488D01*
X43014503Y-113358943D01*
X43005168Y-113361244D01*
X43005166Y-113361244D01*
X42973432Y-113377899D01*
X42969538Y-113379773D01*
X42950024Y-113388337D01*
X42950019Y-113388340D01*
X42949195Y-113388952D01*
X42932991Y-113399124D01*
X42854544Y-113440298D01*
X42854541Y-113440300D01*
X42727209Y-113553106D01*
X42630575Y-113693102D01*
X42570253Y-113852159D01*
X42570252Y-113852164D01*
X42549748Y-114021034D01*
X42570252Y-114189903D01*
X42570253Y-114189908D01*
X42630575Y-114348965D01*
X42630577Y-114348968D01*
X42653650Y-114382396D01*
X42675532Y-114448751D01*
X42658066Y-114516402D01*
X42653650Y-114523272D01*
X42630577Y-114556699D01*
X42630575Y-114556702D01*
X42570253Y-114715759D01*
X42570252Y-114715764D01*
X42549748Y-114884634D01*
X42570252Y-115053503D01*
X42570254Y-115053511D01*
X42633234Y-115219578D01*
X42630699Y-115220539D01*
X42641904Y-115276555D01*
X42631752Y-115311128D01*
X42633234Y-115311690D01*
X42570254Y-115477756D01*
X42570252Y-115477764D01*
X42549748Y-115646634D01*
X40016323Y-115646634D01*
X40007249Y-112974245D01*
X40007362Y-112970314D01*
X40011179Y-112907214D01*
X40023343Y-112706108D01*
X40024246Y-112698678D01*
X40048618Y-112565681D01*
X40070381Y-112446918D01*
X238000052Y-112446918D01*
X238500052Y-112446918D01*
X238500052Y-111931918D01*
X238970052Y-111931918D01*
X238970052Y-112446918D01*
X239470052Y-112446918D01*
X240290052Y-112446918D01*
X240790052Y-112446918D01*
X240790052Y-111931918D01*
X241260052Y-111931918D01*
X241260052Y-112446918D01*
X241760052Y-112446918D01*
X241760052Y-112384090D01*
X241760051Y-112384073D01*
X241753650Y-112324545D01*
X241753648Y-112324538D01*
X241703406Y-112189831D01*
X241703402Y-112189824D01*
X241617242Y-112074730D01*
X241617239Y-112074727D01*
X241502145Y-111988567D01*
X241502138Y-111988563D01*
X241367431Y-111938321D01*
X241367424Y-111938319D01*
X241307896Y-111931918D01*
X241260052Y-111931918D01*
X240790052Y-111931918D01*
X240742207Y-111931918D01*
X240682679Y-111938319D01*
X240682672Y-111938321D01*
X240547965Y-111988563D01*
X240547958Y-111988567D01*
X240432864Y-112074727D01*
X240432861Y-112074730D01*
X240346701Y-112189824D01*
X240346697Y-112189831D01*
X240296455Y-112324538D01*
X240296453Y-112324545D01*
X240290052Y-112384073D01*
X240290052Y-112446918D01*
X239470052Y-112446918D01*
X239470052Y-112384090D01*
X239470051Y-112384073D01*
X239463650Y-112324545D01*
X239463648Y-112324538D01*
X239413406Y-112189831D01*
X239413402Y-112189824D01*
X239327242Y-112074730D01*
X239327239Y-112074727D01*
X239212145Y-111988567D01*
X239212138Y-111988563D01*
X239077431Y-111938321D01*
X239077424Y-111938319D01*
X239017896Y-111931918D01*
X238970052Y-111931918D01*
X238500052Y-111931918D01*
X238452207Y-111931918D01*
X238392679Y-111938319D01*
X238392672Y-111938321D01*
X238257965Y-111988563D01*
X238257958Y-111988567D01*
X238142864Y-112074727D01*
X238142861Y-112074730D01*
X238056701Y-112189824D01*
X238056697Y-112189831D01*
X238006455Y-112324538D01*
X238006453Y-112324545D01*
X238000052Y-112384073D01*
X238000052Y-112446918D01*
X40070381Y-112446918D01*
X40071642Y-112440038D01*
X40073427Y-112432797D01*
X40151659Y-112181744D01*
X40154308Y-112174762D01*
X40185477Y-112105506D01*
X40262221Y-111934987D01*
X40265702Y-111928357D01*
X40401724Y-111703349D01*
X40405975Y-111697188D01*
X40568133Y-111490211D01*
X40573100Y-111484606D01*
X40759022Y-111298686D01*
X40764631Y-111293717D01*
X40829255Y-111243088D01*
X40971603Y-111131565D01*
X40977767Y-111127312D01*
X41202783Y-110991288D01*
X41209409Y-110987810D01*
X41449187Y-110879897D01*
X41456179Y-110877245D01*
X41707222Y-110799021D01*
X41714467Y-110797236D01*
X41973118Y-110749839D01*
X41980530Y-110748940D01*
X42245301Y-110732928D01*
X42249037Y-110732816D01*
X42294332Y-110732817D01*
X42294335Y-110732816D01*
X42303615Y-110732816D01*
X42304520Y-110732743D01*
X241806093Y-110485702D01*
X241809898Y-110485814D01*
G37*
%TD.AperFunction*%
%TD*%
%TA.AperFunction,Conductor*%
%TO.N,/1b*%
G36*
X239747449Y-118171548D02*
G01*
X239754520Y-118177041D01*
X239756052Y-118182830D01*
X239756052Y-118357005D01*
X239752625Y-118365278D01*
X239747448Y-118368288D01*
X239442497Y-118451974D01*
X239433612Y-118450859D01*
X239428613Y-118445219D01*
X239356950Y-118274443D01*
X239356910Y-118265491D01*
X239356923Y-118265458D01*
X239428613Y-118094615D01*
X239434973Y-118088314D01*
X239442497Y-118087861D01*
X239747449Y-118171548D01*
G37*
%TD.AperFunction*%
%TD*%
%TA.AperFunction,Conductor*%
%TO.N,/1b*%
G36*
X240833737Y-117713874D02*
G01*
X240875235Y-117735909D01*
X241036589Y-117821584D01*
X241042289Y-117828491D01*
X241041436Y-117837405D01*
X241036589Y-117842252D01*
X240833738Y-117949960D01*
X240825957Y-117951099D01*
X240719458Y-117929807D01*
X240712017Y-117924825D01*
X240710052Y-117918334D01*
X240710052Y-117745501D01*
X240713479Y-117737228D01*
X240719456Y-117734028D01*
X240825959Y-117712736D01*
X240833737Y-117713874D01*
G37*
%TD.AperFunction*%
%TD*%
%TA.AperFunction,Conductor*%
%TO.N,/2b*%
G36*
X238483737Y-117713874D02*
G01*
X238525235Y-117735909D01*
X238686589Y-117821584D01*
X238692289Y-117828491D01*
X238691436Y-117837405D01*
X238686589Y-117842252D01*
X238483738Y-117949960D01*
X238475957Y-117951099D01*
X238369458Y-117929807D01*
X238362017Y-117924825D01*
X238360052Y-117918334D01*
X238360052Y-117745501D01*
X238363479Y-117737228D01*
X238369456Y-117734028D01*
X238475959Y-117712736D01*
X238483737Y-117713874D01*
G37*
%TD.AperFunction*%
%TD*%
%TA.AperFunction,Conductor*%
%TO.N,/2b*%
G36*
X43766073Y-117983295D02*
G01*
X43769656Y-117991502D01*
X43769658Y-117991723D01*
X43769658Y-118165769D01*
X43766231Y-118174042D01*
X43764723Y-118175315D01*
X43557240Y-118322365D01*
X43548509Y-118324353D01*
X43542231Y-118321121D01*
X43410273Y-118190090D01*
X43406817Y-118181829D01*
X43407735Y-117998055D01*
X43411203Y-117989802D01*
X43419213Y-117986418D01*
X43757737Y-117980025D01*
X43766073Y-117983295D01*
G37*
%TD.AperFunction*%
%TD*%
%TA.AperFunction,Conductor*%
%TO.N,/3b*%
G36*
X241284297Y-117353551D02*
G01*
X241427554Y-117416956D01*
X241433732Y-117423437D01*
X241433517Y-117432389D01*
X241431091Y-117435927D01*
X241310951Y-117556067D01*
X241302678Y-117559494D01*
X241302331Y-117559489D01*
X241058952Y-117552275D01*
X241050784Y-117548604D01*
X241047604Y-117540233D01*
X241047621Y-117539857D01*
X241053866Y-117438946D01*
X241057798Y-117430901D01*
X241061650Y-117428636D01*
X241275673Y-117353215D01*
X241284297Y-117353551D01*
G37*
%TD.AperFunction*%
%TD*%
%TA.AperFunction,Conductor*%
%TO.N,/3b*%
G36*
X241431610Y-117409144D02*
G01*
X241700831Y-117569163D01*
X241706191Y-117576335D01*
X241705682Y-117583648D01*
X241635525Y-117755253D01*
X241629222Y-117761614D01*
X241629123Y-117761655D01*
X241458915Y-117831240D01*
X241449960Y-117831199D01*
X241443657Y-117824838D01*
X241442852Y-117819193D01*
X241444025Y-117808033D01*
X241444024Y-117808029D01*
X241414664Y-117717666D01*
X241414662Y-117717664D01*
X241410557Y-117713104D01*
X241407552Y-117705276D01*
X241407552Y-117699360D01*
X241400154Y-117662170D01*
X241371974Y-117619996D01*
X241329800Y-117591816D01*
X241319678Y-117589802D01*
X241312232Y-117584826D01*
X241311676Y-117583905D01*
X241303681Y-117569162D01*
X241292176Y-117547948D01*
X241291245Y-117539043D01*
X241294187Y-117534101D01*
X241417360Y-117410928D01*
X241425632Y-117407502D01*
X241431610Y-117409144D01*
G37*
%TD.AperFunction*%
%TD*%
%TA.AperFunction,Conductor*%
%TO.N,/4b*%
G36*
X44743779Y-117316046D02*
G01*
X44744790Y-117320803D01*
X44744790Y-117492202D01*
X44743682Y-117497171D01*
X44639512Y-117719239D01*
X44632897Y-117725274D01*
X44624463Y-117725088D01*
X44453521Y-117654662D01*
X44447177Y-117648342D01*
X44377756Y-117478525D01*
X44377797Y-117469573D01*
X44383828Y-117463411D01*
X44728333Y-117310113D01*
X44737285Y-117309881D01*
X44743779Y-117316046D01*
G37*
%TD.AperFunction*%
%TD*%
%TA.AperFunction,Conductor*%
%TO.N,/4b*%
G36*
X238483737Y-117313874D02*
G01*
X238525235Y-117335909D01*
X238686589Y-117421584D01*
X238692289Y-117428491D01*
X238691436Y-117437405D01*
X238686589Y-117442252D01*
X238483738Y-117549960D01*
X238475957Y-117551099D01*
X238369458Y-117529807D01*
X238362017Y-117524825D01*
X238360052Y-117518334D01*
X238360052Y-117345501D01*
X238363479Y-117337228D01*
X238369456Y-117334028D01*
X238475959Y-117312736D01*
X238483737Y-117313874D01*
G37*
%TD.AperFunction*%
%TD*%
%TA.AperFunction,Conductor*%
%TO.N,/5b*%
G36*
X239636476Y-116895392D02*
G01*
X240000809Y-116934780D01*
X240008665Y-116939076D01*
X240011251Y-116946412D01*
X240011251Y-117120596D01*
X240007824Y-117128869D01*
X240004656Y-117131124D01*
X239711251Y-117273386D01*
X239702311Y-117273912D01*
X239695618Y-117267963D01*
X239695357Y-117267385D01*
X239638178Y-117131124D01*
X239623521Y-117096195D01*
X239622611Y-117091617D01*
X239623535Y-116906965D01*
X239627003Y-116898711D01*
X239635294Y-116895325D01*
X239636476Y-116895392D01*
G37*
%TD.AperFunction*%
%TD*%
%TA.AperFunction,Conductor*%
%TO.N,/5b*%
G36*
X240833737Y-116913874D02*
G01*
X240875235Y-116935909D01*
X241036589Y-117021584D01*
X241042289Y-117028491D01*
X241041436Y-117037405D01*
X241036589Y-117042252D01*
X240833738Y-117149960D01*
X240825957Y-117151099D01*
X240719458Y-117129807D01*
X240712017Y-117124825D01*
X240710052Y-117118334D01*
X240710052Y-116945501D01*
X240713479Y-116937228D01*
X240719456Y-116934028D01*
X240825959Y-116912736D01*
X240833737Y-116913874D01*
G37*
%TD.AperFunction*%
%TD*%
%TA.AperFunction,Conductor*%
%TO.N,/6b*%
G36*
X43541813Y-117014236D02*
G01*
X43665151Y-117137574D01*
X43668578Y-117145847D01*
X43667111Y-117151519D01*
X43521594Y-117414080D01*
X43514587Y-117419655D01*
X43506933Y-117419238D01*
X43494316Y-117414080D01*
X43482100Y-117409085D01*
X43335617Y-117349199D01*
X43329256Y-117342896D01*
X43329215Y-117342797D01*
X43259193Y-117171522D01*
X43259234Y-117162567D01*
X43264394Y-117156838D01*
X43527912Y-117012251D01*
X43536814Y-117011276D01*
X43541813Y-117014236D01*
G37*
%TD.AperFunction*%
%TD*%
%TA.AperFunction,Conductor*%
%TO.N,/6b*%
G36*
X238483737Y-116913874D02*
G01*
X238525235Y-116935909D01*
X238686589Y-117021584D01*
X238692289Y-117028491D01*
X238691436Y-117037405D01*
X238686589Y-117042252D01*
X238483738Y-117149960D01*
X238475957Y-117151099D01*
X238369458Y-117129807D01*
X238362017Y-117124825D01*
X238360052Y-117118334D01*
X238360052Y-116945501D01*
X238363479Y-116937228D01*
X238369456Y-116934028D01*
X238475959Y-116912736D01*
X238483737Y-116913874D01*
G37*
%TD.AperFunction*%
%TD*%
%TA.AperFunction,Conductor*%
%TO.N,/7b*%
G36*
X241295439Y-116540194D02*
G01*
X241661003Y-116645156D01*
X241668009Y-116650733D01*
X241669020Y-116659631D01*
X241668604Y-116660829D01*
X241598902Y-116831331D01*
X241596316Y-116835206D01*
X241465384Y-116965219D01*
X241457099Y-116968617D01*
X241448838Y-116965161D01*
X241447594Y-116963682D01*
X241409706Y-116910220D01*
X241407552Y-116903455D01*
X241407552Y-116899360D01*
X241400154Y-116862170D01*
X241371974Y-116819996D01*
X241371973Y-116819995D01*
X241329801Y-116791816D01*
X241329798Y-116791815D01*
X241329697Y-116791795D01*
X241329603Y-116791734D01*
X241328736Y-116791375D01*
X241328802Y-116791214D01*
X241322440Y-116787086D01*
X241282668Y-116730966D01*
X241280514Y-116724201D01*
X241280514Y-116551441D01*
X241283941Y-116543168D01*
X241292214Y-116539741D01*
X241295439Y-116540194D01*
G37*
%TD.AperFunction*%
%TD*%
%TA.AperFunction,Conductor*%
%TO.N,/7b*%
G36*
X241447482Y-116561851D02*
G01*
X241454489Y-116567427D01*
X241455503Y-116576324D01*
X241452529Y-116581371D01*
X241330798Y-116703103D01*
X241286181Y-116746022D01*
X241277843Y-116749288D01*
X241272552Y-116747907D01*
X241073906Y-116641672D01*
X241068227Y-116634749D01*
X241069107Y-116625837D01*
X241074025Y-116620975D01*
X241275912Y-116515979D01*
X241284535Y-116515113D01*
X241447482Y-116561851D01*
G37*
%TD.AperFunction*%
%TD*%
%TA.AperFunction,Conductor*%
%TO.N,/8b*%
G36*
X238483737Y-116513874D02*
G01*
X238525235Y-116535909D01*
X238686589Y-116621584D01*
X238692289Y-116628491D01*
X238691436Y-116637405D01*
X238686589Y-116642252D01*
X238483738Y-116749960D01*
X238475957Y-116751099D01*
X238369458Y-116729807D01*
X238362017Y-116724825D01*
X238360052Y-116718334D01*
X238360052Y-116545501D01*
X238363479Y-116537228D01*
X238369456Y-116534028D01*
X238475959Y-116512736D01*
X238483737Y-116513874D01*
G37*
%TD.AperFunction*%
%TD*%
%TA.AperFunction,Conductor*%
%TO.N,/8b*%
G36*
X44970733Y-116454130D02*
G01*
X45334108Y-116488976D01*
X45342016Y-116493177D01*
X45344691Y-116500623D01*
X45344691Y-116674789D01*
X45341264Y-116683062D01*
X45338240Y-116685246D01*
X45045729Y-116832067D01*
X45036797Y-116832715D01*
X45030023Y-116826859D01*
X45029691Y-116826137D01*
X44970569Y-116685246D01*
X44957921Y-116655104D01*
X44957011Y-116650527D01*
X44957935Y-116465717D01*
X44961403Y-116457464D01*
X44969693Y-116454078D01*
X44970733Y-116454130D01*
G37*
%TD.AperFunction*%
%TD*%
%TA.AperFunction,Conductor*%
%TO.N,/9b*%
G36*
X240793867Y-116135786D02*
G01*
X240802103Y-116139300D01*
X240805443Y-116147485D01*
X240805443Y-116321554D01*
X240802016Y-116329827D01*
X240800089Y-116331383D01*
X240524668Y-116509201D01*
X240515859Y-116510810D01*
X240508493Y-116505718D01*
X240507533Y-116503899D01*
X240436321Y-116334195D01*
X240435411Y-116329617D01*
X240436341Y-116143763D01*
X240439809Y-116135509D01*
X240448097Y-116132123D01*
X240793867Y-116135786D01*
G37*
%TD.AperFunction*%
%TD*%
%TA.AperFunction,Conductor*%
%TO.N,/9b*%
G36*
X240833737Y-116113874D02*
G01*
X240875235Y-116135909D01*
X241036589Y-116221584D01*
X241042289Y-116228491D01*
X241041436Y-116237405D01*
X241036589Y-116242252D01*
X240833738Y-116349960D01*
X240825957Y-116351099D01*
X240719458Y-116329807D01*
X240712017Y-116324825D01*
X240710052Y-116318334D01*
X240710052Y-116145501D01*
X240713479Y-116137228D01*
X240719456Y-116134028D01*
X240825959Y-116112736D01*
X240833737Y-116113874D01*
G37*
%TD.AperFunction*%
%TD*%
%TA.AperFunction,Conductor*%
%TO.N,/10b*%
G36*
X238483737Y-116113874D02*
G01*
X238525235Y-116135909D01*
X238686589Y-116221584D01*
X238692289Y-116228491D01*
X238691436Y-116237405D01*
X238686589Y-116242252D01*
X238483738Y-116349960D01*
X238475957Y-116351099D01*
X238369458Y-116329807D01*
X238362017Y-116324825D01*
X238360052Y-116318334D01*
X238360052Y-116145501D01*
X238363479Y-116137228D01*
X238369456Y-116134028D01*
X238475959Y-116112736D01*
X238483737Y-116113874D01*
G37*
%TD.AperFunction*%
%TD*%
%TA.AperFunction,Conductor*%
%TO.N,/10b*%
G36*
X43660412Y-116266447D02*
G01*
X43665472Y-116273835D01*
X43665724Y-116276249D01*
X43665724Y-116449537D01*
X43662933Y-116457121D01*
X43487040Y-116663766D01*
X43479069Y-116667844D01*
X43470547Y-116665091D01*
X43469887Y-116664484D01*
X43338117Y-116533639D01*
X43335531Y-116529764D01*
X43266200Y-116360168D01*
X43266241Y-116351216D01*
X43272603Y-116344913D01*
X43274610Y-116344296D01*
X43651610Y-116264801D01*
X43660412Y-116266447D01*
G37*
%TD.AperFunction*%
%TD*%
%TA.AperFunction,Conductor*%
%TO.N,/11b*%
G36*
X241439872Y-115782880D02*
G01*
X241446587Y-115788804D01*
X241447147Y-115797741D01*
X241444352Y-115802221D01*
X241322705Y-115923868D01*
X241320812Y-115925403D01*
X241285849Y-115948146D01*
X241277045Y-115949784D01*
X241273951Y-115948655D01*
X241075179Y-115842353D01*
X241069500Y-115835430D01*
X241070380Y-115826518D01*
X241075835Y-115821394D01*
X241275811Y-115730050D01*
X241284461Y-115729625D01*
X241439872Y-115782880D01*
G37*
%TD.AperFunction*%
%TD*%
%TA.AperFunction,Conductor*%
%TO.N,/11b*%
G36*
X241319102Y-115742297D02*
G01*
X241669565Y-115881970D01*
X241675981Y-115888217D01*
X241676102Y-115897171D01*
X241676063Y-115897266D01*
X241606844Y-116066587D01*
X241600541Y-116072949D01*
X241600471Y-116072978D01*
X241429048Y-116143602D01*
X241420093Y-116143585D01*
X241414247Y-116138251D01*
X241408908Y-116128149D01*
X241407552Y-116122682D01*
X241407552Y-116099360D01*
X241400154Y-116062170D01*
X241371974Y-116019996D01*
X241371973Y-116019995D01*
X241343150Y-116000735D01*
X241339306Y-115996475D01*
X241304428Y-115930492D01*
X241303072Y-115925024D01*
X241303072Y-115753167D01*
X241306499Y-115744894D01*
X241314772Y-115741467D01*
X241319102Y-115742297D01*
G37*
%TD.AperFunction*%
%TD*%
%TA.AperFunction,Conductor*%
%TO.N,/12b*%
G36*
X44782225Y-115731483D02*
G01*
X44785802Y-115739692D01*
X44785804Y-115739906D01*
X44785804Y-115913953D01*
X44782377Y-115922226D01*
X44780860Y-115923505D01*
X44647844Y-116017584D01*
X44643521Y-116019476D01*
X44633290Y-116021651D01*
X44633284Y-116021653D01*
X44619900Y-116031376D01*
X44617218Y-116032833D01*
X44601772Y-116038763D01*
X44581273Y-116059262D01*
X44579877Y-116060455D01*
X44570408Y-116067334D01*
X44561700Y-116069424D01*
X44555287Y-116066170D01*
X44426273Y-115938063D01*
X44422817Y-115929802D01*
X44423735Y-115746035D01*
X44427203Y-115737782D01*
X44435220Y-115734398D01*
X44773891Y-115728208D01*
X44782225Y-115731483D01*
G37*
%TD.AperFunction*%
%TD*%
%TA.AperFunction,Conductor*%
%TO.N,/12b*%
G36*
X238483737Y-115713874D02*
G01*
X238525235Y-115735909D01*
X238686589Y-115821584D01*
X238692289Y-115828491D01*
X238691436Y-115837405D01*
X238686589Y-115842252D01*
X238483738Y-115949960D01*
X238475957Y-115951099D01*
X238369458Y-115929807D01*
X238362017Y-115924825D01*
X238360052Y-115918334D01*
X238360052Y-115745501D01*
X238363479Y-115737228D01*
X238369456Y-115734028D01*
X238475959Y-115712736D01*
X238483737Y-115713874D01*
G37*
%TD.AperFunction*%
%TD*%
%TA.AperFunction,Conductor*%
%TO.N,/13b*%
G36*
X240177359Y-115339535D02*
G01*
X240181201Y-115347624D01*
X240181216Y-115348217D01*
X240181216Y-115522241D01*
X240177789Y-115530514D01*
X240176745Y-115531440D01*
X239976354Y-115688920D01*
X239967732Y-115691338D01*
X239960881Y-115688023D01*
X239829280Y-115557347D01*
X239825824Y-115549086D01*
X239826744Y-115364955D01*
X239830212Y-115356701D01*
X239837850Y-115353330D01*
X240168924Y-115336532D01*
X240177359Y-115339535D01*
G37*
%TD.AperFunction*%
%TD*%
%TA.AperFunction,Conductor*%
%TO.N,/13b*%
G36*
X240833737Y-115313874D02*
G01*
X240875235Y-115335909D01*
X241036589Y-115421584D01*
X241042289Y-115428491D01*
X241041436Y-115437405D01*
X241036589Y-115442252D01*
X240833738Y-115549960D01*
X240825957Y-115551099D01*
X240719458Y-115529807D01*
X240712017Y-115524825D01*
X240710052Y-115518334D01*
X240710052Y-115345501D01*
X240713479Y-115337228D01*
X240719456Y-115334028D01*
X240825959Y-115312736D01*
X240833737Y-115313874D01*
G37*
%TD.AperFunction*%
%TD*%
%TA.AperFunction,Conductor*%
%TO.N,/14b*%
G36*
X43576148Y-115377105D02*
G01*
X43581288Y-115384438D01*
X43581566Y-115386975D01*
X43581566Y-115560201D01*
X43578886Y-115567653D01*
X43404979Y-115778170D01*
X43397068Y-115782365D01*
X43388507Y-115779738D01*
X43387715Y-115779020D01*
X43256079Y-115648308D01*
X43253493Y-115644433D01*
X43184105Y-115474698D01*
X43184146Y-115465744D01*
X43190508Y-115459441D01*
X43192392Y-115458850D01*
X43567331Y-115375553D01*
X43576148Y-115377105D01*
G37*
%TD.AperFunction*%
%TD*%
%TA.AperFunction,Conductor*%
%TO.N,/14b*%
G36*
X238483737Y-115313874D02*
G01*
X238525235Y-115335909D01*
X238686589Y-115421584D01*
X238692289Y-115428491D01*
X238691436Y-115437405D01*
X238686589Y-115442252D01*
X238483738Y-115549960D01*
X238475957Y-115551099D01*
X238369458Y-115529807D01*
X238362017Y-115524825D01*
X238360052Y-115518334D01*
X238360052Y-115345501D01*
X238363479Y-115337228D01*
X238369456Y-115334028D01*
X238475959Y-115312736D01*
X238483737Y-115313874D01*
G37*
%TD.AperFunction*%
%TD*%
%TA.AperFunction,Conductor*%
%TO.N,/15b*%
G36*
X241441545Y-114978254D02*
G01*
X241448327Y-114984101D01*
X241448988Y-114993031D01*
X241446151Y-114997637D01*
X241324448Y-115119340D01*
X241323073Y-115120518D01*
X241285987Y-115147586D01*
X241277284Y-115149695D01*
X241273571Y-115148452D01*
X241074881Y-115042193D01*
X241069202Y-115035270D01*
X241070082Y-115026358D01*
X241075413Y-115021292D01*
X241275833Y-114926938D01*
X241284481Y-114926415D01*
X241441545Y-114978254D01*
G37*
%TD.AperFunction*%
%TD*%
%TA.AperFunction,Conductor*%
%TO.N,/15b*%
G36*
X241314565Y-114941829D02*
G01*
X241668166Y-115074310D01*
X241674711Y-115080421D01*
X241675017Y-115089371D01*
X241674891Y-115089693D01*
X241605766Y-115258786D01*
X241599463Y-115265148D01*
X241599393Y-115265177D01*
X241427709Y-115335909D01*
X241418754Y-115335892D01*
X241413059Y-115330833D01*
X241409056Y-115323728D01*
X241407552Y-115317988D01*
X241407552Y-115299360D01*
X241400154Y-115262170D01*
X241371974Y-115219996D01*
X241340061Y-115198672D01*
X241336368Y-115194687D01*
X241300269Y-115130600D01*
X241298763Y-115124858D01*
X241298763Y-114952786D01*
X241302190Y-114944513D01*
X241310463Y-114941086D01*
X241314565Y-114941829D01*
G37*
%TD.AperFunction*%
%TD*%
%TA.AperFunction,Conductor*%
%TO.N,/16b*%
G36*
X238483737Y-114913874D02*
G01*
X238525235Y-114935909D01*
X238686589Y-115021584D01*
X238692289Y-115028491D01*
X238691436Y-115037405D01*
X238686589Y-115042252D01*
X238483738Y-115149960D01*
X238475957Y-115151099D01*
X238369458Y-115129807D01*
X238362017Y-115124825D01*
X238360052Y-115118334D01*
X238360052Y-114945501D01*
X238363479Y-114937228D01*
X238369456Y-114934028D01*
X238475959Y-114912736D01*
X238483737Y-114913874D01*
G37*
%TD.AperFunction*%
%TD*%
%TA.AperFunction,Conductor*%
%TO.N,/16b*%
G36*
X45340032Y-114887820D02*
G01*
X45345768Y-114890969D01*
X45475682Y-115020883D01*
X45479109Y-115029156D01*
X45475682Y-115037429D01*
X45472745Y-115039568D01*
X45147375Y-115206325D01*
X45138450Y-115207049D01*
X45131627Y-115201249D01*
X45131250Y-115200440D01*
X45060785Y-115032525D01*
X45060744Y-115023571D01*
X45132368Y-114851581D01*
X45138712Y-114845262D01*
X45145704Y-114844658D01*
X45340032Y-114887820D01*
G37*
%TD.AperFunction*%
%TD*%
%TA.AperFunction,Conductor*%
%TO.N,/17b*%
G36*
X240573753Y-114358981D02*
G01*
X240575382Y-114359821D01*
X240682338Y-114426003D01*
X240854411Y-114532478D01*
X240859643Y-114539745D01*
X240859955Y-114542427D01*
X240859955Y-114716520D01*
X240856528Y-114724793D01*
X240848552Y-114728216D01*
X240499137Y-114737087D01*
X240490779Y-114733871D01*
X240487144Y-114725688D01*
X240487140Y-114725450D01*
X240487137Y-114724793D01*
X240486211Y-114539772D01*
X240487120Y-114535196D01*
X240558438Y-114365241D01*
X240564799Y-114358940D01*
X240573753Y-114358981D01*
G37*
%TD.AperFunction*%
%TD*%
%TA.AperFunction,Conductor*%
%TO.N,/17b*%
G36*
X240833737Y-114513874D02*
G01*
X240875235Y-114535909D01*
X241036589Y-114621584D01*
X241042289Y-114628491D01*
X241041436Y-114637405D01*
X241036589Y-114642252D01*
X240833738Y-114749960D01*
X240825957Y-114751099D01*
X240719458Y-114729807D01*
X240712017Y-114724825D01*
X240710052Y-114718334D01*
X240710052Y-114545501D01*
X240713479Y-114537228D01*
X240719456Y-114534028D01*
X240825959Y-114512736D01*
X240833737Y-114513874D01*
G37*
%TD.AperFunction*%
%TD*%
%TA.AperFunction,Conductor*%
%TO.N,/18b*%
G36*
X43558370Y-114575870D02*
G01*
X43564255Y-114582619D01*
X43564865Y-114586348D01*
X43564865Y-114758726D01*
X43563081Y-114764937D01*
X43445410Y-114952802D01*
X43438114Y-114957994D01*
X43431037Y-114957409D01*
X43379465Y-114936162D01*
X43258914Y-114886496D01*
X43252570Y-114880176D01*
X43183574Y-114711399D01*
X43183615Y-114702446D01*
X43189977Y-114696143D01*
X43190644Y-114695894D01*
X43549437Y-114575258D01*
X43558370Y-114575870D01*
G37*
%TD.AperFunction*%
%TD*%
%TA.AperFunction,Conductor*%
%TO.N,/18b*%
G36*
X238483737Y-114513874D02*
G01*
X238525235Y-114535909D01*
X238686589Y-114621584D01*
X238692289Y-114628491D01*
X238691436Y-114637405D01*
X238686589Y-114642252D01*
X238483738Y-114749960D01*
X238475957Y-114751099D01*
X238369458Y-114729807D01*
X238362017Y-114724825D01*
X238360052Y-114718334D01*
X238360052Y-114545501D01*
X238363479Y-114537228D01*
X238369456Y-114534028D01*
X238475959Y-114512736D01*
X238483737Y-114513874D01*
G37*
%TD.AperFunction*%
%TD*%
%TA.AperFunction,Conductor*%
%TO.N,/19b*%
G36*
X241311428Y-114141526D02*
G01*
X241667125Y-114269203D01*
X241673753Y-114275222D01*
X241674183Y-114284167D01*
X241674001Y-114284641D01*
X241604939Y-114453578D01*
X241598636Y-114459940D01*
X241598566Y-114459969D01*
X241426705Y-114530773D01*
X241417750Y-114530756D01*
X241412162Y-114525885D01*
X241409164Y-114520786D01*
X241407552Y-114514858D01*
X241407552Y-114499360D01*
X241400154Y-114462170D01*
X241371974Y-114419996D01*
X241337858Y-114397200D01*
X241334274Y-114393404D01*
X241297393Y-114330672D01*
X241295779Y-114324742D01*
X241295779Y-114152539D01*
X241299206Y-114144266D01*
X241307479Y-114140839D01*
X241311428Y-114141526D01*
G37*
%TD.AperFunction*%
%TD*%
%TA.AperFunction,Conductor*%
%TO.N,/19b*%
G36*
X241442636Y-114175240D02*
G01*
X241449461Y-114181037D01*
X241450188Y-114189962D01*
X241447324Y-114194650D01*
X241325350Y-114316624D01*
X241324805Y-114317106D01*
X241286051Y-114347251D01*
X241277416Y-114349626D01*
X241273349Y-114348333D01*
X241074692Y-114242092D01*
X241069013Y-114235169D01*
X241069893Y-114226257D01*
X241075145Y-114221229D01*
X241275847Y-114124917D01*
X241284491Y-114124329D01*
X241442636Y-114175240D01*
G37*
%TD.AperFunction*%
%TD*%
%TA.AperFunction,Conductor*%
%TO.N,/20b*%
G36*
X238483737Y-114113874D02*
G01*
X238525235Y-114135909D01*
X238686589Y-114221584D01*
X238692289Y-114228491D01*
X238691436Y-114237405D01*
X238686589Y-114242252D01*
X238483738Y-114349960D01*
X238475957Y-114351099D01*
X238369458Y-114329807D01*
X238362017Y-114324825D01*
X238360052Y-114318334D01*
X238360052Y-114145501D01*
X238363479Y-114137228D01*
X238369456Y-114134028D01*
X238475959Y-114112736D01*
X238483737Y-114113874D01*
G37*
%TD.AperFunction*%
%TD*%
%TA.AperFunction,Conductor*%
%TO.N,/20b*%
G36*
X44487957Y-114045581D02*
G01*
X44855649Y-114100892D01*
X44863320Y-114105512D01*
X44865608Y-114112462D01*
X44865608Y-114286675D01*
X44862181Y-114294948D01*
X44858493Y-114297439D01*
X44636270Y-114392083D01*
X44634119Y-114392763D01*
X44618649Y-114396053D01*
X44607954Y-114403823D01*
X44605662Y-114405121D01*
X44561952Y-114423737D01*
X44552997Y-114423826D01*
X44546603Y-114417558D01*
X44546578Y-114417500D01*
X44474514Y-114245766D01*
X44473604Y-114241188D01*
X44474525Y-114057092D01*
X44477993Y-114048838D01*
X44486284Y-114045452D01*
X44487957Y-114045581D01*
G37*
%TD.AperFunction*%
%TD*%
%TA.AperFunction,Conductor*%
%TO.N,/21b*%
G36*
X240216525Y-113691618D02*
G01*
X240223596Y-113697111D01*
X240225128Y-113702900D01*
X240225128Y-113877075D01*
X240221701Y-113885348D01*
X240216524Y-113888358D01*
X239911573Y-113972044D01*
X239902688Y-113970929D01*
X239897689Y-113965289D01*
X239826026Y-113794513D01*
X239825986Y-113785561D01*
X239825999Y-113785528D01*
X239897689Y-113614685D01*
X239904049Y-113608384D01*
X239911573Y-113607931D01*
X240216525Y-113691618D01*
G37*
%TD.AperFunction*%
%TD*%
%TA.AperFunction,Conductor*%
%TO.N,/21b*%
G36*
X240722333Y-113694602D02*
G01*
X241051496Y-113711318D01*
X241059583Y-113715160D01*
X241062586Y-113723596D01*
X241062580Y-113723708D01*
X241056492Y-113824610D01*
X241052573Y-113832661D01*
X241049285Y-113834716D01*
X240834057Y-113923749D01*
X240825934Y-113924054D01*
X240718101Y-113888640D01*
X240711310Y-113882803D01*
X240710052Y-113877524D01*
X240710052Y-113706288D01*
X240713479Y-113698015D01*
X240721752Y-113694588D01*
X240722333Y-113694602D01*
G37*
%TD.AperFunction*%
%TD*%
%TA.AperFunction,Conductor*%
%TO.N,/22b*%
G36*
X238483737Y-113713874D02*
G01*
X238525235Y-113735909D01*
X238686589Y-113821584D01*
X238692289Y-113828491D01*
X238691436Y-113837405D01*
X238686589Y-113842252D01*
X238483738Y-113949960D01*
X238475957Y-113951099D01*
X238369458Y-113929807D01*
X238362017Y-113924825D01*
X238360052Y-113918334D01*
X238360052Y-113745501D01*
X238363479Y-113737228D01*
X238369456Y-113734028D01*
X238475959Y-113712736D01*
X238483737Y-113713874D01*
G37*
%TD.AperFunction*%
%TD*%
%TA.AperFunction,Conductor*%
%TO.N,/22b*%
G36*
X43566870Y-113730303D02*
G01*
X43572415Y-113737334D01*
X43572855Y-113740512D01*
X43572855Y-113913307D01*
X43570662Y-113920127D01*
X43404819Y-114151296D01*
X43397212Y-114156021D01*
X43388492Y-114153983D01*
X43387071Y-114152781D01*
X43256079Y-114022708D01*
X43253493Y-114018833D01*
X43183813Y-113848383D01*
X43183854Y-113839431D01*
X43190216Y-113833128D01*
X43191446Y-113832704D01*
X43557977Y-113729252D01*
X43566870Y-113730303D01*
G37*
%TD.AperFunction*%
%TD*%
%TA.AperFunction,Conductor*%
%TO.N,/23b*%
G36*
X241273135Y-113338418D02*
G01*
X241581696Y-113394578D01*
X241589221Y-113399431D01*
X241591300Y-113406030D01*
X241592227Y-113591413D01*
X241588841Y-113599704D01*
X241588771Y-113599774D01*
X241458513Y-113729117D01*
X241450228Y-113732515D01*
X241441967Y-113729059D01*
X241441618Y-113728693D01*
X241407642Y-113691269D01*
X241404832Y-113685690D01*
X241400154Y-113662170D01*
X241371974Y-113619996D01*
X241329800Y-113591816D01*
X241318392Y-113589546D01*
X241312014Y-113585936D01*
X241262386Y-113531272D01*
X241259349Y-113523408D01*
X241259349Y-113349930D01*
X241262776Y-113341657D01*
X241271049Y-113338230D01*
X241273135Y-113338418D01*
G37*
%TD.AperFunction*%
%TD*%
%TA.AperFunction,Conductor*%
%TO.N,/23b*%
G36*
X241390647Y-113334028D02*
G01*
X241398087Y-113339010D01*
X241400052Y-113345501D01*
X241400052Y-113518334D01*
X241396625Y-113526607D01*
X241390646Y-113529807D01*
X241284146Y-113551099D01*
X241276365Y-113549960D01*
X241073514Y-113442252D01*
X241067814Y-113435345D01*
X241068667Y-113426431D01*
X241073514Y-113421584D01*
X241276366Y-113313874D01*
X241284144Y-113312736D01*
X241390647Y-113334028D01*
G37*
%TD.AperFunction*%
%TD*%
%TA.AperFunction,Conductor*%
%TO.N,/24b*%
G36*
X45371123Y-113287453D02*
G01*
X45378378Y-113292700D01*
X45380116Y-113298835D01*
X45380116Y-113473030D01*
X45376689Y-113481303D01*
X45371935Y-113484188D01*
X45069308Y-113579619D01*
X45060387Y-113578839D01*
X45055000Y-113572988D01*
X44983491Y-113402578D01*
X44983451Y-113393626D01*
X44983464Y-113393593D01*
X45055290Y-113222426D01*
X45061650Y-113216125D01*
X45068783Y-113215572D01*
X45371123Y-113287453D01*
G37*
%TD.AperFunction*%
%TD*%
%TA.AperFunction,Conductor*%
%TO.N,/24b*%
G36*
X238372476Y-113290374D02*
G01*
X238702331Y-113311178D01*
X238710370Y-113315119D01*
X238713270Y-113323591D01*
X238713267Y-113323633D01*
X238706540Y-113424581D01*
X238702571Y-113432608D01*
X238699229Y-113434659D01*
X238484091Y-113521111D01*
X238475935Y-113521323D01*
X238367959Y-113484318D01*
X238361244Y-113478394D01*
X238360052Y-113473250D01*
X238360052Y-113302052D01*
X238363479Y-113293779D01*
X238371752Y-113290352D01*
X238372476Y-113290374D01*
G37*
%TD.AperFunction*%
%TD*%
M02*
